<?xml version="1.0" encoding="UTF-8"?>
<mxfile host="app.diagrams.net">
  <diagram id="d1752830245462" name="Page-1">
    <mxGraphModel dx="800" dy="600" grid="1"><root>
      <mxCell id="0"/>
      <mxCell id="1" parent="0"/>
      <mxCell id="table_plantIsOperating" style="shape=table;container=1;recursiveResize=0;strokeColor=#000;" vertex="1" parent="1">
        <mxGeometry x="60" y="80" width="200" height="30" as="geometry"/>
      </mxCell>
      <mxCell id="r0" style="shape=tableRow;startSize=0;fillColor=none;" vertex="1" parent="table_plantIsOperating">
        <mxGeometry y="0" width="200" height="30" as="geometry"/>
      </mxCell>
      <mxCell id="c1" value="&lt;b&gt;plantIsOperating : Boolean&lt;/b&gt;" style="html=1;verticalAlign=middle;whiteSpace=wrap;overflow=visible;align=center;fillColor=#ADD8E6;strokeColor=none" vertex="1" parent="r0">
        <mxGeometry width="200" height="30" as="geometry"/>
      </mxCell>
      <mxCell id="table_env" style="shape=table;container=1;recursiveResize=0;strokeColor=#000;" vertex="1" parent="1">
        <mxGeometry x="310" y="80" width="200" height="30" as="geometry"/>
      </mxCell>
      <mxCell id="r2" style="shape=tableRow;startSize=0;fillColor=none;" vertex="1" parent="table_env">
        <mxGeometry y="0" width="200" height="30" as="geometry"/>
      </mxCell>
      <mxCell id="c3" value="&lt;b&gt;env : Environment&lt;/b&gt;" style="html=1;verticalAlign=middle;whiteSpace=wrap;overflow=visible;align=center;fillColor=#ADD8E6;strokeColor=none" vertex="1" parent="r2">
        <mxGeometry width="200" height="30" as="geometry"/>
      </mxCell>
      <mxCell id="table_env" style="shape=table;container=1;recursiveResize=0;strokeColor=#000;" vertex="1" parent="1">
        <mxGeometry x="560" y="80" width="200" height="30" as="geometry"/>
      </mxCell>
      <mxCell id="r4" style="shape=tableRow;startSize=0;fillColor=none;" vertex="1" parent="table_env">
        <mxGeometry y="0" width="200" height="30" as="geometry"/>
      </mxCell>
      <mxCell id="c5" value="&lt;b&gt;env : Environment&lt;/b&gt;" style="html=1;verticalAlign=middle;whiteSpace=wrap;overflow=visible;align=center;fillColor=#ADD8E6;strokeColor=none" vertex="1" parent="r4">
        <mxGeometry width="200" height="30" as="geometry"/>
      </mxCell>
      <mxCell id="table_sri" style="shape=table;container=1;recursiveResize=0;strokeColor=#000;" vertex="1" parent="1">
        <mxGeometry x="810" y="80" width="200" height="30" as="geometry"/>
      </mxCell>
      <mxCell id="r6" style="shape=tableRow;startSize=0;fillColor=none;" vertex="1" parent="table_sri">
        <mxGeometry y="0" width="200" height="30" as="geometry"/>
      </mxCell>
      <mxCell id="c7" value="&lt;b&gt;sri : Cooling_system&lt;/b&gt;" style="html=1;verticalAlign=middle;whiteSpace=wrap;overflow=visible;align=center;fillColor=#ADD8E6;strokeColor=none" vertex="1" parent="r6">
        <mxGeometry width="200" height="30" as="geometry"/>
      </mxCell>
      <mxCell id="table_powerMax" style="shape=table;container=1;recursiveResize=0;strokeColor=#000;" vertex="1" parent="1">
        <mxGeometry x="1060" y="80" width="200" height="30" as="geometry"/>
      </mxCell>
      <mxCell id="r8" style="shape=tableRow;startSize=0;fillColor=none;" vertex="1" parent="table_powerMax">
        <mxGeometry y="0" width="200" height="30" as="geometry"/>
      </mxCell>
      <mxCell id="c9" value="&lt;b&gt;powerMax : Real&lt;/b&gt;" style="html=1;verticalAlign=middle;whiteSpace=wrap;overflow=visible;align=center;fillColor=#ADD8E6;strokeColor=none" vertex="1" parent="r8">
        <mxGeometry width="200" height="30" as="geometry"/>
      </mxCell>
      <mxCell id="table_tMax" style="shape=table;container=1;recursiveResize=0;strokeColor=#000;" vertex="1" parent="1">
        <mxGeometry x="1310" y="80" width="200" height="30" as="geometry"/>
      </mxCell>
      <mxCell id="r10" style="shape=tableRow;startSize=0;fillColor=none;" vertex="1" parent="table_tMax">
        <mxGeometry y="0" width="200" height="30" as="geometry"/>
      </mxCell>
      <mxCell id="c11" value="&lt;b&gt;tMax : Real&lt;/b&gt;" style="html=1;verticalAlign=middle;whiteSpace=wrap;overflow=visible;align=center;fillColor=#ADD8E6;strokeColor=none" vertex="1" parent="r10">
        <mxGeometry width="200" height="30" as="geometry"/>
      </mxCell>
      <mxCell id="table_tRWMin" style="shape=table;container=1;recursiveResize=0;strokeColor=#000;" vertex="1" parent="1">
        <mxGeometry x="1560" y="80" width="200" height="30" as="geometry"/>
      </mxCell>
      <mxCell id="r12" style="shape=tableRow;startSize=0;fillColor=none;" vertex="1" parent="table_tRWMin">
        <mxGeometry y="0" width="200" height="30" as="geometry"/>
      </mxCell>
      <mxCell id="c13" value="&lt;b&gt;tRWMin : Real&lt;/b&gt;" style="html=1;verticalAlign=middle;whiteSpace=wrap;overflow=visible;align=center;fillColor=#ADD8E6;strokeColor=none" vertex="1" parent="r12">
        <mxGeometry width="200" height="30" as="geometry"/>
      </mxCell>
      <mxCell id="table_flowMax" style="shape=table;container=1;recursiveResize=0;strokeColor=#000;" vertex="1" parent="1">
        <mxGeometry x="1810" y="80" width="200" height="30" as="geometry"/>
      </mxCell>
      <mxCell id="r14" style="shape=tableRow;startSize=0;fillColor=none;" vertex="1" parent="table_flowMax">
        <mxGeometry y="0" width="200" height="30" as="geometry"/>
      </mxCell>
      <mxCell id="c15" value="&lt;b&gt;flowMax : Real&lt;/b&gt;" style="html=1;verticalAlign=middle;whiteSpace=wrap;overflow=visible;align=center;fillColor=#ADD8E6;strokeColor=none" vertex="1" parent="r14">
        <mxGeometry width="200" height="30" as="geometry"/>
      </mxCell>
      <mxCell id="table_tdelay" style="shape=table;container=1;recursiveResize=0;strokeColor=#000;" vertex="1" parent="1">
        <mxGeometry x="2060" y="80" width="200" height="30" as="geometry"/>
      </mxCell>
      <mxCell id="r16" style="shape=tableRow;startSize=0;fillColor=none;" vertex="1" parent="table_tdelay">
        <mxGeometry y="0" width="200" height="30" as="geometry"/>
      </mxCell>
      <mxCell id="c17" value="&lt;b&gt;tdelay : Real&lt;/b&gt;" style="html=1;verticalAlign=middle;whiteSpace=wrap;overflow=visible;align=center;fillColor=#ADD8E6;strokeColor=none" vertex="1" parent="r16">
        <mxGeometry width="200" height="30" as="geometry"/>
      </mxCell>
      <mxCell id="table_open" style="shape=table;container=1;recursiveResize=0;strokeColor=#000;" vertex="1" parent="1">
        <mxGeometry x="2310" y="80" width="200" height="30" as="geometry"/>
      </mxCell>
      <mxCell id="r18" style="shape=tableRow;startSize=0;fillColor=none;" vertex="1" parent="table_open">
        <mxGeometry y="0" width="200" height="30" as="geometry"/>
      </mxCell>
      <mxCell id="c19" value="&lt;b&gt;open : Boolean&lt;/b&gt;" style="html=1;verticalAlign=middle;whiteSpace=wrap;overflow=visible;align=center;fillColor=#ADD8E6;strokeColor=none" vertex="1" parent="r18">
        <mxGeometry width="200" height="30" as="geometry"/>
      </mxCell>
      <mxCell id="table_temp" style="shape=table;container=1;recursiveResize=0;strokeColor=#000;" vertex="1" parent="1">
        <mxGeometry x="2560" y="80" width="200" height="30" as="geometry"/>
      </mxCell>
      <mxCell id="r20" style="shape=tableRow;startSize=0;fillColor=none;" vertex="1" parent="table_temp">
        <mxGeometry y="0" width="200" height="30" as="geometry"/>
      </mxCell>
      <mxCell id="c21" value="&lt;b&gt;temp : Real&lt;/b&gt;" style="html=1;verticalAlign=middle;whiteSpace=wrap;overflow=visible;align=center;fillColor=#ADD8E6;strokeColor=none" vertex="1" parent="r20">
        <mxGeometry width="200" height="30" as="geometry"/>
      </mxCell>
      <mxCell id="table_water_flow" style="shape=table;container=1;recursiveResize=0;strokeColor=#000;" vertex="1" parent="1">
        <mxGeometry x="2810" y="80" width="200" height="30" as="geometry"/>
      </mxCell>
      <mxCell id="r22" style="shape=tableRow;startSize=0;fillColor=none;" vertex="1" parent="table_water_flow">
        <mxGeometry y="0" width="200" height="30" as="geometry"/>
      </mxCell>
      <mxCell id="c23" value="&lt;b&gt;water_flow : Real&lt;/b&gt;" style="html=1;verticalAlign=middle;whiteSpace=wrap;overflow=visible;align=center;fillColor=#ADD8E6;strokeColor=none" vertex="1" parent="r22">
        <mxGeometry width="200" height="30" as="geometry"/>
      </mxCell>
      <mxCell id="table_served_system_1" style="shape=table;container=1;recursiveResize=0;strokeColor=#000;" vertex="1" parent="1">
        <mxGeometry x="3060" y="80" width="200" height="70" as="geometry"/>
      </mxCell>
      <mxCell id="r24" style="shape=tableRow;startSize=0;fillColor=none;" vertex="1" parent="table_served_system_1">
        <mxGeometry y="0" width="200" height="30" as="geometry"/>
      </mxCell>
      <mxCell id="c25" value="&lt;b&gt;served_system_1 : Boolean&lt;/b&gt;" style="html=1;verticalAlign=middle;whiteSpace=wrap;overflow=visible;align=center;fillColor=#ADD8E6;strokeColor=none" vertex="1" parent="r24">
        <mxGeometry width="200" height="30" as="geometry"/>
      </mxCell>
      <mxCell id="r26" style="shape=tableRow;startSize=0;fillColor=none;" vertex="1" parent="table_served_system_1">
        <mxGeometry y="30" width="200" height="40" as="geometry"/>
      </mxCell>
      <mxCell id="c27" value="value = " style="html=1;verticalAlign=middle;whiteSpace=wrap;overflow=visible;align=left" vertex="1" parent="r26">
        <mxGeometry width="200" height="40" as="geometry"/>
      </mxCell>
      <mxCell id="table_env" style="shape=table;container=1;recursiveResize=0;strokeColor=#000;" vertex="1" parent="1">
        <mxGeometry x="60" y="230" width="200" height="30" as="geometry"/>
      </mxCell>
      <mxCell id="r28" style="shape=tableRow;startSize=0;fillColor=none;" vertex="1" parent="table_env">
        <mxGeometry y="0" width="200" height="30" as="geometry"/>
      </mxCell>
      <mxCell id="c29" value="&lt;b&gt;env : during&lt;/b&gt;" style="html=1;verticalAlign=middle;whiteSpace=wrap;overflow=visible;align=center;fillColor=#ADD8E6;strokeColor=none" vertex="1" parent="r28">
        <mxGeometry width="200" height="30" as="geometry"/>
      </mxCell>
      <mxCell id="table_ensure" style="shape=table;container=1;recursiveResize=0;strokeColor=#000;" vertex="1" parent="1">
        <mxGeometry x="310" y="230" width="200" height="30" as="geometry"/>
      </mxCell>
      <mxCell id="r30" style="shape=tableRow;startSize=0;fillColor=none;" vertex="1" parent="table_ensure">
        <mxGeometry y="0" width="200" height="30" as="geometry"/>
      </mxCell>
      <mxCell id="c31" value="&lt;b&gt;ensure : plantIsOperating&lt;/b&gt;" style="html=1;verticalAlign=middle;whiteSpace=wrap;overflow=visible;align=center;fillColor=#ADD8E6;strokeColor=none" vertex="1" parent="r30">
        <mxGeometry width="200" height="30" as="geometry"/>
      </mxCell>
      <mxCell id="table_served_system_2" style="shape=table;container=1;recursiveResize=0;strokeColor=#000;" vertex="1" parent="1">
        <mxGeometry x="560" y="230" width="200" height="70" as="geometry"/>
      </mxCell>
      <mxCell id="r32" style="shape=tableRow;startSize=0;fillColor=none;" vertex="1" parent="table_served_system_2">
        <mxGeometry y="0" width="200" height="30" as="geometry"/>
      </mxCell>
      <mxCell id="c33" value="&lt;b&gt;served_system_2 : Boolean&lt;/b&gt;" style="html=1;verticalAlign=middle;whiteSpace=wrap;overflow=visible;align=center;fillColor=#ADD8E6;strokeColor=none" vertex="1" parent="r32">
        <mxGeometry width="200" height="30" as="geometry"/>
      </mxCell>
      <mxCell id="r34" style="shape=tableRow;startSize=0;fillColor=none;" vertex="1" parent="table_served_system_2">
        <mxGeometry y="30" width="200" height="40" as="geometry"/>
      </mxCell>
      <mxCell id="c35" value="value = " style="html=1;verticalAlign=middle;whiteSpace=wrap;overflow=visible;align=left" vertex="1" parent="r34">
        <mxGeometry width="200" height="40" as="geometry"/>
      </mxCell>
      <mxCell id="table_env" style="shape=table;container=1;recursiveResize=0;strokeColor=#000;" vertex="1" parent="1">
        <mxGeometry x="810" y="230" width="200" height="30" as="geometry"/>
      </mxCell>
      <mxCell id="r36" style="shape=tableRow;startSize=0;fillColor=none;" vertex="1" parent="table_env">
        <mxGeometry y="0" width="200" height="30" as="geometry"/>
      </mxCell>
      <mxCell id="c37" value="&lt;b&gt;env : during&lt;/b&gt;" style="html=1;verticalAlign=middle;whiteSpace=wrap;overflow=visible;align=center;fillColor=#ADD8E6;strokeColor=none" vertex="1" parent="r36">
        <mxGeometry width="200" height="30" as="geometry"/>
      </mxCell>
      <mxCell id="table_ensure" style="shape=table;container=1;recursiveResize=0;strokeColor=#000;" vertex="1" parent="1">
        <mxGeometry x="1060" y="230" width="200" height="30" as="geometry"/>
      </mxCell>
      <mxCell id="r38" style="shape=tableRow;startSize=0;fillColor=none;" vertex="1" parent="table_ensure">
        <mxGeometry y="0" width="200" height="30" as="geometry"/>
      </mxCell>
      <mxCell id="c39" value="&lt;b&gt;ensure : plantIsOperating&lt;/b&gt;" style="html=1;verticalAlign=middle;whiteSpace=wrap;overflow=visible;align=center;fillColor=#ADD8E6;strokeColor=none" vertex="1" parent="r38">
        <mxGeometry width="200" height="30" as="geometry"/>
      </mxCell>
      <mxCell id="table_<=tMax" style="shape=table;container=1;recursiveResize=0;strokeColor=#000;" vertex="1" parent="1">
        <mxGeometry x="1310" y="230" width="200" height="30" as="geometry"/>
      </mxCell>
      <mxCell id="r40" style="shape=tableRow;startSize=0;fillColor=none;" vertex="1" parent="table_<=tMax">
        <mxGeometry y="0" width="200" height="30" as="geometry"/>
      </mxCell>
      <mxCell id="c41" value="&lt;b&gt;&lt;=tMax : temp&lt;/b&gt;" style="html=1;verticalAlign=middle;whiteSpace=wrap;overflow=visible;align=center;fillColor=#ADD8E6;strokeColor=none" vertex="1" parent="r40">
        <mxGeometry width="200" height="30" as="geometry"/>
      </mxCell>
      <mxCell id="table_served_system_3" style="shape=table;container=1;recursiveResize=0;strokeColor=#000;" vertex="1" parent="1">
        <mxGeometry x="1560" y="230" width="200" height="70" as="geometry"/>
      </mxCell>
      <mxCell id="r42" style="shape=tableRow;startSize=0;fillColor=none;" vertex="1" parent="table_served_system_3">
        <mxGeometry y="0" width="200" height="30" as="geometry"/>
      </mxCell>
      <mxCell id="c43" value="&lt;b&gt;served_system_3 : Boolean&lt;/b&gt;" style="html=1;verticalAlign=middle;whiteSpace=wrap;overflow=visible;align=center;fillColor=#ADD8E6;strokeColor=none" vertex="1" parent="r42">
        <mxGeometry width="200" height="30" as="geometry"/>
      </mxCell>
      <mxCell id="r44" style="shape=tableRow;startSize=0;fillColor=none;" vertex="1" parent="table_served_system_3">
        <mxGeometry y="30" width="200" height="40" as="geometry"/>
      </mxCell>
      <mxCell id="c45" value="value = " style="html=1;verticalAlign=middle;whiteSpace=wrap;overflow=visible;align=left" vertex="1" parent="r44">
        <mxGeometry width="200" height="40" as="geometry"/>
      </mxCell>
      <mxCell id="table_env" style="shape=table;container=1;recursiveResize=0;strokeColor=#000;" vertex="1" parent="1">
        <mxGeometry x="1810" y="230" width="200" height="30" as="geometry"/>
      </mxCell>
      <mxCell id="r46" style="shape=tableRow;startSize=0;fillColor=none;" vertex="1" parent="table_env">
        <mxGeometry y="0" width="200" height="30" as="geometry"/>
      </mxCell>
      <mxCell id="c47" value="&lt;b&gt;env : during&lt;/b&gt;" style="html=1;verticalAlign=middle;whiteSpace=wrap;overflow=visible;align=center;fillColor=#ADD8E6;strokeColor=none" vertex="1" parent="r46">
        <mxGeometry width="200" height="30" as="geometry"/>
      </mxCell>
      <mxCell id="table_ensure" style="shape=table;container=1;recursiveResize=0;strokeColor=#000;" vertex="1" parent="1">
        <mxGeometry x="2060" y="230" width="200" height="30" as="geometry"/>
      </mxCell>
      <mxCell id="r48" style="shape=tableRow;startSize=0;fillColor=none;" vertex="1" parent="table_ensure">
        <mxGeometry y="0" width="200" height="30" as="geometry"/>
      </mxCell>
      <mxCell id="c49" value="&lt;b&gt;ensure : plantIsOperating&lt;/b&gt;" style="html=1;verticalAlign=middle;whiteSpace=wrap;overflow=visible;align=center;fillColor=#ADD8E6;strokeColor=none" vertex="1" parent="r48">
        <mxGeometry width="200" height="30" as="geometry"/>
      </mxCell>
      <mxCell id="table_>0" style="shape=table;container=1;recursiveResize=0;strokeColor=#000;" vertex="1" parent="1">
        <mxGeometry x="2310" y="230" width="200" height="30" as="geometry"/>
      </mxCell>
      <mxCell id="r50" style="shape=tableRow;startSize=0;fillColor=none;" vertex="1" parent="table_>0">
        <mxGeometry y="0" width="200" height="30" as="geometry"/>
      </mxCell>
      <mxCell id="c51" value="&lt;b&gt;&gt;0 : flowMax&lt;/b&gt;" style="html=1;verticalAlign=middle;whiteSpace=wrap;overflow=visible;align=center;fillColor=#ADD8E6;strokeColor=none" vertex="1" parent="r50">
        <mxGeometry width="200" height="30" as="geometry"/>
      </mxCell>
      <mxCell id="table_served_system_4" style="shape=table;container=1;recursiveResize=0;strokeColor=#000;" vertex="1" parent="1">
        <mxGeometry x="2560" y="230" width="200" height="70" as="geometry"/>
      </mxCell>
      <mxCell id="r52" style="shape=tableRow;startSize=0;fillColor=none;" vertex="1" parent="table_served_system_4">
        <mxGeometry y="0" width="200" height="30" as="geometry"/>
      </mxCell>
      <mxCell id="c53" value="&lt;b&gt;served_system_4 : Boolean&lt;/b&gt;" style="html=1;verticalAlign=middle;whiteSpace=wrap;overflow=visible;align=center;fillColor=#ADD8E6;strokeColor=none" vertex="1" parent="r52">
        <mxGeometry width="200" height="30" as="geometry"/>
      </mxCell>
      <mxCell id="r54" style="shape=tableRow;startSize=0;fillColor=none;" vertex="1" parent="table_served_system_4">
        <mxGeometry y="30" width="200" height="40" as="geometry"/>
      </mxCell>
      <mxCell id="c55" value="value = " style="html=1;verticalAlign=middle;whiteSpace=wrap;overflow=visible;align=left" vertex="1" parent="r54">
        <mxGeometry width="200" height="40" as="geometry"/>
      </mxCell>
      <mxCell id="table_env" style="shape=table;container=1;recursiveResize=0;strokeColor=#000;" vertex="1" parent="1">
        <mxGeometry x="2810" y="230" width="200" height="30" as="geometry"/>
      </mxCell>
      <mxCell id="r56" style="shape=tableRow;startSize=0;fillColor=none;" vertex="1" parent="table_env">
        <mxGeometry y="0" width="200" height="30" as="geometry"/>
      </mxCell>
      <mxCell id="c57" value="&lt;b&gt;env : during&lt;/b&gt;" style="html=1;verticalAlign=middle;whiteSpace=wrap;overflow=visible;align=center;fillColor=#ADD8E6;strokeColor=none" vertex="1" parent="r56">
        <mxGeometry width="200" height="30" as="geometry"/>
      </mxCell>
      <mxCell id="table_ensure" style="shape=table;container=1;recursiveResize=0;strokeColor=#000;" vertex="1" parent="1">
        <mxGeometry x="3060" y="230" width="200" height="30" as="geometry"/>
      </mxCell>
      <mxCell id="r58" style="shape=tableRow;startSize=0;fillColor=none;" vertex="1" parent="table_ensure">
        <mxGeometry y="0" width="200" height="30" as="geometry"/>
      </mxCell>
      <mxCell id="c59" value="&lt;b&gt;ensure : plantIsOperating&lt;/b&gt;" style="html=1;verticalAlign=middle;whiteSpace=wrap;overflow=visible;align=center;fillColor=#ADD8E6;strokeColor=none" vertex="1" parent="r58">
        <mxGeometry width="200" height="30" as="geometry"/>
      </mxCell>
      <mxCell id="table_>=0and" style="shape=table;container=1;recursiveResize=0;strokeColor=#000;" vertex="1" parent="1">
        <mxGeometry x="60" y="380" width="200" height="30" as="geometry"/>
      </mxCell>
      <mxCell id="r60" style="shape=tableRow;startSize=0;fillColor=none;" vertex="1" parent="table_>=0and">
        <mxGeometry y="0" width="200" height="30" as="geometry"/>
      </mxCell>
      <mxCell id="c61" value="&lt;b&gt;&gt;=0and : water_flow&lt;/b&gt;" style="html=1;verticalAlign=middle;whiteSpace=wrap;overflow=visible;align=center;fillColor=#ADD8E6;strokeColor=none" vertex="1" parent="r60">
        <mxGeometry width="200" height="30" as="geometry"/>
      </mxCell>
      <mxCell id="table_<=flowMax" style="shape=table;container=1;recursiveResize=0;strokeColor=#000;" vertex="1" parent="1">
        <mxGeometry x="310" y="380" width="200" height="30" as="geometry"/>
      </mxCell>
      <mxCell id="r62" style="shape=tableRow;startSize=0;fillColor=none;" vertex="1" parent="table_<=flowMax">
        <mxGeometry y="0" width="200" height="30" as="geometry"/>
      </mxCell>
      <mxCell id="c63" value="&lt;b&gt;&lt;=flowMax : water_flow&lt;/b&gt;" style="html=1;verticalAlign=middle;whiteSpace=wrap;overflow=visible;align=center;fillColor=#ADD8E6;strokeColor=none" vertex="1" parent="r62">
        <mxGeometry width="200" height="30" as="geometry"/>
      </mxCell>
      <mxCell id="table_served_system_5" style="shape=table;container=1;recursiveResize=0;strokeColor=#000;" vertex="1" parent="1">
        <mxGeometry x="560" y="380" width="200" height="70" as="geometry"/>
      </mxCell>
      <mxCell id="r64" style="shape=tableRow;startSize=0;fillColor=none;" vertex="1" parent="table_served_system_5">
        <mxGeometry y="0" width="200" height="30" as="geometry"/>
      </mxCell>
      <mxCell id="c65" value="&lt;b&gt;served_system_5 : Boolean&lt;/b&gt;" style="html=1;verticalAlign=middle;whiteSpace=wrap;overflow=visible;align=center;fillColor=#ADD8E6;strokeColor=none" vertex="1" parent="r64">
        <mxGeometry width="200" height="30" as="geometry"/>
      </mxCell>
      <mxCell id="r66" style="shape=tableRow;startSize=0;fillColor=none;" vertex="1" parent="table_served_system_5">
        <mxGeometry y="30" width="200" height="40" as="geometry"/>
      </mxCell>
      <mxCell id="c67" value="value = " style="html=1;verticalAlign=middle;whiteSpace=wrap;overflow=visible;align=left" vertex="1" parent="r66">
        <mxGeometry width="200" height="40" as="geometry"/>
      </mxCell>
      <mxCell id="table_env" style="shape=table;container=1;recursiveResize=0;strokeColor=#000;" vertex="1" parent="1">
        <mxGeometry x="810" y="380" width="200" height="30" as="geometry"/>
      </mxCell>
      <mxCell id="r68" style="shape=tableRow;startSize=0;fillColor=none;" vertex="1" parent="table_env">
        <mxGeometry y="0" width="200" height="30" as="geometry"/>
      </mxCell>
      <mxCell id="c69" value="&lt;b&gt;env : during&lt;/b&gt;" style="html=1;verticalAlign=middle;whiteSpace=wrap;overflow=visible;align=center;fillColor=#ADD8E6;strokeColor=none" vertex="1" parent="r68">
        <mxGeometry width="200" height="30" as="geometry"/>
      </mxCell>
      <mxCell id="table_ensure" style="shape=table;container=1;recursiveResize=0;strokeColor=#000;" vertex="1" parent="1">
        <mxGeometry x="1060" y="380" width="200" height="30" as="geometry"/>
      </mxCell>
      <mxCell id="r70" style="shape=tableRow;startSize=0;fillColor=none;" vertex="1" parent="table_ensure">
        <mxGeometry y="0" width="200" height="30" as="geometry"/>
      </mxCell>
      <mxCell id="c71" value="&lt;b&gt;ensure : plantIsOperating&lt;/b&gt;" style="html=1;verticalAlign=middle;whiteSpace=wrap;overflow=visible;align=center;fillColor=#ADD8E6;strokeColor=none" vertex="1" parent="r70">
        <mxGeometry width="200" height="30" as="geometry"/>
      </mxCell>
      <mxCell id="table_>=7and" style="shape=table;container=1;recursiveResize=0;strokeColor=#000;" vertex="1" parent="1">
        <mxGeometry x="1310" y="380" width="200" height="30" as="geometry"/>
      </mxCell>
      <mxCell id="r72" style="shape=tableRow;startSize=0;fillColor=none;" vertex="1" parent="table_>=7and">
        <mxGeometry y="0" width="200" height="30" as="geometry"/>
      </mxCell>
      <mxCell id="c73" value="&lt;b&gt;&gt;=7and : tRWMin&lt;/b&gt;" style="html=1;verticalAlign=middle;whiteSpace=wrap;overflow=visible;align=center;fillColor=#ADD8E6;strokeColor=none" vertex="1" parent="r72">
        <mxGeometry width="200" height="30" as="geometry"/>
      </mxCell>
      <mxCell id="table_<=15" style="shape=table;container=1;recursiveResize=0;strokeColor=#000;" vertex="1" parent="1">
        <mxGeometry x="1560" y="380" width="200" height="30" as="geometry"/>
      </mxCell>
      <mxCell id="r74" style="shape=tableRow;startSize=0;fillColor=none;" vertex="1" parent="table_<=15">
        <mxGeometry y="0" width="200" height="30" as="geometry"/>
      </mxCell>
      <mxCell id="c75" value="&lt;b&gt;&lt;=15 : tRWMin&lt;/b&gt;" style="html=1;verticalAlign=middle;whiteSpace=wrap;overflow=visible;align=center;fillColor=#ADD8E6;strokeColor=none" vertex="1" parent="r74">
        <mxGeometry width="200" height="30" as="geometry"/>
      </mxCell>
      <mxCell id="table_served_system_6" style="shape=table;container=1;recursiveResize=0;strokeColor=#000;" vertex="1" parent="1">
        <mxGeometry x="1810" y="380" width="200" height="70" as="geometry"/>
      </mxCell>
      <mxCell id="r76" style="shape=tableRow;startSize=0;fillColor=none;" vertex="1" parent="table_served_system_6">
        <mxGeometry y="0" width="200" height="30" as="geometry"/>
      </mxCell>
      <mxCell id="c77" value="&lt;b&gt;served_system_6 : Boolean&lt;/b&gt;" style="html=1;verticalAlign=middle;whiteSpace=wrap;overflow=visible;align=center;fillColor=#ADD8E6;strokeColor=none" vertex="1" parent="r76">
        <mxGeometry width="200" height="30" as="geometry"/>
      </mxCell>
      <mxCell id="r78" style="shape=tableRow;startSize=0;fillColor=none;" vertex="1" parent="table_served_system_6">
        <mxGeometry y="30" width="200" height="40" as="geometry"/>
      </mxCell>
      <mxCell id="c79" value="value = " style="html=1;verticalAlign=middle;whiteSpace=wrap;overflow=visible;align=left" vertex="1" parent="r78">
        <mxGeometry width="200" height="40" as="geometry"/>
      </mxCell>
      <mxCell id="table_env" style="shape=table;container=1;recursiveResize=0;strokeColor=#000;" vertex="1" parent="1">
        <mxGeometry x="2060" y="380" width="200" height="30" as="geometry"/>
      </mxCell>
      <mxCell id="r80" style="shape=tableRow;startSize=0;fillColor=none;" vertex="1" parent="table_env">
        <mxGeometry y="0" width="200" height="30" as="geometry"/>
      </mxCell>
      <mxCell id="c81" value="&lt;b&gt;env : during&lt;/b&gt;" style="html=1;verticalAlign=middle;whiteSpace=wrap;overflow=visible;align=center;fillColor=#ADD8E6;strokeColor=none" vertex="1" parent="r80">
        <mxGeometry width="200" height="30" as="geometry"/>
      </mxCell>
      <mxCell id="table_ensure" style="shape=table;container=1;recursiveResize=0;strokeColor=#000;" vertex="1" parent="1">
        <mxGeometry x="2310" y="380" width="200" height="30" as="geometry"/>
      </mxCell>
      <mxCell id="r82" style="shape=tableRow;startSize=0;fillColor=none;" vertex="1" parent="table_ensure">
        <mxGeometry y="0" width="200" height="30" as="geometry"/>
      </mxCell>
      <mxCell id="c83" value="&lt;b&gt;ensure : plantIsOperating&lt;/b&gt;" style="html=1;verticalAlign=middle;whiteSpace=wrap;overflow=visible;align=center;fillColor=#ADD8E6;strokeColor=none" vertex="1" parent="r82">
        <mxGeometry width="200" height="30" as="geometry"/>
      </mxCell>
      <mxCell id="table_>=0and" style="shape=table;container=1;recursiveResize=0;strokeColor=#000;" vertex="1" parent="1">
        <mxGeometry x="2560" y="380" width="200" height="30" as="geometry"/>
      </mxCell>
      <mxCell id="r84" style="shape=tableRow;startSize=0;fillColor=none;" vertex="1" parent="table_>=0and">
        <mxGeometry y="0" width="200" height="30" as="geometry"/>
      </mxCell>
      <mxCell id="c85" value="&lt;b&gt;&gt;=0and : tdelay&lt;/b&gt;" style="html=1;verticalAlign=middle;whiteSpace=wrap;overflow=visible;align=center;fillColor=#ADD8E6;strokeColor=none" vertex="1" parent="r84">
        <mxGeometry width="200" height="30" as="geometry"/>
      </mxCell>
      <mxCell id="table_<=20" style="shape=table;container=1;recursiveResize=0;strokeColor=#000;" vertex="1" parent="1">
        <mxGeometry x="2810" y="380" width="200" height="30" as="geometry"/>
      </mxCell>
      <mxCell id="r86" style="shape=tableRow;startSize=0;fillColor=none;" vertex="1" parent="table_<=20">
        <mxGeometry y="0" width="200" height="30" as="geometry"/>
      </mxCell>
      <mxCell id="c87" value="&lt;b&gt;&lt;=20 : tdelay&lt;/b&gt;" style="html=1;verticalAlign=middle;whiteSpace=wrap;overflow=visible;align=center;fillColor=#ADD8E6;strokeColor=none" vertex="1" parent="r86">
        <mxGeometry width="200" height="30" as="geometry"/>
      </mxCell>
      <mxCell id="table_cool_served_system_1" style="shape=table;container=1;recursiveResize=0;strokeColor=#000;" vertex="1" parent="1">
        <mxGeometry x="3060" y="380" width="200" height="70" as="geometry"/>
      </mxCell>
      <mxCell id="r88" style="shape=tableRow;startSize=0;fillColor=none;" vertex="1" parent="table_cool_served_system_1">
        <mxGeometry y="0" width="200" height="30" as="geometry"/>
      </mxCell>
      <mxCell id="c89" value="&lt;b&gt;cool_served_system_1 : Boolean&lt;/b&gt;" style="html=1;verticalAlign=middle;whiteSpace=wrap;overflow=visible;align=center;fillColor=#ADD8E6;strokeColor=none" vertex="1" parent="r88">
        <mxGeometry width="200" height="30" as="geometry"/>
      </mxCell>
      <mxCell id="r90" style="shape=tableRow;startSize=0;fillColor=none;" vertex="1" parent="table_cool_served_system_1">
        <mxGeometry y="30" width="200" height="40" as="geometry"/>
      </mxCell>
      <mxCell id="c91" value="value = " style="html=1;verticalAlign=middle;whiteSpace=wrap;overflow=visible;align=left" vertex="1" parent="r90">
        <mxGeometry width="200" height="40" as="geometry"/>
      </mxCell>
      <mxCell id="table_sri" style="shape=table;container=1;recursiveResize=0;strokeColor=#000;" vertex="1" parent="1">
        <mxGeometry x="60" y="530" width="200" height="30" as="geometry"/>
      </mxCell>
      <mxCell id="r92" style="shape=tableRow;startSize=0;fillColor=none;" vertex="1" parent="table_sri">
        <mxGeometry y="0" width="200" height="30" as="geometry"/>
      </mxCell>
      <mxCell id="c93" value="&lt;b&gt;sri : during&lt;/b&gt;" style="html=1;verticalAlign=middle;whiteSpace=wrap;overflow=visible;align=center;fillColor=#ADD8E6;strokeColor=none" vertex="1" parent="r92">
        <mxGeometry width="200" height="30" as="geometry"/>
      </mxCell>
      <mxCell id="table_<=" style="shape=table;container=1;recursiveResize=0;strokeColor=#000;" vertex="1" parent="1">
        <mxGeometry x="310" y="530" width="200" height="30" as="geometry"/>
      </mxCell>
      <mxCell id="r94" style="shape=tableRow;startSize=0;fillColor=none;" vertex="1" parent="table_<=">
        <mxGeometry y="0" width="200" height="30" as="geometry"/>
      </mxCell>
      <mxCell id="c95" value="&lt;b&gt;&lt;= : tRW&lt;/b&gt;" style="html=1;verticalAlign=middle;whiteSpace=wrap;overflow=visible;align=center;fillColor=#ADD8E6;strokeColor=none" vertex="1" parent="r94">
        <mxGeometry width="200" height="30" as="geometry"/>
      </mxCell>
      <mxCell id="table_notopen" style="shape=table;container=1;recursiveResize=0;strokeColor=#000;" vertex="1" parent="1">
        <mxGeometry x="560" y="530" width="200" height="30" as="geometry"/>
      </mxCell>
      <mxCell id="r96" style="shape=tableRow;startSize=0;fillColor=none;" vertex="1" parent="table_notopen">
        <mxGeometry y="0" width="200" height="30" as="geometry"/>
      </mxCell>
      <mxCell id="c97" value="&lt;b&gt;notopen : ensure&lt;/b&gt;" style="html=1;verticalAlign=middle;whiteSpace=wrap;overflow=visible;align=center;fillColor=#ADD8E6;strokeColor=none" vertex="1" parent="r96">
        <mxGeometry width="200" height="30" as="geometry"/>
      </mxCell>
      <mxCell id="table_cool_served_system_2" style="shape=table;container=1;recursiveResize=0;strokeColor=#000;" vertex="1" parent="1">
        <mxGeometry x="810" y="530" width="200" height="70" as="geometry"/>
      </mxCell>
      <mxCell id="r98" style="shape=tableRow;startSize=0;fillColor=none;" vertex="1" parent="table_cool_served_system_2">
        <mxGeometry y="0" width="200" height="30" as="geometry"/>
      </mxCell>
      <mxCell id="c99" value="&lt;b&gt;cool_served_system_2 : Boolean&lt;/b&gt;" style="html=1;verticalAlign=middle;whiteSpace=wrap;overflow=visible;align=center;fillColor=#ADD8E6;strokeColor=none" vertex="1" parent="r98">
        <mxGeometry width="200" height="30" as="geometry"/>
      </mxCell>
      <mxCell id="r100" style="shape=tableRow;startSize=0;fillColor=none;" vertex="1" parent="table_cool_served_system_2">
        <mxGeometry y="30" width="200" height="40" as="geometry"/>
      </mxCell>
      <mxCell id="c101" value="value = " style="html=1;verticalAlign=middle;whiteSpace=wrap;overflow=visible;align=left" vertex="1" parent="r100">
        <mxGeometry width="200" height="40" as="geometry"/>
      </mxCell>
      <mxCell id="table_sri" style="shape=table;container=1;recursiveResize=0;strokeColor=#000;" vertex="1" parent="1">
        <mxGeometry x="1060" y="530" width="200" height="30" as="geometry"/>
      </mxCell>
      <mxCell id="r102" style="shape=tableRow;startSize=0;fillColor=none;" vertex="1" parent="table_sri">
        <mxGeometry y="0" width="200" height="30" as="geometry"/>
      </mxCell>
      <mxCell id="c103" value="&lt;b&gt;sri : during&lt;/b&gt;" style="html=1;verticalAlign=middle;whiteSpace=wrap;overflow=visible;align=center;fillColor=#ADD8E6;strokeColor=none" vertex="1" parent="r102">
        <mxGeometry width="200" height="30" as="geometry"/>
      </mxCell>
      <mxCell id="table_>=tRWMin" style="shape=table;container=1;recursiveResize=0;strokeColor=#000;" vertex="1" parent="1">
        <mxGeometry x="1310" y="530" width="200" height="30" as="geometry"/>
      </mxCell>
      <mxCell id="r104" style="shape=tableRow;startSize=0;fillColor=none;" vertex="1" parent="table_>=tRWMin">
        <mxGeometry y="0" width="200" height="30" as="geometry"/>
      </mxCell>
      <mxCell id="c105" value="&lt;b&gt;&gt;=tRWMin : tRW&lt;/b&gt;" style="html=1;verticalAlign=middle;whiteSpace=wrap;overflow=visible;align=center;fillColor=#ADD8E6;strokeColor=none" vertex="1" parent="r104">
        <mxGeometry width="200" height="30" as="geometry"/>
      </mxCell>
      <mxCell id="table_open" style="shape=table;container=1;recursiveResize=0;strokeColor=#000;" vertex="1" parent="1">
        <mxGeometry x="1560" y="530" width="200" height="30" as="geometry"/>
      </mxCell>
      <mxCell id="r106" style="shape=tableRow;startSize=0;fillColor=none;" vertex="1" parent="table_open">
        <mxGeometry y="0" width="200" height="30" as="geometry"/>
      </mxCell>
      <mxCell id="c107" value="&lt;b&gt;open : ensure&lt;/b&gt;" style="html=1;verticalAlign=middle;whiteSpace=wrap;overflow=visible;align=center;fillColor=#ADD8E6;strokeColor=none" vertex="1" parent="r106">
        <mxGeometry width="200" height="30" as="geometry"/>
      </mxCell>
      <mxCell id="table_served_system1" style="shape=table;container=1;recursiveResize=0;strokeColor=#000;" vertex="1" parent="1">
        <mxGeometry x="1810" y="530" width="200" height="30" as="geometry"/>
      </mxCell>
      <mxCell id="r108" style="shape=tableRow;startSize=0;fillColor=none;" vertex="1" parent="table_served_system1">
        <mxGeometry y="0" width="200" height="30" as="geometry"/>
      </mxCell>
      <mxCell id="c109" value="&lt;b&gt;served_system1 : Served_system&lt;/b&gt;" style="html=1;verticalAlign=middle;whiteSpace=wrap;overflow=visible;align=center;fillColor=#ADD8E6;strokeColor=none" vertex="1" parent="r108">
        <mxGeometry width="200" height="30" as="geometry"/>
      </mxCell>
      <mxCell id="table_<missing undefined>" style="shape=table;container=1;recursiveResize=0;strokeColor=#000;" vertex="1" parent="1">
        <mxGeometry x="2060" y="530" width="200" height="30" as="geometry"/>
      </mxCell>
      <mxCell id="r110" style="shape=tableRow;startSize=0;fillColor=none;" vertex="1" parent="table_<missing undefined>">
        <mxGeometry y="0" width="200" height="30" as="geometry"/>
      </mxCell>
      <mxCell id="c111" value="&lt;b&gt;&lt;missing undefined&gt; : powerMax&lt;/b&gt;" style="html=1;verticalAlign=middle;whiteSpace=wrap;overflow=visible;align=center;fillColor=#ADD8E6;strokeColor=none" vertex="1" parent="r110">
        <mxGeometry width="200" height="30" as="geometry"/>
      </mxCell>
      <mxCell id="table_<missing undefined>" style="shape=table;container=1;recursiveResize=0;strokeColor=#000;" vertex="1" parent="1">
        <mxGeometry x="2310" y="530" width="200" height="30" as="geometry"/>
      </mxCell>
      <mxCell id="r112" style="shape=tableRow;startSize=0;fillColor=none;" vertex="1" parent="table_<missing undefined>">
        <mxGeometry y="0" width="200" height="30" as="geometry"/>
      </mxCell>
      <mxCell id="c113" value="&lt;b&gt;&lt;missing undefined&gt; : tMax&lt;/b&gt;" style="html=1;verticalAlign=middle;whiteSpace=wrap;overflow=visible;align=center;fillColor=#ADD8E6;strokeColor=none" vertex="1" parent="r112">
        <mxGeometry width="200" height="30" as="geometry"/>
      </mxCell>
      <mxCell id="table_<missing undefined>" style="shape=table;container=1;recursiveResize=0;strokeColor=#000;" vertex="1" parent="1">
        <mxGeometry x="2560" y="530" width="200" height="30" as="geometry"/>
      </mxCell>
      <mxCell id="r114" style="shape=tableRow;startSize=0;fillColor=none;" vertex="1" parent="table_<missing undefined>">
        <mxGeometry y="0" width="200" height="30" as="geometry"/>
      </mxCell>
      <mxCell id="c115" value="&lt;b&gt;&lt;missing undefined&gt; : tRWMin&lt;/b&gt;" style="html=1;verticalAlign=middle;whiteSpace=wrap;overflow=visible;align=center;fillColor=#ADD8E6;strokeColor=none" vertex="1" parent="r114">
        <mxGeometry width="200" height="30" as="geometry"/>
      </mxCell>
      <mxCell id="table_<missing undefined>" style="shape=table;container=1;recursiveResize=0;strokeColor=#000;" vertex="1" parent="1">
        <mxGeometry x="2810" y="530" width="200" height="30" as="geometry"/>
      </mxCell>
      <mxCell id="r116" style="shape=tableRow;startSize=0;fillColor=none;" vertex="1" parent="table_<missing undefined>">
        <mxGeometry y="0" width="200" height="30" as="geometry"/>
      </mxCell>
      <mxCell id="c117" value="&lt;b&gt;&lt;missing undefined&gt; : flowMax&lt;/b&gt;" style="html=1;verticalAlign=middle;whiteSpace=wrap;overflow=visible;align=center;fillColor=#ADD8E6;strokeColor=none" vertex="1" parent="r116">
        <mxGeometry width="200" height="30" as="geometry"/>
      </mxCell>
      <mxCell id="table_<missing undefined>" style="shape=table;container=1;recursiveResize=0;strokeColor=#000;" vertex="1" parent="1">
        <mxGeometry x="3060" y="530" width="200" height="30" as="geometry"/>
      </mxCell>
      <mxCell id="r118" style="shape=tableRow;startSize=0;fillColor=none;" vertex="1" parent="table_<missing undefined>">
        <mxGeometry y="0" width="200" height="30" as="geometry"/>
      </mxCell>
      <mxCell id="c119" value="&lt;b&gt;&lt;missing undefined&gt; : tdelay&lt;/b&gt;" style="html=1;verticalAlign=middle;whiteSpace=wrap;overflow=visible;align=center;fillColor=#ADD8E6;strokeColor=none" vertex="1" parent="r118">
        <mxGeometry width="200" height="30" as="geometry"/>
      </mxCell>
      <mxCell id="table_served_system2" style="shape=table;container=1;recursiveResize=0;strokeColor=#000;" vertex="1" parent="1">
        <mxGeometry x="60" y="680" width="200" height="30" as="geometry"/>
      </mxCell>
      <mxCell id="r120" style="shape=tableRow;startSize=0;fillColor=none;" vertex="1" parent="table_served_system2">
        <mxGeometry y="0" width="200" height="30" as="geometry"/>
      </mxCell>
      <mxCell id="c121" value="&lt;b&gt;served_system2 : Served_system&lt;/b&gt;" style="html=1;verticalAlign=middle;whiteSpace=wrap;overflow=visible;align=center;fillColor=#ADD8E6;strokeColor=none" vertex="1" parent="r120">
        <mxGeometry width="200" height="30" as="geometry"/>
      </mxCell>
      <mxCell id="table_<missing undefined>" style="shape=table;container=1;recursiveResize=0;strokeColor=#000;" vertex="1" parent="1">
        <mxGeometry x="310" y="680" width="200" height="30" as="geometry"/>
      </mxCell>
      <mxCell id="r122" style="shape=tableRow;startSize=0;fillColor=none;" vertex="1" parent="table_<missing undefined>">
        <mxGeometry y="0" width="200" height="30" as="geometry"/>
      </mxCell>
      <mxCell id="c123" value="&lt;b&gt;&lt;missing undefined&gt; : powerMax&lt;/b&gt;" style="html=1;verticalAlign=middle;whiteSpace=wrap;overflow=visible;align=center;fillColor=#ADD8E6;strokeColor=none" vertex="1" parent="r122">
        <mxGeometry width="200" height="30" as="geometry"/>
      </mxCell>
      <mxCell id="table_<missing undefined>" style="shape=table;container=1;recursiveResize=0;strokeColor=#000;" vertex="1" parent="1">
        <mxGeometry x="560" y="680" width="200" height="30" as="geometry"/>
      </mxCell>
      <mxCell id="r124" style="shape=tableRow;startSize=0;fillColor=none;" vertex="1" parent="table_<missing undefined>">
        <mxGeometry y="0" width="200" height="30" as="geometry"/>
      </mxCell>
      <mxCell id="c125" value="&lt;b&gt;&lt;missing undefined&gt; : tMax&lt;/b&gt;" style="html=1;verticalAlign=middle;whiteSpace=wrap;overflow=visible;align=center;fillColor=#ADD8E6;strokeColor=none" vertex="1" parent="r124">
        <mxGeometry width="200" height="30" as="geometry"/>
      </mxCell>
      <mxCell id="table_<missing undefined>" style="shape=table;container=1;recursiveResize=0;strokeColor=#000;" vertex="1" parent="1">
        <mxGeometry x="810" y="680" width="200" height="30" as="geometry"/>
      </mxCell>
      <mxCell id="r126" style="shape=tableRow;startSize=0;fillColor=none;" vertex="1" parent="table_<missing undefined>">
        <mxGeometry y="0" width="200" height="30" as="geometry"/>
      </mxCell>
      <mxCell id="c127" value="&lt;b&gt;&lt;missing undefined&gt; : tRWMin&lt;/b&gt;" style="html=1;verticalAlign=middle;whiteSpace=wrap;overflow=visible;align=center;fillColor=#ADD8E6;strokeColor=none" vertex="1" parent="r126">
        <mxGeometry width="200" height="30" as="geometry"/>
      </mxCell>
      <mxCell id="table_<missing undefined>" style="shape=table;container=1;recursiveResize=0;strokeColor=#000;" vertex="1" parent="1">
        <mxGeometry x="1060" y="680" width="200" height="30" as="geometry"/>
      </mxCell>
      <mxCell id="r128" style="shape=tableRow;startSize=0;fillColor=none;" vertex="1" parent="table_<missing undefined>">
        <mxGeometry y="0" width="200" height="30" as="geometry"/>
      </mxCell>
      <mxCell id="c129" value="&lt;b&gt;&lt;missing undefined&gt; : flowMax&lt;/b&gt;" style="html=1;verticalAlign=middle;whiteSpace=wrap;overflow=visible;align=center;fillColor=#ADD8E6;strokeColor=none" vertex="1" parent="r128">
        <mxGeometry width="200" height="30" as="geometry"/>
      </mxCell>
      <mxCell id="table_<missing undefined>" style="shape=table;container=1;recursiveResize=0;strokeColor=#000;" vertex="1" parent="1">
        <mxGeometry x="1310" y="680" width="200" height="30" as="geometry"/>
      </mxCell>
      <mxCell id="r130" style="shape=tableRow;startSize=0;fillColor=none;" vertex="1" parent="table_<missing undefined>">
        <mxGeometry y="0" width="200" height="30" as="geometry"/>
      </mxCell>
      <mxCell id="c131" value="&lt;b&gt;&lt;missing undefined&gt; : tdelay&lt;/b&gt;" style="html=1;verticalAlign=middle;whiteSpace=wrap;overflow=visible;align=center;fillColor=#ADD8E6;strokeColor=none" vertex="1" parent="r130">
        <mxGeometry width="200" height="30" as="geometry"/>
      </mxCell>
      <mxCell id="table_served_system3" style="shape=table;container=1;recursiveResize=0;strokeColor=#000;" vertex="1" parent="1">
        <mxGeometry x="1560" y="680" width="200" height="30" as="geometry"/>
      </mxCell>
      <mxCell id="r132" style="shape=tableRow;startSize=0;fillColor=none;" vertex="1" parent="table_served_system3">
        <mxGeometry y="0" width="200" height="30" as="geometry"/>
      </mxCell>
      <mxCell id="c133" value="&lt;b&gt;served_system3 : Served_system&lt;/b&gt;" style="html=1;verticalAlign=middle;whiteSpace=wrap;overflow=visible;align=center;fillColor=#ADD8E6;strokeColor=none" vertex="1" parent="r132">
        <mxGeometry width="200" height="30" as="geometry"/>
      </mxCell>
      <mxCell id="table_<missing undefined>" style="shape=table;container=1;recursiveResize=0;strokeColor=#000;" vertex="1" parent="1">
        <mxGeometry x="1810" y="680" width="200" height="30" as="geometry"/>
      </mxCell>
      <mxCell id="r134" style="shape=tableRow;startSize=0;fillColor=none;" vertex="1" parent="table_<missing undefined>">
        <mxGeometry y="0" width="200" height="30" as="geometry"/>
      </mxCell>
      <mxCell id="c135" value="&lt;b&gt;&lt;missing undefined&gt; : powerMax&lt;/b&gt;" style="html=1;verticalAlign=middle;whiteSpace=wrap;overflow=visible;align=center;fillColor=#ADD8E6;strokeColor=none" vertex="1" parent="r134">
        <mxGeometry width="200" height="30" as="geometry"/>
      </mxCell>
      <mxCell id="table_<missing undefined>" style="shape=table;container=1;recursiveResize=0;strokeColor=#000;" vertex="1" parent="1">
        <mxGeometry x="2060" y="680" width="200" height="30" as="geometry"/>
      </mxCell>
      <mxCell id="r136" style="shape=tableRow;startSize=0;fillColor=none;" vertex="1" parent="table_<missing undefined>">
        <mxGeometry y="0" width="200" height="30" as="geometry"/>
      </mxCell>
      <mxCell id="c137" value="&lt;b&gt;&lt;missing undefined&gt; : tMax&lt;/b&gt;" style="html=1;verticalAlign=middle;whiteSpace=wrap;overflow=visible;align=center;fillColor=#ADD8E6;strokeColor=none" vertex="1" parent="r136">
        <mxGeometry width="200" height="30" as="geometry"/>
      </mxCell>
      <mxCell id="table_<missing undefined>" style="shape=table;container=1;recursiveResize=0;strokeColor=#000;" vertex="1" parent="1">
        <mxGeometry x="2310" y="680" width="200" height="30" as="geometry"/>
      </mxCell>
      <mxCell id="r138" style="shape=tableRow;startSize=0;fillColor=none;" vertex="1" parent="table_<missing undefined>">
        <mxGeometry y="0" width="200" height="30" as="geometry"/>
      </mxCell>
      <mxCell id="c139" value="&lt;b&gt;&lt;missing undefined&gt; : tRWMin&lt;/b&gt;" style="html=1;verticalAlign=middle;whiteSpace=wrap;overflow=visible;align=center;fillColor=#ADD8E6;strokeColor=none" vertex="1" parent="r138">
        <mxGeometry width="200" height="30" as="geometry"/>
      </mxCell>
      <mxCell id="table_<missing undefined>" style="shape=table;container=1;recursiveResize=0;strokeColor=#000;" vertex="1" parent="1">
        <mxGeometry x="2560" y="680" width="200" height="30" as="geometry"/>
      </mxCell>
      <mxCell id="r140" style="shape=tableRow;startSize=0;fillColor=none;" vertex="1" parent="table_<missing undefined>">
        <mxGeometry y="0" width="200" height="30" as="geometry"/>
      </mxCell>
      <mxCell id="c141" value="&lt;b&gt;&lt;missing undefined&gt; : flowMax&lt;/b&gt;" style="html=1;verticalAlign=middle;whiteSpace=wrap;overflow=visible;align=center;fillColor=#ADD8E6;strokeColor=none" vertex="1" parent="r140">
        <mxGeometry width="200" height="30" as="geometry"/>
      </mxCell>
      <mxCell id="table_<missing undefined>" style="shape=table;container=1;recursiveResize=0;strokeColor=#000;" vertex="1" parent="1">
        <mxGeometry x="2810" y="680" width="200" height="30" as="geometry"/>
      </mxCell>
      <mxCell id="r142" style="shape=tableRow;startSize=0;fillColor=none;" vertex="1" parent="table_<missing undefined>">
        <mxGeometry y="0" width="200" height="30" as="geometry"/>
      </mxCell>
      <mxCell id="c143" value="&lt;b&gt;&lt;missing undefined&gt; : tdelay&lt;/b&gt;" style="html=1;verticalAlign=middle;whiteSpace=wrap;overflow=visible;align=center;fillColor=#ADD8E6;strokeColor=none" vertex="1" parent="r142">
        <mxGeometry width="200" height="30" as="geometry"/>
      </mxCell>
      <mxCell id="table_all_served_systems" style="shape=table;container=1;recursiveResize=0;strokeColor=#000;" vertex="1" parent="1">
        <mxGeometry x="3060" y="680" width="200" height="30" as="geometry"/>
      </mxCell>
      <mxCell id="r144" style="shape=tableRow;startSize=0;fillColor=none;" vertex="1" parent="table_all_served_systems">
        <mxGeometry y="0" width="200" height="30" as="geometry"/>
      </mxCell>
      <mxCell id="c145" value="&lt;b&gt;all_served_systems : Served_system{}&lt;/b&gt;" style="html=1;verticalAlign=middle;whiteSpace=wrap;overflow=visible;align=center;fillColor=#ADD8E6;strokeColor=none" vertex="1" parent="r144">
        <mxGeometry width="200" height="30" as="geometry"/>
      </mxCell>
      <mxCell id="table_all_served_systems_1" style="shape=table;container=1;recursiveResize=0;strokeColor=#000;" vertex="1" parent="1">
        <mxGeometry x="60" y="790" width="200" height="70" as="geometry"/>
      </mxCell>
      <mxCell id="r146" style="shape=tableRow;startSize=0;fillColor=none;" vertex="1" parent="table_all_served_systems_1">
        <mxGeometry y="0" width="200" height="30" as="geometry"/>
      </mxCell>
      <mxCell id="c147" value="&lt;b&gt;all_served_systems_1 : Boolean&lt;/b&gt;" style="html=1;verticalAlign=middle;whiteSpace=wrap;overflow=visible;align=center;fillColor=#ADD8E6;strokeColor=none" vertex="1" parent="r146">
        <mxGeometry width="200" height="30" as="geometry"/>
      </mxCell>
      <mxCell id="r148" style="shape=tableRow;startSize=0;fillColor=none;" vertex="1" parent="table_all_served_systems_1">
        <mxGeometry y="30" width="200" height="40" as="geometry"/>
      </mxCell>
      <mxCell id="c149" value="value = and all_served_systems.served_system_1" style="html=1;verticalAlign=middle;whiteSpace=wrap;overflow=visible;align=left" vertex="1" parent="r148">
        <mxGeometry width="200" height="40" as="geometry"/>
      </mxCell>
      <mxCell id="table_all_served_systems_2" style="shape=table;container=1;recursiveResize=0;strokeColor=#000;" vertex="1" parent="1">
        <mxGeometry x="310" y="790" width="200" height="70" as="geometry"/>
      </mxCell>
      <mxCell id="r150" style="shape=tableRow;startSize=0;fillColor=none;" vertex="1" parent="table_all_served_systems_2">
        <mxGeometry y="0" width="200" height="30" as="geometry"/>
      </mxCell>
      <mxCell id="c151" value="&lt;b&gt;all_served_systems_2 : Boolean&lt;/b&gt;" style="html=1;verticalAlign=middle;whiteSpace=wrap;overflow=visible;align=center;fillColor=#ADD8E6;strokeColor=none" vertex="1" parent="r150">
        <mxGeometry width="200" height="30" as="geometry"/>
      </mxCell>
      <mxCell id="r152" style="shape=tableRow;startSize=0;fillColor=none;" vertex="1" parent="table_all_served_systems_2">
        <mxGeometry y="30" width="200" height="40" as="geometry"/>
      </mxCell>
      <mxCell id="c153" value="value = and all_served_systems.served_system_2" style="html=1;verticalAlign=middle;whiteSpace=wrap;overflow=visible;align=left" vertex="1" parent="r152">
        <mxGeometry width="200" height="40" as="geometry"/>
      </mxCell>
      <mxCell id="table_all_served_systems_3" style="shape=table;container=1;recursiveResize=0;strokeColor=#000;" vertex="1" parent="1">
        <mxGeometry x="560" y="790" width="200" height="70" as="geometry"/>
      </mxCell>
      <mxCell id="r154" style="shape=tableRow;startSize=0;fillColor=none;" vertex="1" parent="table_all_served_systems_3">
        <mxGeometry y="0" width="200" height="30" as="geometry"/>
      </mxCell>
      <mxCell id="c155" value="&lt;b&gt;all_served_systems_3 : Boolean&lt;/b&gt;" style="html=1;verticalAlign=middle;whiteSpace=wrap;overflow=visible;align=center;fillColor=#ADD8E6;strokeColor=none" vertex="1" parent="r154">
        <mxGeometry width="200" height="30" as="geometry"/>
      </mxCell>
      <mxCell id="r156" style="shape=tableRow;startSize=0;fillColor=none;" vertex="1" parent="table_all_served_systems_3">
        <mxGeometry y="30" width="200" height="40" as="geometry"/>
      </mxCell>
      <mxCell id="c157" value="value = and all_served_systems.served_system_3" style="html=1;verticalAlign=middle;whiteSpace=wrap;overflow=visible;align=left" vertex="1" parent="r156">
        <mxGeometry width="200" height="40" as="geometry"/>
      </mxCell>
      <mxCell id="table_all_served_systems_4" style="shape=table;container=1;recursiveResize=0;strokeColor=#000;" vertex="1" parent="1">
        <mxGeometry x="810" y="790" width="200" height="70" as="geometry"/>
      </mxCell>
      <mxCell id="r158" style="shape=tableRow;startSize=0;fillColor=none;" vertex="1" parent="table_all_served_systems_4">
        <mxGeometry y="0" width="200" height="30" as="geometry"/>
      </mxCell>
      <mxCell id="c159" value="&lt;b&gt;all_served_systems_4 : Boolean&lt;/b&gt;" style="html=1;verticalAlign=middle;whiteSpace=wrap;overflow=visible;align=center;fillColor=#ADD8E6;strokeColor=none" vertex="1" parent="r158">
        <mxGeometry width="200" height="30" as="geometry"/>
      </mxCell>
      <mxCell id="r160" style="shape=tableRow;startSize=0;fillColor=none;" vertex="1" parent="table_all_served_systems_4">
        <mxGeometry y="30" width="200" height="40" as="geometry"/>
      </mxCell>
      <mxCell id="c161" value="value = and all_served_systems.served_system_4" style="html=1;verticalAlign=middle;whiteSpace=wrap;overflow=visible;align=left" vertex="1" parent="r160">
        <mxGeometry width="200" height="40" as="geometry"/>
      </mxCell>
      <mxCell id="table_all_served_systems_5" style="shape=table;container=1;recursiveResize=0;strokeColor=#000;" vertex="1" parent="1">
        <mxGeometry x="1060" y="790" width="200" height="70" as="geometry"/>
      </mxCell>
      <mxCell id="r162" style="shape=tableRow;startSize=0;fillColor=none;" vertex="1" parent="table_all_served_systems_5">
        <mxGeometry y="0" width="200" height="30" as="geometry"/>
      </mxCell>
      <mxCell id="c163" value="&lt;b&gt;all_served_systems_5 : Boolean&lt;/b&gt;" style="html=1;verticalAlign=middle;whiteSpace=wrap;overflow=visible;align=center;fillColor=#ADD8E6;strokeColor=none" vertex="1" parent="r162">
        <mxGeometry width="200" height="30" as="geometry"/>
      </mxCell>
      <mxCell id="r164" style="shape=tableRow;startSize=0;fillColor=none;" vertex="1" parent="table_all_served_systems_5">
        <mxGeometry y="30" width="200" height="40" as="geometry"/>
      </mxCell>
      <mxCell id="c165" value="value = and all_served_systems.served_system_5" style="html=1;verticalAlign=middle;whiteSpace=wrap;overflow=visible;align=left" vertex="1" parent="r164">
        <mxGeometry width="200" height="40" as="geometry"/>
      </mxCell>
      <mxCell id="table_all_served_systems_6" style="shape=table;container=1;recursiveResize=0;strokeColor=#000;" vertex="1" parent="1">
        <mxGeometry x="1310" y="790" width="200" height="70" as="geometry"/>
      </mxCell>
      <mxCell id="r166" style="shape=tableRow;startSize=0;fillColor=none;" vertex="1" parent="table_all_served_systems_6">
        <mxGeometry y="0" width="200" height="30" as="geometry"/>
      </mxCell>
      <mxCell id="c167" value="&lt;b&gt;all_served_systems_6 : Boolean&lt;/b&gt;" style="html=1;verticalAlign=middle;whiteSpace=wrap;overflow=visible;align=center;fillColor=#ADD8E6;strokeColor=none" vertex="1" parent="r166">
        <mxGeometry width="200" height="30" as="geometry"/>
      </mxCell>
      <mxCell id="r168" style="shape=tableRow;startSize=0;fillColor=none;" vertex="1" parent="table_all_served_systems_6">
        <mxGeometry y="30" width="200" height="40" as="geometry"/>
      </mxCell>
      <mxCell id="c169" value="value = and all_served_systems.served_system_6" style="html=1;verticalAlign=middle;whiteSpace=wrap;overflow=visible;align=left" vertex="1" parent="r168">
        <mxGeometry width="200" height="40" as="geometry"/>
      </mxCell>
      <mxCell id="table_all_cool_served_systems_1" style="shape=table;container=1;recursiveResize=0;strokeColor=#000;" vertex="1" parent="1">
        <mxGeometry x="1560" y="790" width="200" height="70" as="geometry"/>
      </mxCell>
      <mxCell id="r170" style="shape=tableRow;startSize=0;fillColor=none;" vertex="1" parent="table_all_cool_served_systems_1">
        <mxGeometry y="0" width="200" height="30" as="geometry"/>
      </mxCell>
      <mxCell id="c171" value="&lt;b&gt;all_cool_served_systems_1 : Boolean&lt;/b&gt;" style="html=1;verticalAlign=middle;whiteSpace=wrap;overflow=visible;align=center;fillColor=#ADD8E6;strokeColor=none" vertex="1" parent="r170">
        <mxGeometry width="200" height="30" as="geometry"/>
      </mxCell>
      <mxCell id="r172" style="shape=tableRow;startSize=0;fillColor=none;" vertex="1" parent="table_all_cool_served_systems_1">
        <mxGeometry y="30" width="200" height="40" as="geometry"/>
      </mxCell>
      <mxCell id="c173" value="value = and all_served_systems.cool_served_system_1" style="html=1;verticalAlign=middle;whiteSpace=wrap;overflow=visible;align=left" vertex="1" parent="r172">
        <mxGeometry width="200" height="40" as="geometry"/>
      </mxCell>
      <mxCell id="table_all_cool_served_systems_2" style="shape=table;container=1;recursiveResize=0;strokeColor=#000;" vertex="1" parent="1">
        <mxGeometry x="1810" y="790" width="200" height="70" as="geometry"/>
      </mxCell>
      <mxCell id="r174" style="shape=tableRow;startSize=0;fillColor=none;" vertex="1" parent="table_all_cool_served_systems_2">
        <mxGeometry y="0" width="200" height="30" as="geometry"/>
      </mxCell>
      <mxCell id="c175" value="&lt;b&gt;all_cool_served_systems_2 : Boolean&lt;/b&gt;" style="html=1;verticalAlign=middle;whiteSpace=wrap;overflow=visible;align=center;fillColor=#ADD8E6;strokeColor=none" vertex="1" parent="r174">
        <mxGeometry width="200" height="30" as="geometry"/>
      </mxCell>
      <mxCell id="r176" style="shape=tableRow;startSize=0;fillColor=none;" vertex="1" parent="table_all_cool_served_systems_2">
        <mxGeometry y="30" width="200" height="40" as="geometry"/>
      </mxCell>
      <mxCell id="c177" value="value = and all_served_systems.cool_served_system_2" style="html=1;verticalAlign=middle;whiteSpace=wrap;overflow=visible;align=left" vertex="1" parent="r176">
        <mxGeometry width="200" height="40" as="geometry"/>
      </mxCell>
      <mxCell id="table_all_served_systems_n" style="shape=table;container=1;recursiveResize=0;strokeColor=#000;" vertex="1" parent="1">
        <mxGeometry x="2060" y="790" width="200" height="30" as="geometry"/>
      </mxCell>
      <mxCell id="r178" style="shape=tableRow;startSize=0;fillColor=none;" vertex="1" parent="table_all_served_systems_n">
        <mxGeometry y="0" width="200" height="30" as="geometry"/>
      </mxCell>
      <mxCell id="c179" value="&lt;b&gt;all_served_systems_n : Boolean&lt;/b&gt;" style="html=1;verticalAlign=middle;whiteSpace=wrap;overflow=visible;align=center;fillColor=#ADD8E6;strokeColor=none" vertex="1" parent="r178">
        <mxGeometry width="200" height="30" as="geometry"/>
      </mxCell>
      <mxCell id="table_,all_served_systems_2" style="shape=table;container=1;recursiveResize=0;strokeColor=#000;" vertex="1" parent="1">
        <mxGeometry x="2310" y="790" width="200" height="30" as="geometry"/>
      </mxCell>
      <mxCell id="r180" style="shape=tableRow;startSize=0;fillColor=none;" vertex="1" parent="table_,all_served_systems_2">
        <mxGeometry y="0" width="200" height="30" as="geometry"/>
      </mxCell>
      <mxCell id="c181" value="&lt;b&gt;,all_served_systems_2 : all_served_systems_1&lt;/b&gt;" style="html=1;verticalAlign=middle;whiteSpace=wrap;overflow=visible;align=center;fillColor=#ADD8E6;strokeColor=none" vertex="1" parent="r180">
        <mxGeometry width="200" height="30" as="geometry"/>
      </mxCell>
      <mxCell id="table_,all_served_systems_4" style="shape=table;container=1;recursiveResize=0;strokeColor=#000;" vertex="1" parent="1">
        <mxGeometry x="2560" y="790" width="200" height="30" as="geometry"/>
      </mxCell>
      <mxCell id="r182" style="shape=tableRow;startSize=0;fillColor=none;" vertex="1" parent="table_,all_served_systems_4">
        <mxGeometry y="0" width="200" height="30" as="geometry"/>
      </mxCell>
      <mxCell id="c183" value="&lt;b&gt;,all_served_systems_4 : all_served_systems_3&lt;/b&gt;" style="html=1;verticalAlign=middle;whiteSpace=wrap;overflow=visible;align=center;fillColor=#ADD8E6;strokeColor=none" vertex="1" parent="r182">
        <mxGeometry width="200" height="30" as="geometry"/>
      </mxCell>
      <mxCell id="table_,all_served_systems_6" style="shape=table;container=1;recursiveResize=0;strokeColor=#000;" vertex="1" parent="1">
        <mxGeometry x="2810" y="790" width="200" height="30" as="geometry"/>
      </mxCell>
      <mxCell id="r184" style="shape=tableRow;startSize=0;fillColor=none;" vertex="1" parent="table_,all_served_systems_6">
        <mxGeometry y="0" width="200" height="30" as="geometry"/>
      </mxCell>
      <mxCell id="c185" value="&lt;b&gt;,all_served_systems_6 : all_served_systems_5&lt;/b&gt;" style="html=1;verticalAlign=middle;whiteSpace=wrap;overflow=visible;align=center;fillColor=#ADD8E6;strokeColor=none" vertex="1" parent="r184">
        <mxGeometry width="200" height="30" as="geometry"/>
      </mxCell>
      <mxCell id="table_,all_cool_served_systems_2" style="shape=table;container=1;recursiveResize=0;strokeColor=#000;" vertex="1" parent="1">
        <mxGeometry x="3060" y="790" width="200" height="30" as="geometry"/>
      </mxCell>
      <mxCell id="r186" style="shape=tableRow;startSize=0;fillColor=none;" vertex="1" parent="table_,all_cool_served_systems_2">
        <mxGeometry y="0" width="200" height="30" as="geometry"/>
      </mxCell>
      <mxCell id="c187" value="&lt;b&gt;,all_cool_served_systems_2 : all_cool_served_systems_1&lt;/b&gt;" style="html=1;verticalAlign=middle;whiteSpace=wrap;overflow=visible;align=center;fillColor=#ADD8E6;strokeColor=none" vertex="1" parent="r186">
        <mxGeometry width="200" height="30" as="geometry"/>
      </mxCell>
      <mxCell id="table_ePlantStartUp" style="shape=table;container=1;recursiveResize=0;strokeColor=#000;" vertex="1" parent="1">
        <mxGeometry x="60" y="940" width="200" height="30" as="geometry"/>
      </mxCell>
      <mxCell id="r188" style="shape=tableRow;startSize=0;fillColor=none;" vertex="1" parent="table_ePlantStartUp">
        <mxGeometry y="0" width="200" height="30" as="geometry"/>
      </mxCell>
      <mxCell id="c189" value="&lt;b&gt;ePlantStartUp : Boolean&lt;/b&gt;" style="html=1;verticalAlign=middle;whiteSpace=wrap;overflow=visible;align=center;fillColor=#ADD8E6;strokeColor=none" vertex="1" parent="r188">
        <mxGeometry width="200" height="30" as="geometry"/>
      </mxCell>
      <mxCell id="table_ePlantShutDown" style="shape=table;container=1;recursiveResize=0;strokeColor=#000;" vertex="1" parent="1">
        <mxGeometry x="310" y="940" width="200" height="30" as="geometry"/>
      </mxCell>
      <mxCell id="r190" style="shape=tableRow;startSize=0;fillColor=none;" vertex="1" parent="table_ePlantShutDown">
        <mxGeometry y="0" width="200" height="30" as="geometry"/>
      </mxCell>
      <mxCell id="c191" value="&lt;b&gt;ePlantShutDown : Boolean&lt;/b&gt;" style="html=1;verticalAlign=middle;whiteSpace=wrap;overflow=visible;align=center;fillColor=#ADD8E6;strokeColor=none" vertex="1" parent="r190">
        <mxGeometry width="200" height="30" as="geometry"/>
      </mxCell>
      <mxCell id="table_op" style="shape=table;container=1;recursiveResize=0;strokeColor=#000;" vertex="1" parent="1">
        <mxGeometry x="560" y="940" width="200" height="30" as="geometry"/>
      </mxCell>
      <mxCell id="r192" style="shape=tableRow;startSize=0;fillColor=none;" vertex="1" parent="table_op">
        <mxGeometry y="0" width="200" height="30" as="geometry"/>
      </mxCell>
      <mxCell id="c193" value="&lt;b&gt;op : Op&lt;/b&gt;" style="html=1;verticalAlign=middle;whiteSpace=wrap;overflow=visible;align=center;fillColor=#ADD8E6;strokeColor=none" vertex="1" parent="r192">
        <mxGeometry width="200" height="30" as="geometry"/>
      </mxCell>
      <mxCell id="table_tCWMax" style="shape=table;container=1;recursiveResize=0;strokeColor=#000;" vertex="1" parent="1">
        <mxGeometry x="810" y="940" width="200" height="30" as="geometry"/>
      </mxCell>
      <mxCell id="r194" style="shape=tableRow;startSize=0;fillColor=none;" vertex="1" parent="table_tCWMax">
        <mxGeometry y="0" width="200" height="30" as="geometry"/>
      </mxCell>
      <mxCell id="c195" value="&lt;b&gt;tCWMax : Real&lt;/b&gt;" style="html=1;verticalAlign=middle;whiteSpace=wrap;overflow=visible;align=center;fillColor=#ADD8E6;strokeColor=none" vertex="1" parent="r194">
        <mxGeometry width="200" height="30" as="geometry"/>
      </mxCell>
      <mxCell id="table_deltaTMax" style="shape=table;container=1;recursiveResize=0;strokeColor=#000;" vertex="1" parent="1">
        <mxGeometry x="1060" y="940" width="200" height="30" as="geometry"/>
      </mxCell>
      <mxCell id="r196" style="shape=tableRow;startSize=0;fillColor=none;" vertex="1" parent="table_deltaTMax">
        <mxGeometry y="0" width="200" height="30" as="geometry"/>
      </mxCell>
      <mxCell id="c197" value="&lt;b&gt;deltaTMax : Real&lt;/b&gt;" style="html=1;verticalAlign=middle;whiteSpace=wrap;overflow=visible;align=center;fillColor=#ADD8E6;strokeColor=none" vertex="1" parent="r196">
        <mxGeometry width="200" height="30" as="geometry"/>
      </mxCell>
      <mxCell id="table_tCW" style="shape=table;container=1;recursiveResize=0;strokeColor=#000;" vertex="1" parent="1">
        <mxGeometry x="1310" y="940" width="200" height="30" as="geometry"/>
      </mxCell>
      <mxCell id="r198" style="shape=tableRow;startSize=0;fillColor=none;" vertex="1" parent="table_tCW">
        <mxGeometry y="0" width="200" height="30" as="geometry"/>
      </mxCell>
      <mxCell id="c199" value="&lt;b&gt;tCW : Real&lt;/b&gt;" style="html=1;verticalAlign=middle;whiteSpace=wrap;overflow=visible;align=center;fillColor=#ADD8E6;strokeColor=none" vertex="1" parent="r198">
        <mxGeometry width="200" height="30" as="geometry"/>
      </mxCell>
      <mxCell id="table_pCW" style="shape=table;container=1;recursiveResize=0;strokeColor=#000;" vertex="1" parent="1">
        <mxGeometry x="1560" y="940" width="200" height="30" as="geometry"/>
      </mxCell>
      <mxCell id="r200" style="shape=tableRow;startSize=0;fillColor=none;" vertex="1" parent="table_pCW">
        <mxGeometry y="0" width="200" height="30" as="geometry"/>
      </mxCell>
      <mxCell id="c201" value="&lt;b&gt;pCW : Real&lt;/b&gt;" style="html=1;verticalAlign=middle;whiteSpace=wrap;overflow=visible;align=center;fillColor=#ADD8E6;strokeColor=none" vertex="1" parent="r200">
        <mxGeometry width="200" height="30" as="geometry"/>
      </mxCell>
      <mxCell id="table_sen" style="shape=table;container=1;recursiveResize=0;strokeColor=#000;" vertex="1" parent="1">
        <mxGeometry x="1810" y="940" width="200" height="30" as="geometry"/>
      </mxCell>
      <mxCell id="r202" style="shape=tableRow;startSize=0;fillColor=none;" vertex="1" parent="table_sen">
        <mxGeometry y="0" width="200" height="30" as="geometry"/>
      </mxCell>
      <mxCell id="c203" value="&lt;b&gt;sen : ColdSource&lt;/b&gt;" style="html=1;verticalAlign=middle;whiteSpace=wrap;overflow=visible;align=center;fillColor=#ADD8E6;strokeColor=none" vertex="1" parent="r202">
        <mxGeometry width="200" height="30" as="geometry"/>
      </mxCell>
      <mxCell id="table_<missing undefined>" style="shape=table;container=1;recursiveResize=0;strokeColor=#000;" vertex="1" parent="1">
        <mxGeometry x="2060" y="940" width="200" height="30" as="geometry"/>
      </mxCell>
      <mxCell id="r204" style="shape=tableRow;startSize=0;fillColor=none;" vertex="1" parent="table_<missing undefined>">
        <mxGeometry y="0" width="200" height="30" as="geometry"/>
      </mxCell>
      <mxCell id="c205" value="&lt;b&gt;&lt;missing undefined&gt; : tCWMax&lt;/b&gt;" style="html=1;verticalAlign=middle;whiteSpace=wrap;overflow=visible;align=center;fillColor=#ADD8E6;strokeColor=none" vertex="1" parent="r204">
        <mxGeometry width="200" height="30" as="geometry"/>
      </mxCell>
      <mxCell id="table_<missing undefined>" style="shape=table;container=1;recursiveResize=0;strokeColor=#000;" vertex="1" parent="1">
        <mxGeometry x="2310" y="940" width="200" height="30" as="geometry"/>
      </mxCell>
      <mxCell id="r206" style="shape=tableRow;startSize=0;fillColor=none;" vertex="1" parent="table_<missing undefined>">
        <mxGeometry y="0" width="200" height="30" as="geometry"/>
      </mxCell>
      <mxCell id="c207" value="&lt;b&gt;&lt;missing undefined&gt; : deltaTMax&lt;/b&gt;" style="html=1;verticalAlign=middle;whiteSpace=wrap;overflow=visible;align=center;fillColor=#ADD8E6;strokeColor=none" vertex="1" parent="r206">
        <mxGeometry width="200" height="30" as="geometry"/>
      </mxCell>
      <mxCell id="table_dWFlow" style="shape=table;container=1;recursiveResize=0;strokeColor=#000;" vertex="1" parent="1">
        <mxGeometry x="2560" y="940" width="200" height="30" as="geometry"/>
      </mxCell>
      <mxCell id="r208" style="shape=tableRow;startSize=0;fillColor=none;" vertex="1" parent="table_dWFlow">
        <mxGeometry y="0" width="200" height="30" as="geometry"/>
      </mxCell>
      <mxCell id="c209" value="&lt;b&gt;dWFlow : Real&lt;/b&gt;" style="html=1;verticalAlign=middle;whiteSpace=wrap;overflow=visible;align=center;fillColor=#ADD8E6;strokeColor=none" vertex="1" parent="r208">
        <mxGeometry width="200" height="30" as="geometry"/>
      </mxCell>
      <mxCell id="table_pDW" style="shape=table;container=1;recursiveResize=0;strokeColor=#000;" vertex="1" parent="1">
        <mxGeometry x="2810" y="940" width="200" height="30" as="geometry"/>
      </mxCell>
      <mxCell id="r210" style="shape=tableRow;startSize=0;fillColor=none;" vertex="1" parent="table_pDW">
        <mxGeometry y="0" width="200" height="30" as="geometry"/>
      </mxCell>
      <mxCell id="c211" value="&lt;b&gt;pDW : Real&lt;/b&gt;" style="html=1;verticalAlign=middle;whiteSpace=wrap;overflow=visible;align=center;fillColor=#ADD8E6;strokeColor=none" vertex="1" parent="r210">
        <mxGeometry width="200" height="30" as="geometry"/>
      </mxCell>
      <mxCell id="table_sed" style="shape=table;container=1;recursiveResize=0;strokeColor=#000;" vertex="1" parent="1">
        <mxGeometry x="3060" y="940" width="200" height="30" as="geometry"/>
      </mxCell>
      <mxCell id="r212" style="shape=tableRow;startSize=0;fillColor=none;" vertex="1" parent="table_sed">
        <mxGeometry y="0" width="200" height="30" as="geometry"/>
      </mxCell>
      <mxCell id="c213" value="&lt;b&gt;sed : DemineralisedSource&lt;/b&gt;" style="html=1;verticalAlign=middle;whiteSpace=wrap;overflow=visible;align=center;fillColor=#ADD8E6;strokeColor=none" vertex="1" parent="r212">
        <mxGeometry width="200" height="30" as="geometry"/>
      </mxCell>
      <mxCell id="table_sed" style="shape=table;container=1;recursiveResize=0;strokeColor=#000;" vertex="1" parent="1">
        <mxGeometry x="60" y="1050" width="200" height="30" as="geometry"/>
      </mxCell>
      <mxCell id="r214" style="shape=tableRow;startSize=0;fillColor=none;" vertex="1" parent="table_sed">
        <mxGeometry y="0" width="200" height="30" as="geometry"/>
      </mxCell>
      <mxCell id="c215" value="&lt;b&gt;sed : DemineralisedSource&lt;/b&gt;" style="html=1;verticalAlign=middle;whiteSpace=wrap;overflow=visible;align=center;fillColor=#ADD8E6;strokeColor=none" vertex="1" parent="r214">
        <mxGeometry width="200" height="30" as="geometry"/>
      </mxCell>
      <mxCell id="table_sen" style="shape=table;container=1;recursiveResize=0;strokeColor=#000;" vertex="1" parent="1">
        <mxGeometry x="310" y="1050" width="200" height="30" as="geometry"/>
      </mxCell>
      <mxCell id="r216" style="shape=tableRow;startSize=0;fillColor=none;" vertex="1" parent="table_sen">
        <mxGeometry y="0" width="200" height="30" as="geometry"/>
      </mxCell>
      <mxCell id="c217" value="&lt;b&gt;sen : ColdSource&lt;/b&gt;" style="html=1;verticalAlign=middle;whiteSpace=wrap;overflow=visible;align=center;fillColor=#ADD8E6;strokeColor=none" vertex="1" parent="r216">
        <mxGeometry width="200" height="30" as="geometry"/>
      </mxCell>
      <mxCell id="table_tWW" style="shape=table;container=1;recursiveResize=0;strokeColor=#000;" vertex="1" parent="1">
        <mxGeometry x="560" y="1050" width="200" height="30" as="geometry"/>
      </mxCell>
      <mxCell id="r218" style="shape=tableRow;startSize=0;fillColor=none;" vertex="1" parent="table_tWW">
        <mxGeometry y="0" width="200" height="30" as="geometry"/>
      </mxCell>
      <mxCell id="c219" value="&lt;b&gt;tWW : Real&lt;/b&gt;" style="html=1;verticalAlign=middle;whiteSpace=wrap;overflow=visible;align=center;fillColor=#ADD8E6;strokeColor=none" vertex="1" parent="r218">
        <mxGeometry width="200" height="30" as="geometry"/>
      </mxCell>
      <mxCell id="table_dWDemand" style="shape=table;container=1;recursiveResize=0;strokeColor=#000;" vertex="1" parent="1">
        <mxGeometry x="810" y="1050" width="200" height="30" as="geometry"/>
      </mxCell>
      <mxCell id="r220" style="shape=tableRow;startSize=0;fillColor=none;" vertex="1" parent="table_dWDemand">
        <mxGeometry y="0" width="200" height="30" as="geometry"/>
      </mxCell>
      <mxCell id="c221" value="&lt;b&gt;dWDemand : Real&lt;/b&gt;" style="html=1;verticalAlign=middle;whiteSpace=wrap;overflow=visible;align=center;fillColor=#ADD8E6;strokeColor=none" vertex="1" parent="r220">
        <mxGeometry width="200" height="30" as="geometry"/>
      </mxCell>
      <mxCell id="table_dWFlowMax" style="shape=table;container=1;recursiveResize=0;strokeColor=#000;" vertex="1" parent="1">
        <mxGeometry x="1060" y="1050" width="200" height="30" as="geometry"/>
      </mxCell>
      <mxCell id="r222" style="shape=tableRow;startSize=0;fillColor=none;" vertex="1" parent="table_dWFlowMax">
        <mxGeometry y="0" width="200" height="30" as="geometry"/>
      </mxCell>
      <mxCell id="c223" value="&lt;b&gt;dWFlowMax : Real&lt;/b&gt;" style="html=1;verticalAlign=middle;whiteSpace=wrap;overflow=visible;align=center;fillColor=#ADD8E6;strokeColor=none" vertex="1" parent="r222">
        <mxGeometry width="200" height="30" as="geometry"/>
      </mxCell>
      <mxCell id="table_state_stopped" style="shape=table;container=1;recursiveResize=0;strokeColor=#000;" vertex="1" parent="1">
        <mxGeometry x="1310" y="1050" width="200" height="30" as="geometry"/>
      </mxCell>
      <mxCell id="r224" style="shape=tableRow;startSize=0;fillColor=none;" vertex="1" parent="table_state_stopped">
        <mxGeometry y="0" width="200" height="30" as="geometry"/>
      </mxCell>
      <mxCell id="c225" value="&lt;b&gt;state_stopped : Boolean&lt;/b&gt;" style="html=1;verticalAlign=middle;whiteSpace=wrap;overflow=visible;align=center;fillColor=#ADD8E6;strokeColor=none" vertex="1" parent="r224">
        <mxGeometry width="200" height="30" as="geometry"/>
      </mxCell>
      <mxCell id="table_state_startupCold" style="shape=table;container=1;recursiveResize=0;strokeColor=#000;" vertex="1" parent="1">
        <mxGeometry x="1560" y="1050" width="200" height="30" as="geometry"/>
      </mxCell>
      <mxCell id="r226" style="shape=tableRow;startSize=0;fillColor=none;" vertex="1" parent="table_state_startupCold">
        <mxGeometry y="0" width="200" height="30" as="geometry"/>
      </mxCell>
      <mxCell id="c227" value="&lt;b&gt;state_startupCold : Boolean&lt;/b&gt;" style="html=1;verticalAlign=middle;whiteSpace=wrap;overflow=visible;align=center;fillColor=#ADD8E6;strokeColor=none" vertex="1" parent="r226">
        <mxGeometry width="200" height="30" as="geometry"/>
      </mxCell>
      <mxCell id="table_state_startupWarm" style="shape=table;container=1;recursiveResize=0;strokeColor=#000;" vertex="1" parent="1">
        <mxGeometry x="1810" y="1050" width="200" height="30" as="geometry"/>
      </mxCell>
      <mxCell id="r228" style="shape=tableRow;startSize=0;fillColor=none;" vertex="1" parent="table_state_startupWarm">
        <mxGeometry y="0" width="200" height="30" as="geometry"/>
      </mxCell>
      <mxCell id="c229" value="&lt;b&gt;state_startupWarm : Boolean&lt;/b&gt;" style="html=1;verticalAlign=middle;whiteSpace=wrap;overflow=visible;align=center;fillColor=#ADD8E6;strokeColor=none" vertex="1" parent="r228">
        <mxGeometry width="200" height="30" as="geometry"/>
      </mxCell>
      <mxCell id="table_state_normalOp" style="shape=table;container=1;recursiveResize=0;strokeColor=#000;" vertex="1" parent="1">
        <mxGeometry x="2060" y="1050" width="200" height="30" as="geometry"/>
      </mxCell>
      <mxCell id="r230" style="shape=tableRow;startSize=0;fillColor=none;" vertex="1" parent="table_state_normalOp">
        <mxGeometry y="0" width="200" height="30" as="geometry"/>
      </mxCell>
      <mxCell id="c231" value="&lt;b&gt;state_normalOp : Boolean&lt;/b&gt;" style="html=1;verticalAlign=middle;whiteSpace=wrap;overflow=visible;align=center;fillColor=#ADD8E6;strokeColor=none" vertex="1" parent="r230">
        <mxGeometry width="200" height="30" as="geometry"/>
      </mxCell>
      <mxCell id="table_state_stopping" style="shape=table;container=1;recursiveResize=0;strokeColor=#000;" vertex="1" parent="1">
        <mxGeometry x="2310" y="1050" width="200" height="30" as="geometry"/>
      </mxCell>
      <mxCell id="r232" style="shape=tableRow;startSize=0;fillColor=none;" vertex="1" parent="table_state_stopping">
        <mxGeometry y="0" width="200" height="30" as="geometry"/>
      </mxCell>
      <mxCell id="c233" value="&lt;b&gt;state_stopping : Boolean&lt;/b&gt;" style="html=1;verticalAlign=middle;whiteSpace=wrap;overflow=visible;align=center;fillColor=#ADD8E6;strokeColor=none" vertex="1" parent="r232">
        <mxGeometry width="200" height="30" as="geometry"/>
      </mxCell>
      <mxCell id="table_ready" style="shape=table;container=1;recursiveResize=0;strokeColor=#000;" vertex="1" parent="1">
        <mxGeometry x="2560" y="1050" width="200" height="30" as="geometry"/>
      </mxCell>
      <mxCell id="r234" style="shape=tableRow;startSize=0;fillColor=none;" vertex="1" parent="table_ready">
        <mxGeometry y="0" width="200" height="30" as="geometry"/>
      </mxCell>
      <mxCell id="c235" value="&lt;b&gt;ready : Boolean&lt;/b&gt;" style="html=1;verticalAlign=middle;whiteSpace=wrap;overflow=visible;align=center;fillColor=#ADD8E6;strokeColor=none" vertex="1" parent="r234">
        <mxGeometry width="200" height="30" as="geometry"/>
      </mxCell>
      <mxCell id="table_sri_1" style="shape=table;container=1;recursiveResize=0;strokeColor=#000;" vertex="1" parent="1">
        <mxGeometry x="2810" y="1050" width="200" height="70" as="geometry"/>
      </mxCell>
      <mxCell id="r236" style="shape=tableRow;startSize=0;fillColor=none;" vertex="1" parent="table_sri_1">
        <mxGeometry y="0" width="200" height="30" as="geometry"/>
      </mxCell>
      <mxCell id="c237" value="&lt;b&gt;sri_1 : Boolean&lt;/b&gt;" style="html=1;verticalAlign=middle;whiteSpace=wrap;overflow=visible;align=center;fillColor=#ADD8E6;strokeColor=none" vertex="1" parent="r236">
        <mxGeometry width="200" height="30" as="geometry"/>
      </mxCell>
      <mxCell id="r238" style="shape=tableRow;startSize=0;fillColor=none;" vertex="1" parent="table_sri_1">
        <mxGeometry y="30" width="200" height="40" as="geometry"/>
      </mxCell>
      <mxCell id="c239" value="value = " style="html=1;verticalAlign=middle;whiteSpace=wrap;overflow=visible;align=left" vertex="1" parent="r238">
        <mxGeometry width="200" height="40" as="geometry"/>
      </mxCell>
      <mxCell id="table_state_startupWarm" style="shape=table;container=1;recursiveResize=0;strokeColor=#000;" vertex="1" parent="1">
        <mxGeometry x="3060" y="1050" width="200" height="30" as="geometry"/>
      </mxCell>
      <mxCell id="r240" style="shape=tableRow;startSize=0;fillColor=none;" vertex="1" parent="table_state_startupWarm">
        <mxGeometry y="0" width="200" height="30" as="geometry"/>
      </mxCell>
      <mxCell id="c241" value="&lt;b&gt;state_startupWarm : during&lt;/b&gt;" style="html=1;verticalAlign=middle;whiteSpace=wrap;overflow=visible;align=center;fillColor=#ADD8E6;strokeColor=none" vertex="1" parent="r240">
        <mxGeometry width="200" height="30" as="geometry"/>
      </mxCell>
      <mxCell id="table_orstate_stopping" style="shape=table;container=1;recursiveResize=0;strokeColor=#000;" vertex="1" parent="1">
        <mxGeometry x="60" y="1200" width="200" height="30" as="geometry"/>
      </mxCell>
      <mxCell id="r242" style="shape=tableRow;startSize=0;fillColor=none;" vertex="1" parent="table_orstate_stopping">
        <mxGeometry y="0" width="200" height="30" as="geometry"/>
      </mxCell>
      <mxCell id="c243" value="&lt;b&gt;orstate_stopping : state_normalOp&lt;/b&gt;" style="html=1;verticalAlign=middle;whiteSpace=wrap;overflow=visible;align=center;fillColor=#ADD8E6;strokeColor=none" vertex="1" parent="r242">
        <mxGeometry width="200" height="30" as="geometry"/>
      </mxCell>
      <mxCell id="table_tRW" style="shape=table;container=1;recursiveResize=0;strokeColor=#000;" vertex="1" parent="1">
        <mxGeometry x="310" y="1200" width="200" height="30" as="geometry"/>
      </mxCell>
      <mxCell id="r244" style="shape=tableRow;startSize=0;fillColor=none;" vertex="1" parent="table_tRW">
        <mxGeometry y="0" width="200" height="30" as="geometry"/>
      </mxCell>
      <mxCell id="c245" value="&lt;b&gt;tRW : ensure&lt;/b&gt;" style="html=1;verticalAlign=middle;whiteSpace=wrap;overflow=visible;align=center;fillColor=#ADD8E6;strokeColor=none" vertex="1" parent="r244">
        <mxGeometry width="200" height="30" as="geometry"/>
      </mxCell>
      <mxCell id="table_coldW_sri_1" style="shape=table;container=1;recursiveResize=0;strokeColor=#000;" vertex="1" parent="1">
        <mxGeometry x="560" y="1200" width="200" height="70" as="geometry"/>
      </mxCell>
      <mxCell id="r246" style="shape=tableRow;startSize=0;fillColor=none;" vertex="1" parent="table_coldW_sri_1">
        <mxGeometry y="0" width="200" height="30" as="geometry"/>
      </mxCell>
      <mxCell id="c247" value="&lt;b&gt;coldW_sri_1 : Boolean&lt;/b&gt;" style="html=1;verticalAlign=middle;whiteSpace=wrap;overflow=visible;align=center;fillColor=#ADD8E6;strokeColor=none" vertex="1" parent="r246">
        <mxGeometry width="200" height="30" as="geometry"/>
      </mxCell>
      <mxCell id="r248" style="shape=tableRow;startSize=0;fillColor=none;" vertex="1" parent="table_coldW_sri_1">
        <mxGeometry y="30" width="200" height="40" as="geometry"/>
      </mxCell>
      <mxCell id="c249" value="value = during not (state_stopped or state_stopping)" style="html=1;verticalAlign=middle;whiteSpace=wrap;overflow=visible;align=left" vertex="1" parent="r248">
        <mxGeometry width="200" height="40" as="geometry"/>
      </mxCell>
      <mxCell id="table_sen" style="shape=table;container=1;recursiveResize=0;strokeColor=#000;" vertex="1" parent="1">
        <mxGeometry x="810" y="1200" width="200" height="30" as="geometry"/>
      </mxCell>
      <mxCell id="r250" style="shape=tableRow;startSize=0;fillColor=none;" vertex="1" parent="table_sen">
        <mxGeometry y="0" width="200" height="30" as="geometry"/>
      </mxCell>
      <mxCell id="c251" value="&lt;b&gt;sen : ensure&lt;/b&gt;" style="html=1;verticalAlign=middle;whiteSpace=wrap;overflow=visible;align=center;fillColor=#ADD8E6;strokeColor=none" vertex="1" parent="r250">
        <mxGeometry width="200" height="30" as="geometry"/>
      </mxCell>
      <mxCell id="table_>=0and" style="shape=table;container=1;recursiveResize=0;strokeColor=#000;" vertex="1" parent="1">
        <mxGeometry x="1060" y="1200" width="200" height="30" as="geometry"/>
      </mxCell>
      <mxCell id="r252" style="shape=tableRow;startSize=0;fillColor=none;" vertex="1" parent="table_>=0and">
        <mxGeometry y="0" width="200" height="30" as="geometry"/>
      </mxCell>
      <mxCell id="c253" value="&lt;b&gt;&gt;=0and : tCW&lt;/b&gt;" style="html=1;verticalAlign=middle;whiteSpace=wrap;overflow=visible;align=center;fillColor=#ADD8E6;strokeColor=none" vertex="1" parent="r252">
        <mxGeometry width="200" height="30" as="geometry"/>
      </mxCell>
      <mxCell id="table_.tCW" style="shape=table;container=1;recursiveResize=0;strokeColor=#000;" vertex="1" parent="1">
        <mxGeometry x="1310" y="1200" width="200" height="30" as="geometry"/>
      </mxCell>
      <mxCell id="r254" style="shape=tableRow;startSize=0;fillColor=none;" vertex="1" parent="table_.tCW">
        <mxGeometry y="0" width="200" height="30" as="geometry"/>
      </mxCell>
      <mxCell id="c255" value="&lt;b&gt;.tCW : sen&lt;/b&gt;" style="html=1;verticalAlign=middle;whiteSpace=wrap;overflow=visible;align=center;fillColor=#ADD8E6;strokeColor=none" vertex="1" parent="r254">
        <mxGeometry width="200" height="30" as="geometry"/>
      </mxCell>
      <mxCell id="table_.tCWMax" style="shape=table;container=1;recursiveResize=0;strokeColor=#000;" vertex="1" parent="1">
        <mxGeometry x="1560" y="1200" width="200" height="30" as="geometry"/>
      </mxCell>
      <mxCell id="r256" style="shape=tableRow;startSize=0;fillColor=none;" vertex="1" parent="table_.tCWMax">
        <mxGeometry y="0" width="200" height="30" as="geometry"/>
      </mxCell>
      <mxCell id="c257" value="&lt;b&gt;.tCWMax : sen&lt;/b&gt;" style="html=1;verticalAlign=middle;whiteSpace=wrap;overflow=visible;align=center;fillColor=#ADD8E6;strokeColor=none" vertex="1" parent="r256">
        <mxGeometry width="200" height="30" as="geometry"/>
      </mxCell>
      <mxCell id="table_coldW_sri_2" style="shape=table;container=1;recursiveResize=0;strokeColor=#000;" vertex="1" parent="1">
        <mxGeometry x="1810" y="1200" width="200" height="70" as="geometry"/>
      </mxCell>
      <mxCell id="r258" style="shape=tableRow;startSize=0;fillColor=none;" vertex="1" parent="table_coldW_sri_2">
        <mxGeometry y="0" width="200" height="30" as="geometry"/>
      </mxCell>
      <mxCell id="c259" value="&lt;b&gt;coldW_sri_2 : Boolean&lt;/b&gt;" style="html=1;verticalAlign=middle;whiteSpace=wrap;overflow=visible;align=center;fillColor=#ADD8E6;strokeColor=none" vertex="1" parent="r258">
        <mxGeometry width="200" height="30" as="geometry"/>
      </mxCell>
      <mxCell id="r260" style="shape=tableRow;startSize=0;fillColor=none;" vertex="1" parent="table_coldW_sri_2">
        <mxGeometry y="30" width="200" height="40" as="geometry"/>
      </mxCell>
      <mxCell id="c261" value="value = during not (state_stopped or state_stopping)" style="html=1;verticalAlign=middle;whiteSpace=wrap;overflow=visible;align=left" vertex="1" parent="r260">
        <mxGeometry width="200" height="40" as="geometry"/>
      </mxCell>
      <mxCell id="table_tWW" style="shape=table;container=1;recursiveResize=0;strokeColor=#000;" vertex="1" parent="1">
        <mxGeometry x="2060" y="1200" width="200" height="30" as="geometry"/>
      </mxCell>
      <mxCell id="r262" style="shape=tableRow;startSize=0;fillColor=none;" vertex="1" parent="table_tWW">
        <mxGeometry y="0" width="200" height="30" as="geometry"/>
      </mxCell>
      <mxCell id="c263" value="&lt;b&gt;tWW : ensure&lt;/b&gt;" style="html=1;verticalAlign=middle;whiteSpace=wrap;overflow=visible;align=center;fillColor=#ADD8E6;strokeColor=none" vertex="1" parent="r262">
        <mxGeometry width="200" height="30" as="geometry"/>
      </mxCell>
      <mxCell id="table_coldW_sri_3" style="shape=table;container=1;recursiveResize=0;strokeColor=#000;" vertex="1" parent="1">
        <mxGeometry x="2310" y="1200" width="200" height="70" as="geometry"/>
      </mxCell>
      <mxCell id="r264" style="shape=tableRow;startSize=0;fillColor=none;" vertex="1" parent="table_coldW_sri_3">
        <mxGeometry y="0" width="200" height="30" as="geometry"/>
      </mxCell>
      <mxCell id="c265" value="&lt;b&gt;coldW_sri_3 : Boolean&lt;/b&gt;" style="html=1;verticalAlign=middle;whiteSpace=wrap;overflow=visible;align=center;fillColor=#ADD8E6;strokeColor=none" vertex="1" parent="r264">
        <mxGeometry width="200" height="30" as="geometry"/>
      </mxCell>
      <mxCell id="r266" style="shape=tableRow;startSize=0;fillColor=none;" vertex="1" parent="table_coldW_sri_3">
        <mxGeometry y="30" width="200" height="40" as="geometry"/>
      </mxCell>
      <mxCell id="c267" value="value = " style="html=1;verticalAlign=middle;whiteSpace=wrap;overflow=visible;align=left" vertex="1" parent="r266">
        <mxGeometry width="200" height="40" as="geometry"/>
      </mxCell>
      <mxCell id="table_state_startupWarm" style="shape=table;container=1;recursiveResize=0;strokeColor=#000;" vertex="1" parent="1">
        <mxGeometry x="2560" y="1200" width="200" height="30" as="geometry"/>
      </mxCell>
      <mxCell id="r268" style="shape=tableRow;startSize=0;fillColor=none;" vertex="1" parent="table_state_startupWarm">
        <mxGeometry y="0" width="200" height="30" as="geometry"/>
      </mxCell>
      <mxCell id="c269" value="&lt;b&gt;state_startupWarm : during&lt;/b&gt;" style="html=1;verticalAlign=middle;whiteSpace=wrap;overflow=visible;align=center;fillColor=#ADD8E6;strokeColor=none" vertex="1" parent="r268">
        <mxGeometry width="200" height="30" as="geometry"/>
      </mxCell>
      <mxCell id="table_orstate_stopping" style="shape=table;container=1;recursiveResize=0;strokeColor=#000;" vertex="1" parent="1">
        <mxGeometry x="2810" y="1200" width="200" height="30" as="geometry"/>
      </mxCell>
      <mxCell id="r270" style="shape=tableRow;startSize=0;fillColor=none;" vertex="1" parent="table_orstate_stopping">
        <mxGeometry y="0" width="200" height="30" as="geometry"/>
      </mxCell>
      <mxCell id="c271" value="&lt;b&gt;orstate_stopping : state_normalOp&lt;/b&gt;" style="html=1;verticalAlign=middle;whiteSpace=wrap;overflow=visible;align=center;fillColor=#ADD8E6;strokeColor=none" vertex="1" parent="r270">
        <mxGeometry width="200" height="30" as="geometry"/>
      </mxCell>
      <mxCell id="table_sed" style="shape=table;container=1;recursiveResize=0;strokeColor=#000;" vertex="1" parent="1">
        <mxGeometry x="3060" y="1200" width="200" height="30" as="geometry"/>
      </mxCell>
      <mxCell id="r272" style="shape=tableRow;startSize=0;fillColor=none;" vertex="1" parent="table_sed">
        <mxGeometry y="0" width="200" height="30" as="geometry"/>
      </mxCell>
      <mxCell id="c273" value="&lt;b&gt;sed : ensure&lt;/b&gt;" style="html=1;verticalAlign=middle;whiteSpace=wrap;overflow=visible;align=center;fillColor=#ADD8E6;strokeColor=none" vertex="1" parent="r272">
        <mxGeometry width="200" height="30" as="geometry"/>
      </mxCell>
      <mxCell id="table_>" style="shape=table;container=1;recursiveResize=0;strokeColor=#000;" vertex="1" parent="1">
        <mxGeometry x="60" y="1350" width="200" height="30" as="geometry"/>
      </mxCell>
      <mxCell id="r274" style="shape=tableRow;startSize=0;fillColor=none;" vertex="1" parent="table_>">
        <mxGeometry y="0" width="200" height="30" as="geometry"/>
      </mxCell>
      <mxCell id="c275" value="&lt;b&gt;&gt; : pDW&lt;/b&gt;" style="html=1;verticalAlign=middle;whiteSpace=wrap;overflow=visible;align=center;fillColor=#ADD8E6;strokeColor=none" vertex="1" parent="r274">
        <mxGeometry width="200" height="30" as="geometry"/>
      </mxCell>
      <mxCell id="table_tolerance" style="shape=table;container=1;recursiveResize=0;strokeColor=#000;" vertex="1" parent="1">
        <mxGeometry x="310" y="1350" width="200" height="30" as="geometry"/>
      </mxCell>
      <mxCell id="r276" style="shape=tableRow;startSize=0;fillColor=none;" vertex="1" parent="table_tolerance">
        <mxGeometry y="0" width="200" height="30" as="geometry"/>
      </mxCell>
      <mxCell id="c277" value="&lt;b&gt;tolerance : Real&lt;/b&gt;" style="html=1;verticalAlign=middle;whiteSpace=wrap;overflow=visible;align=center;fillColor=#ADD8E6;strokeColor=none" vertex="1" parent="r276">
        <mxGeometry width="200" height="30" as="geometry"/>
      </mxCell>
      <mxCell id="table_deminW_sed_1" style="shape=table;container=1;recursiveResize=0;strokeColor=#000;" vertex="1" parent="1">
        <mxGeometry x="560" y="1350" width="200" height="70" as="geometry"/>
      </mxCell>
      <mxCell id="r278" style="shape=tableRow;startSize=0;fillColor=none;" vertex="1" parent="table_deminW_sed_1">
        <mxGeometry y="0" width="200" height="30" as="geometry"/>
      </mxCell>
      <mxCell id="c279" value="&lt;b&gt;deminW_sed_1 : Boolean&lt;/b&gt;" style="html=1;verticalAlign=middle;whiteSpace=wrap;overflow=visible;align=center;fillColor=#ADD8E6;strokeColor=none" vertex="1" parent="r278">
        <mxGeometry width="200" height="30" as="geometry"/>
      </mxCell>
      <mxCell id="r280" style="shape=tableRow;startSize=0;fillColor=none;" vertex="1" parent="table_deminW_sed_1">
        <mxGeometry y="30" width="200" height="40" as="geometry"/>
      </mxCell>
      <mxCell id="c281" value="value = " style="html=1;verticalAlign=middle;whiteSpace=wrap;overflow=visible;align=left" vertex="1" parent="r280">
        <mxGeometry width="200" height="40" as="geometry"/>
      </mxCell>
      <mxCell id="table_dWDemand" style="shape=table;container=1;recursiveResize=0;strokeColor=#000;" vertex="1" parent="1">
        <mxGeometry x="810" y="1350" width="200" height="30" as="geometry"/>
      </mxCell>
      <mxCell id="r282" style="shape=tableRow;startSize=0;fillColor=none;" vertex="1" parent="table_dWDemand">
        <mxGeometry y="0" width="200" height="30" as="geometry"/>
      </mxCell>
      <mxCell id="c283" value="&lt;b&gt;dWDemand : during&lt;/b&gt;" style="html=1;verticalAlign=middle;whiteSpace=wrap;overflow=visible;align=center;fillColor=#ADD8E6;strokeColor=none" vertex="1" parent="r282">
        <mxGeometry width="200" height="30" as="geometry"/>
      </mxCell>
      <mxCell id="table_ensure" style="shape=table;container=1;recursiveResize=0;strokeColor=#000;" vertex="1" parent="1">
        <mxGeometry x="1060" y="1350" width="200" height="30" as="geometry"/>
      </mxCell>
      <mxCell id="r284" style="shape=tableRow;startSize=0;fillColor=none;" vertex="1" parent="table_ensure">
        <mxGeometry y="0" width="200" height="30" as="geometry"/>
      </mxCell>
      <mxCell id="c285" value="&lt;b&gt;ensure : dWFlowMax&lt;/b&gt;" style="html=1;verticalAlign=middle;whiteSpace=wrap;overflow=visible;align=center;fillColor=#ADD8E6;strokeColor=none" vertex="1" parent="r284">
        <mxGeometry width="200" height="30" as="geometry"/>
      </mxCell>
      <mxCell id="table_.dWFlow" style="shape=table;container=1;recursiveResize=0;strokeColor=#000;" vertex="1" parent="1">
        <mxGeometry x="1310" y="1350" width="200" height="30" as="geometry"/>
      </mxCell>
      <mxCell id="r286" style="shape=tableRow;startSize=0;fillColor=none;" vertex="1" parent="table_.dWFlow">
        <mxGeometry y="0" width="200" height="30" as="geometry"/>
      </mxCell>
      <mxCell id="c287" value="&lt;b&gt;.dWFlow : sed&lt;/b&gt;" style="html=1;verticalAlign=middle;whiteSpace=wrap;overflow=visible;align=center;fillColor=#ADD8E6;strokeColor=none" vertex="1" parent="r286">
        <mxGeometry width="200" height="30" as="geometry"/>
      </mxCell>
      <mxCell id="table_.dWFlow" style="shape=table;container=1;recursiveResize=0;strokeColor=#000;" vertex="1" parent="1">
        <mxGeometry x="1560" y="1350" width="200" height="30" as="geometry"/>
      </mxCell>
      <mxCell id="r288" style="shape=tableRow;startSize=0;fillColor=none;" vertex="1" parent="table_.dWFlow">
        <mxGeometry y="0" width="200" height="30" as="geometry"/>
      </mxCell>
      <mxCell id="c289" value="&lt;b&gt;.dWFlow : sed&lt;/b&gt;" style="html=1;verticalAlign=middle;whiteSpace=wrap;overflow=visible;align=center;fillColor=#ADD8E6;strokeColor=none" vertex="1" parent="r288">
        <mxGeometry width="200" height="30" as="geometry"/>
      </mxCell>
      <mxCell id="table_deminW_sed_2" style="shape=table;container=1;recursiveResize=0;strokeColor=#000;" vertex="1" parent="1">
        <mxGeometry x="1810" y="1350" width="200" height="70" as="geometry"/>
      </mxCell>
      <mxCell id="r290" style="shape=tableRow;startSize=0;fillColor=none;" vertex="1" parent="table_deminW_sed_2">
        <mxGeometry y="0" width="200" height="30" as="geometry"/>
      </mxCell>
      <mxCell id="c291" value="&lt;b&gt;deminW_sed_2 : Boolean&lt;/b&gt;" style="html=1;verticalAlign=middle;whiteSpace=wrap;overflow=visible;align=center;fillColor=#ADD8E6;strokeColor=none" vertex="1" parent="r290">
        <mxGeometry width="200" height="30" as="geometry"/>
      </mxCell>
      <mxCell id="r292" style="shape=tableRow;startSize=0;fillColor=none;" vertex="1" parent="table_deminW_sed_2">
        <mxGeometry y="30" width="200" height="40" as="geometry"/>
      </mxCell>
      <mxCell id="c293" value="value = " style="html=1;verticalAlign=middle;whiteSpace=wrap;overflow=visible;align=left" vertex="1" parent="r292">
        <mxGeometry width="200" height="40" as="geometry"/>
      </mxCell>
      <mxCell id="table_dWDemand" style="shape=table;container=1;recursiveResize=0;strokeColor=#000;" vertex="1" parent="1">
        <mxGeometry x="2060" y="1350" width="200" height="30" as="geometry"/>
      </mxCell>
      <mxCell id="r294" style="shape=tableRow;startSize=0;fillColor=none;" vertex="1" parent="table_dWDemand">
        <mxGeometry y="0" width="200" height="30" as="geometry"/>
      </mxCell>
      <mxCell id="c295" value="&lt;b&gt;dWDemand : during&lt;/b&gt;" style="html=1;verticalAlign=middle;whiteSpace=wrap;overflow=visible;align=center;fillColor=#ADD8E6;strokeColor=none" vertex="1" parent="r294">
        <mxGeometry width="200" height="30" as="geometry"/>
      </mxCell>
      <mxCell id="table_ensure" style="shape=table;container=1;recursiveResize=0;strokeColor=#000;" vertex="1" parent="1">
        <mxGeometry x="2310" y="1350" width="200" height="30" as="geometry"/>
      </mxCell>
      <mxCell id="r296" style="shape=tableRow;startSize=0;fillColor=none;" vertex="1" parent="table_ensure">
        <mxGeometry y="0" width="200" height="30" as="geometry"/>
      </mxCell>
      <mxCell id="c297" value="&lt;b&gt;ensure : dWFlowMax&lt;/b&gt;" style="html=1;verticalAlign=middle;whiteSpace=wrap;overflow=visible;align=center;fillColor=#ADD8E6;strokeColor=none" vertex="1" parent="r296">
        <mxGeometry width="200" height="30" as="geometry"/>
      </mxCell>
      <mxCell id="table_.dWFlow" style="shape=table;container=1;recursiveResize=0;strokeColor=#000;" vertex="1" parent="1">
        <mxGeometry x="2560" y="1350" width="200" height="30" as="geometry"/>
      </mxCell>
      <mxCell id="r298" style="shape=tableRow;startSize=0;fillColor=none;" vertex="1" parent="table_.dWFlow">
        <mxGeometry y="0" width="200" height="30" as="geometry"/>
      </mxCell>
      <mxCell id="c299" value="&lt;b&gt;.dWFlow : sed&lt;/b&gt;" style="html=1;verticalAlign=middle;whiteSpace=wrap;overflow=visible;align=center;fillColor=#ADD8E6;strokeColor=none" vertex="1" parent="r298">
        <mxGeometry width="200" height="30" as="geometry"/>
      </mxCell>
      <mxCell id="table_.dWFlow" style="shape=table;container=1;recursiveResize=0;strokeColor=#000;" vertex="1" parent="1">
        <mxGeometry x="2810" y="1350" width="200" height="30" as="geometry"/>
      </mxCell>
      <mxCell id="r300" style="shape=tableRow;startSize=0;fillColor=none;" vertex="1" parent="table_.dWFlow">
        <mxGeometry y="0" width="200" height="30" as="geometry"/>
      </mxCell>
      <mxCell id="c301" value="&lt;b&gt;.dWFlow : sed&lt;/b&gt;" style="html=1;verticalAlign=middle;whiteSpace=wrap;overflow=visible;align=center;fillColor=#ADD8E6;strokeColor=none" vertex="1" parent="r300">
        <mxGeometry width="200" height="30" as="geometry"/>
      </mxCell>
      <mxCell id="table_deminW_sri_1" style="shape=table;container=1;recursiveResize=0;strokeColor=#000;" vertex="1" parent="1">
        <mxGeometry x="3060" y="1350" width="200" height="70" as="geometry"/>
      </mxCell>
      <mxCell id="r302" style="shape=tableRow;startSize=0;fillColor=none;" vertex="1" parent="table_deminW_sri_1">
        <mxGeometry y="0" width="200" height="30" as="geometry"/>
      </mxCell>
      <mxCell id="c303" value="&lt;b&gt;deminW_sri_1 : Boolean&lt;/b&gt;" style="html=1;verticalAlign=middle;whiteSpace=wrap;overflow=visible;align=center;fillColor=#ADD8E6;strokeColor=none" vertex="1" parent="r302">
        <mxGeometry width="200" height="30" as="geometry"/>
      </mxCell>
      <mxCell id="r304" style="shape=tableRow;startSize=0;fillColor=none;" vertex="1" parent="table_deminW_sri_1">
        <mxGeometry y="30" width="200" height="40" as="geometry"/>
      </mxCell>
      <mxCell id="c305" value="value = " style="html=1;verticalAlign=middle;whiteSpace=wrap;overflow=visible;align=left" vertex="1" parent="r304">
        <mxGeometry width="200" height="40" as="geometry"/>
      </mxCell>
      <mxCell id="table_state_startupWarm" style="shape=table;container=1;recursiveResize=0;strokeColor=#000;" vertex="1" parent="1">
        <mxGeometry x="60" y="1500" width="200" height="30" as="geometry"/>
      </mxCell>
      <mxCell id="r306" style="shape=tableRow;startSize=0;fillColor=none;" vertex="1" parent="table_state_startupWarm">
        <mxGeometry y="0" width="200" height="30" as="geometry"/>
      </mxCell>
      <mxCell id="c307" value="&lt;b&gt;state_startupWarm : during&lt;/b&gt;" style="html=1;verticalAlign=middle;whiteSpace=wrap;overflow=visible;align=center;fillColor=#ADD8E6;strokeColor=none" vertex="1" parent="r306">
        <mxGeometry width="200" height="30" as="geometry"/>
      </mxCell>
      <mxCell id="table_orstate_normalOp" style="shape=table;container=1;recursiveResize=0;strokeColor=#000;" vertex="1" parent="1">
        <mxGeometry x="310" y="1500" width="200" height="30" as="geometry"/>
      </mxCell>
      <mxCell id="r308" style="shape=tableRow;startSize=0;fillColor=none;" vertex="1" parent="table_orstate_normalOp">
        <mxGeometry y="0" width="200" height="30" as="geometry"/>
      </mxCell>
      <mxCell id="c309" value="&lt;b&gt;orstate_normalOp : state_startupCold&lt;/b&gt;" style="html=1;verticalAlign=middle;whiteSpace=wrap;overflow=visible;align=center;fillColor=#ADD8E6;strokeColor=none" vertex="1" parent="r308">
        <mxGeometry width="200" height="30" as="geometry"/>
      </mxCell>
      <mxCell id="table_ensure" style="shape=table;container=1;recursiveResize=0;strokeColor=#000;" vertex="1" parent="1">
        <mxGeometry x="560" y="1500" width="200" height="30" as="geometry"/>
      </mxCell>
      <mxCell id="r310" style="shape=tableRow;startSize=0;fillColor=none;" vertex="1" parent="table_ensure">
        <mxGeometry y="0" width="200" height="30" as="geometry"/>
      </mxCell>
      <mxCell id="c311" value="&lt;b&gt;ensure : state_stopping&lt;/b&gt;" style="html=1;verticalAlign=middle;whiteSpace=wrap;overflow=visible;align=center;fillColor=#ADD8E6;strokeColor=none" vertex="1" parent="r310">
        <mxGeometry width="200" height="30" as="geometry"/>
      </mxCell>
      <mxCell id="table_>=0and" style="shape=table;container=1;recursiveResize=0;strokeColor=#000;" vertex="1" parent="1">
        <mxGeometry x="810" y="1500" width="200" height="30" as="geometry"/>
      </mxCell>
      <mxCell id="r312" style="shape=tableRow;startSize=0;fillColor=none;" vertex="1" parent="table_>=0and">
        <mxGeometry y="0" width="200" height="30" as="geometry"/>
      </mxCell>
      <mxCell id="c313" value="&lt;b&gt;&gt;=0and : dWDemand&lt;/b&gt;" style="html=1;verticalAlign=middle;whiteSpace=wrap;overflow=visible;align=center;fillColor=#ADD8E6;strokeColor=none" vertex="1" parent="r312">
        <mxGeometry width="200" height="30" as="geometry"/>
      </mxCell>
      <mxCell id="table_<=dWFlowMax" style="shape=table;container=1;recursiveResize=0;strokeColor=#000;" vertex="1" parent="1">
        <mxGeometry x="1060" y="1500" width="200" height="30" as="geometry"/>
      </mxCell>
      <mxCell id="r314" style="shape=tableRow;startSize=0;fillColor=none;" vertex="1" parent="table_<=dWFlowMax">
        <mxGeometry y="0" width="200" height="30" as="geometry"/>
      </mxCell>
      <mxCell id="c315" value="&lt;b&gt;&lt;=dWFlowMax : dWDemand&lt;/b&gt;" style="html=1;verticalAlign=middle;whiteSpace=wrap;overflow=visible;align=center;fillColor=#ADD8E6;strokeColor=none" vertex="1" parent="r314">
        <mxGeometry width="200" height="30" as="geometry"/>
      </mxCell>
      <mxCell id="table_e_sri_req_state_after_startupCold" style="shape=table;container=1;recursiveResize=0;strokeColor=#000;" vertex="1" parent="1">
        <mxGeometry x="1310" y="1500" width="200" height="30" as="geometry"/>
      </mxCell>
      <mxCell id="r316" style="shape=tableRow;startSize=0;fillColor=none;" vertex="1" parent="table_e_sri_req_state_after_startupCold">
        <mxGeometry y="0" width="200" height="30" as="geometry"/>
      </mxCell>
      <mxCell id="c317" value="&lt;b&gt;e_sri_req_state_after_startupCold : Clock&lt;/b&gt;" style="html=1;verticalAlign=middle;whiteSpace=wrap;overflow=visible;align=center;fillColor=#ADD8E6;strokeColor=none" vertex="1" parent="r316">
        <mxGeometry width="200" height="30" as="geometry"/>
      </mxCell>
      <mxCell id="table_sri_startup1" style="shape=table;container=1;recursiveResize=0;strokeColor=#000;" vertex="1" parent="1">
        <mxGeometry x="1560" y="1500" width="200" height="70" as="geometry"/>
      </mxCell>
      <mxCell id="r318" style="shape=tableRow;startSize=0;fillColor=none;" vertex="1" parent="table_sri_startup1">
        <mxGeometry y="0" width="200" height="30" as="geometry"/>
      </mxCell>
      <mxCell id="c319" value="&lt;b&gt;sri_startup1 : Boolean&lt;/b&gt;" style="html=1;verticalAlign=middle;whiteSpace=wrap;overflow=visible;align=center;fillColor=#ADD8E6;strokeColor=none" vertex="1" parent="r318">
        <mxGeometry width="200" height="30" as="geometry"/>
      </mxCell>
      <mxCell id="r320" style="shape=tableRow;startSize=0;fillColor=none;" vertex="1" parent="table_sri_startup1">
        <mxGeometry y="30" width="200" height="40" as="geometry"/>
      </mxCell>
      <mxCell id="c321" value="value = " style="html=1;verticalAlign=middle;whiteSpace=wrap;overflow=visible;align=left" vertex="1" parent="r320">
        <mxGeometry width="200" height="40" as="geometry"/>
      </mxCell>
      <mxCell id="table_state_startupCold" style="shape=table;container=1;recursiveResize=0;strokeColor=#000;" vertex="1" parent="1">
        <mxGeometry x="1810" y="1500" width="200" height="30" as="geometry"/>
      </mxCell>
      <mxCell id="r322" style="shape=tableRow;startSize=0;fillColor=none;" vertex="1" parent="table_state_startupCold">
        <mxGeometry y="0" width="200" height="30" as="geometry"/>
      </mxCell>
      <mxCell id="c323" value="&lt;b&gt;state_startupCold : after&lt;/b&gt;" style="html=1;verticalAlign=middle;whiteSpace=wrap;overflow=visible;align=center;fillColor=#ADD8E6;strokeColor=none" vertex="1" parent="r322">
        <mxGeometry width="200" height="30" as="geometry"/>
      </mxCell>
      <mxCell id="table_truefor1" style="shape=table;container=1;recursiveResize=0;strokeColor=#000;" vertex="1" parent="1">
        <mxGeometry x="2060" y="1500" width="200" height="30" as="geometry"/>
      </mxCell>
      <mxCell id="r324" style="shape=tableRow;startSize=0;fillColor=none;" vertex="1" parent="table_truefor1">
        <mxGeometry y="0" width="200" height="30" as="geometry"/>
      </mxCell>
      <mxCell id="c325" value="&lt;b&gt;truefor1 : becomes&lt;/b&gt;" style="html=1;verticalAlign=middle;whiteSpace=wrap;overflow=visible;align=center;fillColor=#ADD8E6;strokeColor=none" vertex="1" parent="r324">
        <mxGeometry width="200" height="30" as="geometry"/>
      </mxCell>
      <mxCell id="table_count" style="shape=table;container=1;recursiveResize=0;strokeColor=#000;" vertex="1" parent="1">
        <mxGeometry x="2310" y="1500" width="200" height="30" as="geometry"/>
      </mxCell>
      <mxCell id="r326" style="shape=tableRow;startSize=0;fillColor=none;" vertex="1" parent="table_count">
        <mxGeometry y="0" width="200" height="30" as="geometry"/>
      </mxCell>
      <mxCell id="c327" value="&lt;b&gt;count : ensure&lt;/b&gt;" style="html=1;verticalAlign=middle;whiteSpace=wrap;overflow=visible;align=center;fillColor=#ADD8E6;strokeColor=none" vertex="1" parent="r326">
        <mxGeometry width="200" height="30" as="geometry"/>
      </mxCell>
      <mxCell id="table_==1" style="shape=table;container=1;recursiveResize=0;strokeColor=#000;" vertex="1" parent="1">
        <mxGeometry x="2560" y="1500" width="200" height="30" as="geometry"/>
      </mxCell>
      <mxCell id="r328" style="shape=tableRow;startSize=0;fillColor=none;" vertex="1" parent="table_==1">
        <mxGeometry y="0" width="200" height="30" as="geometry"/>
      </mxCell>
      <mxCell id="c329" value="&lt;b&gt;==1 : e_sri_req_state_after_startupCold&lt;/b&gt;" style="html=1;verticalAlign=middle;whiteSpace=wrap;overflow=visible;align=center;fillColor=#ADD8E6;strokeColor=none" vertex="1" parent="r328">
        <mxGeometry width="200" height="30" as="geometry"/>
      </mxCell>
      <mxCell id="table_e_sri_req_state_after_startupWarm" style="shape=table;container=1;recursiveResize=0;strokeColor=#000;" vertex="1" parent="1">
        <mxGeometry x="2810" y="1500" width="200" height="30" as="geometry"/>
      </mxCell>
      <mxCell id="r330" style="shape=tableRow;startSize=0;fillColor=none;" vertex="1" parent="table_e_sri_req_state_after_startupWarm">
        <mxGeometry y="0" width="200" height="30" as="geometry"/>
      </mxCell>
      <mxCell id="c331" value="&lt;b&gt;e_sri_req_state_after_startupWarm : Clock&lt;/b&gt;" style="html=1;verticalAlign=middle;whiteSpace=wrap;overflow=visible;align=center;fillColor=#ADD8E6;strokeColor=none" vertex="1" parent="r330">
        <mxGeometry width="200" height="30" as="geometry"/>
      </mxCell>
      <mxCell id="table_sri_startup2" style="shape=table;container=1;recursiveResize=0;strokeColor=#000;" vertex="1" parent="1">
        <mxGeometry x="3060" y="1500" width="200" height="70" as="geometry"/>
      </mxCell>
      <mxCell id="r332" style="shape=tableRow;startSize=0;fillColor=none;" vertex="1" parent="table_sri_startup2">
        <mxGeometry y="0" width="200" height="30" as="geometry"/>
      </mxCell>
      <mxCell id="c333" value="&lt;b&gt;sri_startup2 : Boolean&lt;/b&gt;" style="html=1;verticalAlign=middle;whiteSpace=wrap;overflow=visible;align=center;fillColor=#ADD8E6;strokeColor=none" vertex="1" parent="r332">
        <mxGeometry width="200" height="30" as="geometry"/>
      </mxCell>
      <mxCell id="r334" style="shape=tableRow;startSize=0;fillColor=none;" vertex="1" parent="table_sri_startup2">
        <mxGeometry y="30" width="200" height="40" as="geometry"/>
      </mxCell>
      <mxCell id="c335" value="value = " style="html=1;verticalAlign=middle;whiteSpace=wrap;overflow=visible;align=left" vertex="1" parent="r334">
        <mxGeometry width="200" height="40" as="geometry"/>
      </mxCell>
      <mxCell id="table_state_startupWarm" style="shape=table;container=1;recursiveResize=0;strokeColor=#000;" vertex="1" parent="1">
        <mxGeometry x="60" y="1650" width="200" height="30" as="geometry"/>
      </mxCell>
      <mxCell id="r336" style="shape=tableRow;startSize=0;fillColor=none;" vertex="1" parent="table_state_startupWarm">
        <mxGeometry y="0" width="200" height="30" as="geometry"/>
      </mxCell>
      <mxCell id="c337" value="&lt;b&gt;state_startupWarm : after&lt;/b&gt;" style="html=1;verticalAlign=middle;whiteSpace=wrap;overflow=visible;align=center;fillColor=#ADD8E6;strokeColor=none" vertex="1" parent="r336">
        <mxGeometry width="200" height="30" as="geometry"/>
      </mxCell>
      <mxCell id="table_truefor30" style="shape=table;container=1;recursiveResize=0;strokeColor=#000;" vertex="1" parent="1">
        <mxGeometry x="310" y="1650" width="200" height="30" as="geometry"/>
      </mxCell>
      <mxCell id="r338" style="shape=tableRow;startSize=0;fillColor=none;" vertex="1" parent="table_truefor30">
        <mxGeometry y="0" width="200" height="30" as="geometry"/>
      </mxCell>
      <mxCell id="c339" value="&lt;b&gt;truefor30 : becomes&lt;/b&gt;" style="html=1;verticalAlign=middle;whiteSpace=wrap;overflow=visible;align=center;fillColor=#ADD8E6;strokeColor=none" vertex="1" parent="r338">
        <mxGeometry width="200" height="30" as="geometry"/>
      </mxCell>
      <mxCell id="table_count" style="shape=table;container=1;recursiveResize=0;strokeColor=#000;" vertex="1" parent="1">
        <mxGeometry x="560" y="1650" width="200" height="30" as="geometry"/>
      </mxCell>
      <mxCell id="r340" style="shape=tableRow;startSize=0;fillColor=none;" vertex="1" parent="table_count">
        <mxGeometry y="0" width="200" height="30" as="geometry"/>
      </mxCell>
      <mxCell id="c341" value="&lt;b&gt;count : ensure&lt;/b&gt;" style="html=1;verticalAlign=middle;whiteSpace=wrap;overflow=visible;align=center;fillColor=#ADD8E6;strokeColor=none" vertex="1" parent="r340">
        <mxGeometry width="200" height="30" as="geometry"/>
      </mxCell>
      <mxCell id="table_==1" style="shape=table;container=1;recursiveResize=0;strokeColor=#000;" vertex="1" parent="1">
        <mxGeometry x="810" y="1650" width="200" height="30" as="geometry"/>
      </mxCell>
      <mxCell id="r342" style="shape=tableRow;startSize=0;fillColor=none;" vertex="1" parent="table_==1">
        <mxGeometry y="0" width="200" height="30" as="geometry"/>
      </mxCell>
      <mxCell id="c343" value="&lt;b&gt;==1 : e_sri_req_state_after_startupWarm&lt;/b&gt;" style="html=1;verticalAlign=middle;whiteSpace=wrap;overflow=visible;align=center;fillColor=#ADD8E6;strokeColor=none" vertex="1" parent="r342">
        <mxGeometry width="200" height="30" as="geometry"/>
      </mxCell>
      <mxCell id="table_sri" style="shape=table;container=1;recursiveResize=0;strokeColor=#000;" vertex="1" parent="1">
        <mxGeometry x="1060" y="1650" width="200" height="30" as="geometry"/>
      </mxCell>
      <mxCell id="r344" style="shape=tableRow;startSize=0;fillColor=none;" vertex="1" parent="table_sri">
        <mxGeometry y="0" width="200" height="30" as="geometry"/>
      </mxCell>
      <mxCell id="c345" value="&lt;b&gt;sri : Cooling_system&lt;/b&gt;" style="html=1;verticalAlign=middle;whiteSpace=wrap;overflow=visible;align=center;fillColor=#ADD8E6;strokeColor=none" vertex="1" parent="r344">
        <mxGeometry width="200" height="30" as="geometry"/>
      </mxCell>
      <mxCell id="table_issri_tRW" style="shape=table;container=1;recursiveResize=0;strokeColor=#000;" vertex="1" parent="1">
        <mxGeometry x="1310" y="1650" width="200" height="30" as="geometry"/>
      </mxCell>
      <mxCell id="r346" style="shape=tableRow;startSize=0;fillColor=none;" vertex="1" parent="table_issri_tRW">
        <mxGeometry y="0" width="200" height="30" as="geometry"/>
      </mxCell>
      <mxCell id="c347" value="&lt;b&gt;issri_tRW : tRW&lt;/b&gt;" style="html=1;verticalAlign=middle;whiteSpace=wrap;overflow=visible;align=center;fillColor=#ADD8E6;strokeColor=none" vertex="1" parent="r346">
        <mxGeometry width="200" height="30" as="geometry"/>
      </mxCell>
      <mxCell id="table_issri_tWW" style="shape=table;container=1;recursiveResize=0;strokeColor=#000;" vertex="1" parent="1">
        <mxGeometry x="1560" y="1650" width="200" height="30" as="geometry"/>
      </mxCell>
      <mxCell id="r348" style="shape=tableRow;startSize=0;fillColor=none;" vertex="1" parent="table_issri_tWW">
        <mxGeometry y="0" width="200" height="30" as="geometry"/>
      </mxCell>
      <mxCell id="c349" value="&lt;b&gt;issri_tWW : tWW&lt;/b&gt;" style="html=1;verticalAlign=middle;whiteSpace=wrap;overflow=visible;align=center;fillColor=#ADD8E6;strokeColor=none" vertex="1" parent="r348">
        <mxGeometry width="200" height="30" as="geometry"/>
      </mxCell>
      <mxCell id="table_issri_dWDemand" style="shape=table;container=1;recursiveResize=0;strokeColor=#000;" vertex="1" parent="1">
        <mxGeometry x="1810" y="1650" width="200" height="30" as="geometry"/>
      </mxCell>
      <mxCell id="r350" style="shape=tableRow;startSize=0;fillColor=none;" vertex="1" parent="table_issri_dWDemand">
        <mxGeometry y="0" width="200" height="30" as="geometry"/>
      </mxCell>
      <mxCell id="c351" value="&lt;b&gt;issri_dWDemand : dWDemand&lt;/b&gt;" style="html=1;verticalAlign=middle;whiteSpace=wrap;overflow=visible;align=center;fillColor=#ADD8E6;strokeColor=none" vertex="1" parent="r350">
        <mxGeometry width="200" height="30" as="geometry"/>
      </mxCell>
      <mxCell id="table_<missing undefined>" style="shape=table;container=1;recursiveResize=0;strokeColor=#000;" vertex="1" parent="1">
        <mxGeometry x="2060" y="1650" width="200" height="30" as="geometry"/>
      </mxCell>
      <mxCell id="r352" style="shape=tableRow;startSize=0;fillColor=none;" vertex="1" parent="table_<missing undefined>">
        <mxGeometry y="0" width="200" height="30" as="geometry"/>
      </mxCell>
      <mxCell id="c353" value="&lt;b&gt;&lt;missing undefined&gt; : dWFlowMax&lt;/b&gt;" style="html=1;verticalAlign=middle;whiteSpace=wrap;overflow=visible;align=center;fillColor=#ADD8E6;strokeColor=none" vertex="1" parent="r352">
        <mxGeometry width="200" height="30" as="geometry"/>
      </mxCell>
      <mxCell id="table_issri_state_stopped" style="shape=table;container=1;recursiveResize=0;strokeColor=#000;" vertex="1" parent="1">
        <mxGeometry x="2310" y="1650" width="200" height="30" as="geometry"/>
      </mxCell>
      <mxCell id="r354" style="shape=tableRow;startSize=0;fillColor=none;" vertex="1" parent="table_issri_state_stopped">
        <mxGeometry y="0" width="200" height="30" as="geometry"/>
      </mxCell>
      <mxCell id="c355" value="&lt;b&gt;issri_state_stopped : state_stopped&lt;/b&gt;" style="html=1;verticalAlign=middle;whiteSpace=wrap;overflow=visible;align=center;fillColor=#ADD8E6;strokeColor=none" vertex="1" parent="r354">
        <mxGeometry width="200" height="30" as="geometry"/>
      </mxCell>
      <mxCell id="table_issri_state_startupCold" style="shape=table;container=1;recursiveResize=0;strokeColor=#000;" vertex="1" parent="1">
        <mxGeometry x="2560" y="1650" width="200" height="30" as="geometry"/>
      </mxCell>
      <mxCell id="r356" style="shape=tableRow;startSize=0;fillColor=none;" vertex="1" parent="table_issri_state_startupCold">
        <mxGeometry y="0" width="200" height="30" as="geometry"/>
      </mxCell>
      <mxCell id="c357" value="&lt;b&gt;issri_state_startupCold : state_startupCold&lt;/b&gt;" style="html=1;verticalAlign=middle;whiteSpace=wrap;overflow=visible;align=center;fillColor=#ADD8E6;strokeColor=none" vertex="1" parent="r356">
        <mxGeometry width="200" height="30" as="geometry"/>
      </mxCell>
      <mxCell id="table_issri_state_startupWarm" style="shape=table;container=1;recursiveResize=0;strokeColor=#000;" vertex="1" parent="1">
        <mxGeometry x="2810" y="1650" width="200" height="30" as="geometry"/>
      </mxCell>
      <mxCell id="r358" style="shape=tableRow;startSize=0;fillColor=none;" vertex="1" parent="table_issri_state_startupWarm">
        <mxGeometry y="0" width="200" height="30" as="geometry"/>
      </mxCell>
      <mxCell id="c359" value="&lt;b&gt;issri_state_startupWarm : state_startupWarm&lt;/b&gt;" style="html=1;verticalAlign=middle;whiteSpace=wrap;overflow=visible;align=center;fillColor=#ADD8E6;strokeColor=none" vertex="1" parent="r358">
        <mxGeometry width="200" height="30" as="geometry"/>
      </mxCell>
      <mxCell id="table_issri_state_normalOp" style="shape=table;container=1;recursiveResize=0;strokeColor=#000;" vertex="1" parent="1">
        <mxGeometry x="3060" y="1650" width="200" height="30" as="geometry"/>
      </mxCell>
      <mxCell id="r360" style="shape=tableRow;startSize=0;fillColor=none;" vertex="1" parent="table_issri_state_normalOp">
        <mxGeometry y="0" width="200" height="30" as="geometry"/>
      </mxCell>
      <mxCell id="c361" value="&lt;b&gt;issri_state_normalOp : state_normalOp&lt;/b&gt;" style="html=1;verticalAlign=middle;whiteSpace=wrap;overflow=visible;align=center;fillColor=#ADD8E6;strokeColor=none" vertex="1" parent="r360">
        <mxGeometry width="200" height="30" as="geometry"/>
      </mxCell>
      <mxCell id="table_issri_state_stopping" style="shape=table;container=1;recursiveResize=0;strokeColor=#000;" vertex="1" parent="1">
        <mxGeometry x="60" y="1760" width="200" height="30" as="geometry"/>
      </mxCell>
      <mxCell id="r362" style="shape=tableRow;startSize=0;fillColor=none;" vertex="1" parent="table_issri_state_stopping">
        <mxGeometry y="0" width="200" height="30" as="geometry"/>
      </mxCell>
      <mxCell id="c363" value="&lt;b&gt;issri_state_stopping : state_stopping&lt;/b&gt;" style="html=1;verticalAlign=middle;whiteSpace=wrap;overflow=visible;align=center;fillColor=#ADD8E6;strokeColor=none" vertex="1" parent="r362">
        <mxGeometry width="200" height="30" as="geometry"/>
      </mxCell>
      <mxCell id="table_issri_ready" style="shape=table;container=1;recursiveResize=0;strokeColor=#000;" vertex="1" parent="1">
        <mxGeometry x="310" y="1760" width="200" height="30" as="geometry"/>
      </mxCell>
      <mxCell id="r364" style="shape=tableRow;startSize=0;fillColor=none;" vertex="1" parent="table_issri_ready">
        <mxGeometry y="0" width="200" height="30" as="geometry"/>
      </mxCell>
      <mxCell id="c365" value="&lt;b&gt;issri_ready : ready&lt;/b&gt;" style="html=1;verticalAlign=middle;whiteSpace=wrap;overflow=visible;align=center;fillColor=#ADD8E6;strokeColor=none" vertex="1" parent="r364">
        <mxGeometry width="200" height="30" as="geometry"/>
      </mxCell>
      <mxCell id="table_sri" style="shape=table;container=1;recursiveResize=0;strokeColor=#000;" vertex="1" parent="1">
        <mxGeometry x="560" y="1760" width="200" height="30" as="geometry"/>
      </mxCell>
      <mxCell id="r366" style="shape=tableRow;startSize=0;fillColor=none;" vertex="1" parent="table_sri">
        <mxGeometry y="0" width="200" height="30" as="geometry"/>
      </mxCell>
      <mxCell id="c367" value="&lt;b&gt;sri : Cooling_system&lt;/b&gt;" style="html=1;verticalAlign=middle;whiteSpace=wrap;overflow=visible;align=center;fillColor=#ADD8E6;strokeColor=none" vertex="1" parent="r366">
        <mxGeometry width="200" height="30" as="geometry"/>
      </mxCell>
      <mxCell id="table_isOn" style="shape=table;container=1;recursiveResize=0;strokeColor=#000;" vertex="1" parent="1">
        <mxGeometry x="810" y="1760" width="200" height="30" as="geometry"/>
      </mxCell>
      <mxCell id="r368" style="shape=tableRow;startSize=0;fillColor=none;" vertex="1" parent="table_isOn">
        <mxGeometry y="0" width="200" height="30" as="geometry"/>
      </mxCell>
      <mxCell id="c369" value="&lt;b&gt;isOn : Boolean&lt;/b&gt;" style="html=1;verticalAlign=middle;whiteSpace=wrap;overflow=visible;align=center;fillColor=#ADD8E6;strokeColor=none" vertex="1" parent="r368">
        <mxGeometry width="200" height="30" as="geometry"/>
      </mxCell>
      <mxCell id="table_sri_stopping1" style="shape=table;container=1;recursiveResize=0;strokeColor=#000;" vertex="1" parent="1">
        <mxGeometry x="1060" y="1760" width="200" height="70" as="geometry"/>
      </mxCell>
      <mxCell id="r370" style="shape=tableRow;startSize=0;fillColor=none;" vertex="1" parent="table_sri_stopping1">
        <mxGeometry y="0" width="200" height="30" as="geometry"/>
      </mxCell>
      <mxCell id="c371" value="&lt;b&gt;sri_stopping1 : Boolean&lt;/b&gt;" style="html=1;verticalAlign=middle;whiteSpace=wrap;overflow=visible;align=center;fillColor=#ADD8E6;strokeColor=none" vertex="1" parent="r370">
        <mxGeometry width="200" height="30" as="geometry"/>
      </mxCell>
      <mxCell id="r372" style="shape=tableRow;startSize=0;fillColor=none;" vertex="1" parent="table_sri_stopping1">
        <mxGeometry y="30" width="200" height="40" as="geometry"/>
      </mxCell>
      <mxCell id="c373" value="value = " style="html=1;verticalAlign=middle;whiteSpace=wrap;overflow=visible;align=left" vertex="1" parent="r372">
        <mxGeometry width="200" height="40" as="geometry"/>
      </mxCell>
      <mxCell id="table_sri" style="shape=table;container=1;recursiveResize=0;strokeColor=#000;" vertex="1" parent="1">
        <mxGeometry x="1310" y="1760" width="200" height="30" as="geometry"/>
      </mxCell>
      <mxCell id="r374" style="shape=tableRow;startSize=0;fillColor=none;" vertex="1" parent="table_sri">
        <mxGeometry y="0" width="200" height="30" as="geometry"/>
      </mxCell>
      <mxCell id="c375" value="&lt;b&gt;sri : during&lt;/b&gt;" style="html=1;verticalAlign=middle;whiteSpace=wrap;overflow=visible;align=center;fillColor=#ADD8E6;strokeColor=none" vertex="1" parent="r374">
        <mxGeometry width="200" height="30" as="geometry"/>
      </mxCell>
      <mxCell id="table_ensure" style="shape=table;container=1;recursiveResize=0;strokeColor=#000;" vertex="1" parent="1">
        <mxGeometry x="1560" y="1760" width="200" height="30" as="geometry"/>
      </mxCell>
      <mxCell id="r376" style="shape=tableRow;startSize=0;fillColor=none;" vertex="1" parent="table_ensure">
        <mxGeometry y="0" width="200" height="30" as="geometry"/>
      </mxCell>
      <mxCell id="c377" value="&lt;b&gt;ensure : state_stopping&lt;/b&gt;" style="html=1;verticalAlign=middle;whiteSpace=wrap;overflow=visible;align=center;fillColor=#ADD8E6;strokeColor=none" vertex="1" parent="r376">
        <mxGeometry width="200" height="30" as="geometry"/>
      </mxCell>
      <mxCell id="table_<missing undefined>" style="shape=table;container=1;recursiveResize=0;strokeColor=#000;" vertex="1" parent="1">
        <mxGeometry x="1810" y="1760" width="200" height="30" as="geometry"/>
      </mxCell>
      <mxCell id="r378" style="shape=tableRow;startSize=0;fillColor=none;" vertex="1" parent="table_<missing undefined>">
        <mxGeometry y="0" width="200" height="30" as="geometry"/>
      </mxCell>
      <mxCell id="c379" value="&lt;b&gt;&lt;missing undefined&gt; : isOn&lt;/b&gt;" style="html=1;verticalAlign=middle;whiteSpace=wrap;overflow=visible;align=center;fillColor=#ADD8E6;strokeColor=none" vertex="1" parent="r378">
        <mxGeometry width="200" height="30" as="geometry"/>
      </mxCell>
      <mxCell id="table_active_component1" style="shape=table;container=1;recursiveResize=0;strokeColor=#000;" vertex="1" parent="1">
        <mxGeometry x="2060" y="1760" width="200" height="30" as="geometry"/>
      </mxCell>
      <mxCell id="r380" style="shape=tableRow;startSize=0;fillColor=none;" vertex="1" parent="table_active_component1">
        <mxGeometry y="0" width="200" height="30" as="geometry"/>
      </mxCell>
      <mxCell id="c381" value="&lt;b&gt;active_component1 : ActiveComponent&lt;/b&gt;" style="html=1;verticalAlign=middle;whiteSpace=wrap;overflow=visible;align=center;fillColor=#ADD8E6;strokeColor=none" vertex="1" parent="r380">
        <mxGeometry width="200" height="30" as="geometry"/>
      </mxCell>
      <mxCell id="table_active_component2" style="shape=table;container=1;recursiveResize=0;strokeColor=#000;" vertex="1" parent="1">
        <mxGeometry x="2310" y="1760" width="200" height="30" as="geometry"/>
      </mxCell>
      <mxCell id="r382" style="shape=tableRow;startSize=0;fillColor=none;" vertex="1" parent="table_active_component2">
        <mxGeometry y="0" width="200" height="30" as="geometry"/>
      </mxCell>
      <mxCell id="c383" value="&lt;b&gt;active_component2 : ActiveComponent&lt;/b&gt;" style="html=1;verticalAlign=middle;whiteSpace=wrap;overflow=visible;align=center;fillColor=#ADD8E6;strokeColor=none" vertex="1" parent="r382">
        <mxGeometry width="200" height="30" as="geometry"/>
      </mxCell>
      <mxCell id="table_active_component3" style="shape=table;container=1;recursiveResize=0;strokeColor=#000;" vertex="1" parent="1">
        <mxGeometry x="2560" y="1760" width="200" height="30" as="geometry"/>
      </mxCell>
      <mxCell id="r384" style="shape=tableRow;startSize=0;fillColor=none;" vertex="1" parent="table_active_component3">
        <mxGeometry y="0" width="200" height="30" as="geometry"/>
      </mxCell>
      <mxCell id="c385" value="&lt;b&gt;active_component3 : ActiveComponent&lt;/b&gt;" style="html=1;verticalAlign=middle;whiteSpace=wrap;overflow=visible;align=center;fillColor=#ADD8E6;strokeColor=none" vertex="1" parent="r384">
        <mxGeometry width="200" height="30" as="geometry"/>
      </mxCell>
      <mxCell id="table_all_active_components" style="shape=table;container=1;recursiveResize=0;strokeColor=#000;" vertex="1" parent="1">
        <mxGeometry x="2810" y="1760" width="200" height="30" as="geometry"/>
      </mxCell>
      <mxCell id="r386" style="shape=tableRow;startSize=0;fillColor=none;" vertex="1" parent="table_all_active_components">
        <mxGeometry y="0" width="200" height="30" as="geometry"/>
      </mxCell>
      <mxCell id="c387" value="&lt;b&gt;all_active_components : ActiveComponent{}&lt;/b&gt;" style="html=1;verticalAlign=middle;whiteSpace=wrap;overflow=visible;align=center;fillColor=#ADD8E6;strokeColor=none" vertex="1" parent="r386">
        <mxGeometry width="200" height="30" as="geometry"/>
      </mxCell>
      <mxCell id="table_all_sri_stopping1" style="shape=table;container=1;recursiveResize=0;strokeColor=#000;" vertex="1" parent="1">
        <mxGeometry x="3060" y="1760" width="200" height="70" as="geometry"/>
      </mxCell>
      <mxCell id="r388" style="shape=tableRow;startSize=0;fillColor=none;" vertex="1" parent="table_all_sri_stopping1">
        <mxGeometry y="0" width="200" height="30" as="geometry"/>
      </mxCell>
      <mxCell id="c389" value="&lt;b&gt;all_sri_stopping1 : Boolean&lt;/b&gt;" style="html=1;verticalAlign=middle;whiteSpace=wrap;overflow=visible;align=center;fillColor=#ADD8E6;strokeColor=none" vertex="1" parent="r388">
        <mxGeometry width="200" height="30" as="geometry"/>
      </mxCell>
      <mxCell id="r390" style="shape=tableRow;startSize=0;fillColor=none;" vertex="1" parent="table_all_sri_stopping1">
        <mxGeometry y="30" width="200" height="40" as="geometry"/>
      </mxCell>
      <mxCell id="c391" value="value = and all_active_components.sri_stopping1" style="html=1;verticalAlign=middle;whiteSpace=wrap;overflow=visible;align=left" vertex="1" parent="r390">
        <mxGeometry width="200" height="40" as="geometry"/>
      </mxCell>
      <mxCell id="edge0" style="edgeStyle=orthogonalEdgeStyle;rounded=0;strokeColor=#000;endArrow=classic;endFill=0;" edge="1" source="table_env" target="table_Environment" parent="1">
        <mxGeometry relative="1" as="geometry"/>
      </mxCell>
      <mxCell id="edge1" style="edgeStyle=orthogonalEdgeStyle;rounded=0;strokeColor=#000;endArrow=classic;endFill=0;" edge="1" source="table_env" target="table_Environment" parent="1">
        <mxGeometry relative="1" as="geometry"/>
      </mxCell>
      <mxCell id="edge2" style="edgeStyle=orthogonalEdgeStyle;rounded=0;strokeColor=#000;endArrow=classic;endFill=0;" edge="1" source="table_env" target="table_Environment" parent="1">
        <mxGeometry relative="1" as="geometry"/>
      </mxCell>
      <mxCell id="edge3" style="edgeStyle=orthogonalEdgeStyle;rounded=0;strokeColor=#000;endArrow=classic;endFill=0;" edge="1" source="table_env" target="table_Cooling_system_flattened_simple" parent="1">
        <mxGeometry relative="1" as="geometry"/>
      </mxCell>
      <mxCell id="edge4" style="edgeStyle=orthogonalEdgeStyle;rounded=0;strokeColor=#000;endArrow=classic;endFill=0;" edge="1" source="table_sri" target="table_Cooling_system" parent="1">
        <mxGeometry relative="1" as="geometry"/>
      </mxCell>
      <mxCell id="edge5" style="edgeStyle=orthogonalEdgeStyle;rounded=0;strokeColor=#000;endArrow=classic;endFill=0;" edge="1" source="table_sri" target="table_Cooling_system_flattened_simple" parent="1">
        <mxGeometry relative="1" as="geometry"/>
      </mxCell>
      <mxCell id="edge6" style="edgeStyle=orthogonalEdgeStyle;rounded=0;strokeColor=#000;endArrow=classic;endFill=0;" edge="1" source="table_env" target="table_during" parent="1">
        <mxGeometry relative="1" as="geometry"/>
      </mxCell>
      <mxCell id="edge7" style="edgeStyle=orthogonalEdgeStyle;rounded=0;strokeColor=#000;endArrow=classic;endFill=0;" edge="1" source="table_ensure" target="table_plantIsOperating" parent="1">
        <mxGeometry relative="1" as="geometry"/>
      </mxCell>
      <mxCell id="edge8" style="edgeStyle=orthogonalEdgeStyle;rounded=0;strokeColor=#000;endArrow=classic;endFill=0;" edge="1" source="table_ensure" target="table_tMax" parent="1">
        <mxGeometry relative="1" as="geometry"/>
      </mxCell>
      <mxCell id="edge9" style="edgeStyle=orthogonalEdgeStyle;rounded=0;strokeColor=#000;endArrow=classic;endFill=0;" edge="1" source="table_ensure" target="table_tMax" parent="1">
        <mxGeometry relative="1" as="geometry"/>
      </mxCell>
      <mxCell id="edge10" style="edgeStyle=orthogonalEdgeStyle;rounded=0;strokeColor=#000;endArrow=classic;endFill=0;" edge="1" source="table_env" target="table_during" parent="1">
        <mxGeometry relative="1" as="geometry"/>
      </mxCell>
      <mxCell id="edge11" style="edgeStyle=orthogonalEdgeStyle;rounded=0;strokeColor=#000;endArrow=classic;endFill=0;" edge="1" source="table_ensure" target="table_plantIsOperating" parent="1">
        <mxGeometry relative="1" as="geometry"/>
      </mxCell>
      <mxCell id="edge12" style="edgeStyle=orthogonalEdgeStyle;rounded=0;strokeColor=#000;endArrow=classic;endFill=0;" edge="1" source="table_<=tMax" target="table_temp" parent="1">
        <mxGeometry relative="1" as="geometry"/>
      </mxCell>
      <mxCell id="edge13" style="edgeStyle=orthogonalEdgeStyle;rounded=0;strokeColor=#000;endArrow=classic;endFill=0;" edge="1" source="table_env" target="table_during" parent="1">
        <mxGeometry relative="1" as="geometry"/>
      </mxCell>
      <mxCell id="edge14" style="edgeStyle=orthogonalEdgeStyle;rounded=0;strokeColor=#000;endArrow=classic;endFill=0;" edge="1" source="table_ensure" target="table_plantIsOperating" parent="1">
        <mxGeometry relative="1" as="geometry"/>
      </mxCell>
      <mxCell id="edge15" style="edgeStyle=orthogonalEdgeStyle;rounded=0;strokeColor=#000;endArrow=classic;endFill=0;" edge="1" source="table_>0" target="table_flowMax" parent="1">
        <mxGeometry relative="1" as="geometry"/>
      </mxCell>
      <mxCell id="edge16" style="edgeStyle=orthogonalEdgeStyle;rounded=0;strokeColor=#000;endArrow=classic;endFill=0;" edge="1" source="table_env" target="table_during" parent="1">
        <mxGeometry relative="1" as="geometry"/>
      </mxCell>
      <mxCell id="edge17" style="edgeStyle=orthogonalEdgeStyle;rounded=0;strokeColor=#000;endArrow=classic;endFill=0;" edge="1" source="table_ensure" target="table_plantIsOperating" parent="1">
        <mxGeometry relative="1" as="geometry"/>
      </mxCell>
      <mxCell id="edge18" style="edgeStyle=orthogonalEdgeStyle;rounded=0;strokeColor=#000;endArrow=classic;endFill=0;" edge="1" source="table_>=0and" target="table_water_flow" parent="1">
        <mxGeometry relative="1" as="geometry"/>
      </mxCell>
      <mxCell id="edge19" style="edgeStyle=orthogonalEdgeStyle;rounded=0;strokeColor=#000;endArrow=classic;endFill=0;" edge="1" source="table_<=flowMax" target="table_water_flow" parent="1">
        <mxGeometry relative="1" as="geometry"/>
      </mxCell>
      <mxCell id="edge20" style="edgeStyle=orthogonalEdgeStyle;rounded=0;strokeColor=#000;endArrow=classic;endFill=0;" edge="1" source="table_env" target="table_during" parent="1">
        <mxGeometry relative="1" as="geometry"/>
      </mxCell>
      <mxCell id="edge21" style="edgeStyle=orthogonalEdgeStyle;rounded=0;strokeColor=#000;endArrow=classic;endFill=0;" edge="1" source="table_ensure" target="table_plantIsOperating" parent="1">
        <mxGeometry relative="1" as="geometry"/>
      </mxCell>
      <mxCell id="edge22" style="edgeStyle=orthogonalEdgeStyle;rounded=0;strokeColor=#000;endArrow=classic;endFill=0;" edge="1" source="table_>=7and" target="table_tRWMin" parent="1">
        <mxGeometry relative="1" as="geometry"/>
      </mxCell>
      <mxCell id="edge23" style="edgeStyle=orthogonalEdgeStyle;rounded=0;strokeColor=#000;endArrow=classic;endFill=0;" edge="1" source="table_<=15" target="table_tRWMin" parent="1">
        <mxGeometry relative="1" as="geometry"/>
      </mxCell>
      <mxCell id="edge24" style="edgeStyle=orthogonalEdgeStyle;rounded=0;strokeColor=#000;endArrow=classic;endFill=0;" edge="1" source="table_env" target="table_during" parent="1">
        <mxGeometry relative="1" as="geometry"/>
      </mxCell>
      <mxCell id="edge25" style="edgeStyle=orthogonalEdgeStyle;rounded=0;strokeColor=#000;endArrow=classic;endFill=0;" edge="1" source="table_ensure" target="table_plantIsOperating" parent="1">
        <mxGeometry relative="1" as="geometry"/>
      </mxCell>
      <mxCell id="edge26" style="edgeStyle=orthogonalEdgeStyle;rounded=0;strokeColor=#000;endArrow=classic;endFill=0;" edge="1" source="table_>=0and" target="table_tdelay" parent="1">
        <mxGeometry relative="1" as="geometry"/>
      </mxCell>
      <mxCell id="edge27" style="edgeStyle=orthogonalEdgeStyle;rounded=0;strokeColor=#000;endArrow=classic;endFill=0;" edge="1" source="table_<=20" target="table_tdelay" parent="1">
        <mxGeometry relative="1" as="geometry"/>
      </mxCell>
      <mxCell id="edge28" style="edgeStyle=orthogonalEdgeStyle;rounded=0;strokeColor=#000;endArrow=classic;endFill=0;" edge="1" source="table_sri" target="table_during" parent="1">
        <mxGeometry relative="1" as="geometry"/>
      </mxCell>
      <mxCell id="edge29" style="edgeStyle=orthogonalEdgeStyle;rounded=0;strokeColor=#000;endArrow=classic;endFill=0;" edge="1" source="table_<=" target="table_tRW" parent="1">
        <mxGeometry relative="1" as="geometry"/>
      </mxCell>
      <mxCell id="edge30" style="edgeStyle=orthogonalEdgeStyle;rounded=0;strokeColor=#000;endArrow=classic;endFill=0;" edge="1" source="table_<=" target="table_tRWMin" parent="1">
        <mxGeometry relative="1" as="geometry"/>
      </mxCell>
      <mxCell id="edge31" style="edgeStyle=orthogonalEdgeStyle;rounded=0;strokeColor=#000;endArrow=classic;endFill=0;" edge="1" source="table_notopen" target="table_ensure" parent="1">
        <mxGeometry relative="1" as="geometry"/>
      </mxCell>
      <mxCell id="edge32" style="edgeStyle=orthogonalEdgeStyle;rounded=0;strokeColor=#000;endArrow=classic;endFill=0;" edge="1" source="table_sri" target="table_during" parent="1">
        <mxGeometry relative="1" as="geometry"/>
      </mxCell>
      <mxCell id="edge33" style="edgeStyle=orthogonalEdgeStyle;rounded=0;strokeColor=#000;endArrow=classic;endFill=0;" edge="1" source="table_>=tRWMin" target="table_tRW" parent="1">
        <mxGeometry relative="1" as="geometry"/>
      </mxCell>
      <mxCell id="edge34" style="edgeStyle=orthogonalEdgeStyle;rounded=0;strokeColor=#000;endArrow=classic;endFill=0;" edge="1" source="table_open" target="table_ensure" parent="1">
        <mxGeometry relative="1" as="geometry"/>
      </mxCell>
      <mxCell id="edge35" style="edgeStyle=orthogonalEdgeStyle;rounded=0;strokeColor=#000;endArrow=classic;endFill=0;" edge="1" source="table_served_system1" target="table_Served_system" parent="1">
        <mxGeometry relative="1" as="geometry"/>
      </mxCell>
      <mxCell id="edge36" style="edgeStyle=orthogonalEdgeStyle;rounded=0;strokeColor=#000;endArrow=classic;endFill=0;" edge="1" source="table_served_system1" target="table_Served_system" parent="1">
        <mxGeometry relative="1" as="geometry"/>
      </mxCell>
      <mxCell id="edge37" style="edgeStyle=orthogonalEdgeStyle;rounded=0;strokeColor=#000;endArrow=classic;endFill=0;" edge="1" source="table_<missing undefined>" target="table_powerMax" parent="1">
        <mxGeometry relative="1" as="geometry"/>
      </mxCell>
      <mxCell id="edge38" style="edgeStyle=orthogonalEdgeStyle;rounded=0;strokeColor=#000;endArrow=classic;endFill=0;" edge="1" source="table_<missing undefined>" target="table_tMax" parent="1">
        <mxGeometry relative="1" as="geometry"/>
      </mxCell>
      <mxCell id="edge39" style="edgeStyle=orthogonalEdgeStyle;rounded=0;strokeColor=#000;endArrow=classic;endFill=0;" edge="1" source="table_<missing undefined>" target="table_tRWMin" parent="1">
        <mxGeometry relative="1" as="geometry"/>
      </mxCell>
      <mxCell id="edge40" style="edgeStyle=orthogonalEdgeStyle;rounded=0;strokeColor=#000;endArrow=classic;endFill=0;" edge="1" source="table_<missing undefined>" target="table_flowMax" parent="1">
        <mxGeometry relative="1" as="geometry"/>
      </mxCell>
      <mxCell id="edge41" style="edgeStyle=orthogonalEdgeStyle;rounded=0;strokeColor=#000;endArrow=classic;endFill=0;" edge="1" source="table_<missing undefined>" target="table_tdelay" parent="1">
        <mxGeometry relative="1" as="geometry"/>
      </mxCell>
      <mxCell id="edge42" style="edgeStyle=orthogonalEdgeStyle;rounded=0;strokeColor=#000;endArrow=classic;endFill=0;" edge="1" source="table_served_system2" target="table_Served_system" parent="1">
        <mxGeometry relative="1" as="geometry"/>
      </mxCell>
      <mxCell id="edge43" style="edgeStyle=orthogonalEdgeStyle;rounded=0;strokeColor=#000;endArrow=classic;endFill=0;" edge="1" source="table_served_system2" target="table_Served_system" parent="1">
        <mxGeometry relative="1" as="geometry"/>
      </mxCell>
      <mxCell id="edge44" style="edgeStyle=orthogonalEdgeStyle;rounded=0;strokeColor=#000;endArrow=classic;endFill=0;" edge="1" source="table_<missing undefined>" target="table_powerMax" parent="1">
        <mxGeometry relative="1" as="geometry"/>
      </mxCell>
      <mxCell id="edge45" style="edgeStyle=orthogonalEdgeStyle;rounded=0;strokeColor=#000;endArrow=classic;endFill=0;" edge="1" source="table_<missing undefined>" target="table_tMax" parent="1">
        <mxGeometry relative="1" as="geometry"/>
      </mxCell>
      <mxCell id="edge46" style="edgeStyle=orthogonalEdgeStyle;rounded=0;strokeColor=#000;endArrow=classic;endFill=0;" edge="1" source="table_<missing undefined>" target="table_tRWMin" parent="1">
        <mxGeometry relative="1" as="geometry"/>
      </mxCell>
      <mxCell id="edge47" style="edgeStyle=orthogonalEdgeStyle;rounded=0;strokeColor=#000;endArrow=classic;endFill=0;" edge="1" source="table_<missing undefined>" target="table_flowMax" parent="1">
        <mxGeometry relative="1" as="geometry"/>
      </mxCell>
      <mxCell id="edge48" style="edgeStyle=orthogonalEdgeStyle;rounded=0;strokeColor=#000;endArrow=classic;endFill=0;" edge="1" source="table_<missing undefined>" target="table_tdelay" parent="1">
        <mxGeometry relative="1" as="geometry"/>
      </mxCell>
      <mxCell id="edge49" style="edgeStyle=orthogonalEdgeStyle;rounded=0;strokeColor=#000;endArrow=classic;endFill=0;" edge="1" source="table_served_system3" target="table_Served_system" parent="1">
        <mxGeometry relative="1" as="geometry"/>
      </mxCell>
      <mxCell id="edge50" style="edgeStyle=orthogonalEdgeStyle;rounded=0;strokeColor=#000;endArrow=classic;endFill=0;" edge="1" source="table_served_system3" target="table_Served_system" parent="1">
        <mxGeometry relative="1" as="geometry"/>
      </mxCell>
      <mxCell id="edge51" style="edgeStyle=orthogonalEdgeStyle;rounded=0;strokeColor=#000;endArrow=classic;endFill=0;" edge="1" source="table_<missing undefined>" target="table_powerMax" parent="1">
        <mxGeometry relative="1" as="geometry"/>
      </mxCell>
      <mxCell id="edge52" style="edgeStyle=orthogonalEdgeStyle;rounded=0;strokeColor=#000;endArrow=classic;endFill=0;" edge="1" source="table_<missing undefined>" target="table_tMax" parent="1">
        <mxGeometry relative="1" as="geometry"/>
      </mxCell>
      <mxCell id="edge53" style="edgeStyle=orthogonalEdgeStyle;rounded=0;strokeColor=#000;endArrow=classic;endFill=0;" edge="1" source="table_<missing undefined>" target="table_tRWMin" parent="1">
        <mxGeometry relative="1" as="geometry"/>
      </mxCell>
      <mxCell id="edge54" style="edgeStyle=orthogonalEdgeStyle;rounded=0;strokeColor=#000;endArrow=classic;endFill=0;" edge="1" source="table_<missing undefined>" target="table_flowMax" parent="1">
        <mxGeometry relative="1" as="geometry"/>
      </mxCell>
      <mxCell id="edge55" style="edgeStyle=orthogonalEdgeStyle;rounded=0;strokeColor=#000;endArrow=classic;endFill=0;" edge="1" source="table_<missing undefined>" target="table_tdelay" parent="1">
        <mxGeometry relative="1" as="geometry"/>
      </mxCell>
      <mxCell id="edge56" style="edgeStyle=orthogonalEdgeStyle;rounded=0;strokeColor=#000;endArrow=classic;endFill=0;" edge="1" source="table_all_served_systems" target="table_Served_system" parent="1">
        <mxGeometry relative="1" as="geometry"/>
      </mxCell>
      <mxCell id="edge57" style="edgeStyle=orthogonalEdgeStyle;rounded=0;strokeColor=#000;endArrow=classic;endFill=0;" edge="1" source="table_all_served_systems" target="table_served_system1" parent="1">
        <mxGeometry relative="1" as="geometry"/>
      </mxCell>
      <mxCell id="edge58" style="edgeStyle=orthogonalEdgeStyle;rounded=0;strokeColor=#000;endArrow=classic;endFill=0;" edge="1" source="table_all_served_systems" target="table_served_system2" parent="1">
        <mxGeometry relative="1" as="geometry"/>
      </mxCell>
      <mxCell id="edge59" style="edgeStyle=orthogonalEdgeStyle;rounded=0;strokeColor=#000;endArrow=classic;endFill=0;" edge="1" source="table_all_served_systems" target="table_served_system3" parent="1">
        <mxGeometry relative="1" as="geometry"/>
      </mxCell>
      <mxCell id="edge60" style="edgeStyle=orthogonalEdgeStyle;rounded=0;strokeColor=#000;endArrow=classic;endFill=0;" edge="1" source="table_all_served_systems_1" target="table_all_served_systems" parent="1">
        <mxGeometry relative="1" as="geometry"/>
      </mxCell>
      <mxCell id="edge61" style="edgeStyle=orthogonalEdgeStyle;rounded=0;strokeColor=#000;endArrow=classic;endFill=0;" edge="1" source="table_all_served_systems_1" target="table_served_system_1" parent="1">
        <mxGeometry relative="1" as="geometry"/>
      </mxCell>
      <mxCell id="edge62" style="edgeStyle=orthogonalEdgeStyle;rounded=0;strokeColor=#000;endArrow=classic;endFill=0;" edge="1" source="table_all_served_systems_2" target="table_all_served_systems" parent="1">
        <mxGeometry relative="1" as="geometry"/>
      </mxCell>
      <mxCell id="edge63" style="edgeStyle=orthogonalEdgeStyle;rounded=0;strokeColor=#000;endArrow=classic;endFill=0;" edge="1" source="table_all_served_systems_2" target="table_served_system_2" parent="1">
        <mxGeometry relative="1" as="geometry"/>
      </mxCell>
      <mxCell id="edge64" style="edgeStyle=orthogonalEdgeStyle;rounded=0;strokeColor=#000;endArrow=classic;endFill=0;" edge="1" source="table_all_served_systems_3" target="table_all_served_systems" parent="1">
        <mxGeometry relative="1" as="geometry"/>
      </mxCell>
      <mxCell id="edge65" style="edgeStyle=orthogonalEdgeStyle;rounded=0;strokeColor=#000;endArrow=classic;endFill=0;" edge="1" source="table_all_served_systems_3" target="table_served_system_3" parent="1">
        <mxGeometry relative="1" as="geometry"/>
      </mxCell>
      <mxCell id="edge66" style="edgeStyle=orthogonalEdgeStyle;rounded=0;strokeColor=#000;endArrow=classic;endFill=0;" edge="1" source="table_all_served_systems_4" target="table_all_served_systems" parent="1">
        <mxGeometry relative="1" as="geometry"/>
      </mxCell>
      <mxCell id="edge67" style="edgeStyle=orthogonalEdgeStyle;rounded=0;strokeColor=#000;endArrow=classic;endFill=0;" edge="1" source="table_all_served_systems_4" target="table_served_system_4" parent="1">
        <mxGeometry relative="1" as="geometry"/>
      </mxCell>
      <mxCell id="edge68" style="edgeStyle=orthogonalEdgeStyle;rounded=0;strokeColor=#000;endArrow=classic;endFill=0;" edge="1" source="table_all_served_systems_5" target="table_all_served_systems" parent="1">
        <mxGeometry relative="1" as="geometry"/>
      </mxCell>
      <mxCell id="edge69" style="edgeStyle=orthogonalEdgeStyle;rounded=0;strokeColor=#000;endArrow=classic;endFill=0;" edge="1" source="table_all_served_systems_5" target="table_served_system_5" parent="1">
        <mxGeometry relative="1" as="geometry"/>
      </mxCell>
      <mxCell id="edge70" style="edgeStyle=orthogonalEdgeStyle;rounded=0;strokeColor=#000;endArrow=classic;endFill=0;" edge="1" source="table_all_served_systems_6" target="table_all_served_systems" parent="1">
        <mxGeometry relative="1" as="geometry"/>
      </mxCell>
      <mxCell id="edge71" style="edgeStyle=orthogonalEdgeStyle;rounded=0;strokeColor=#000;endArrow=classic;endFill=0;" edge="1" source="table_all_served_systems_6" target="table_served_system_6" parent="1">
        <mxGeometry relative="1" as="geometry"/>
      </mxCell>
      <mxCell id="edge72" style="edgeStyle=orthogonalEdgeStyle;rounded=0;strokeColor=#000;endArrow=classic;endFill=0;" edge="1" source="table_all_cool_served_systems_1" target="table_all_served_systems" parent="1">
        <mxGeometry relative="1" as="geometry"/>
      </mxCell>
      <mxCell id="edge73" style="edgeStyle=orthogonalEdgeStyle;rounded=0;strokeColor=#000;endArrow=classic;endFill=0;" edge="1" source="table_all_cool_served_systems_1" target="table_cool_served_system_1" parent="1">
        <mxGeometry relative="1" as="geometry"/>
      </mxCell>
      <mxCell id="edge74" style="edgeStyle=orthogonalEdgeStyle;rounded=0;strokeColor=#000;endArrow=classic;endFill=0;" edge="1" source="table_all_cool_served_systems_2" target="table_all_served_systems" parent="1">
        <mxGeometry relative="1" as="geometry"/>
      </mxCell>
      <mxCell id="edge75" style="edgeStyle=orthogonalEdgeStyle;rounded=0;strokeColor=#000;endArrow=classic;endFill=0;" edge="1" source="table_all_cool_served_systems_2" target="table_cool_served_system_2" parent="1">
        <mxGeometry relative="1" as="geometry"/>
      </mxCell>
      <mxCell id="edge76" style="edgeStyle=orthogonalEdgeStyle;rounded=0;strokeColor=#000;endArrow=classic;endFill=0;" edge="1" source="table_,all_served_systems_2" target="table_all_served_systems_1" parent="1">
        <mxGeometry relative="1" as="geometry"/>
      </mxCell>
      <mxCell id="edge77" style="edgeStyle=orthogonalEdgeStyle;rounded=0;strokeColor=#000;endArrow=classic;endFill=0;" edge="1" source="table_,all_served_systems_4" target="table_all_served_systems_3" parent="1">
        <mxGeometry relative="1" as="geometry"/>
      </mxCell>
      <mxCell id="edge78" style="edgeStyle=orthogonalEdgeStyle;rounded=0;strokeColor=#000;endArrow=classic;endFill=0;" edge="1" source="table_,all_served_systems_6" target="table_all_served_systems_5" parent="1">
        <mxGeometry relative="1" as="geometry"/>
      </mxCell>
      <mxCell id="edge79" style="edgeStyle=orthogonalEdgeStyle;rounded=0;strokeColor=#000;endArrow=classic;endFill=0;" edge="1" source="table_,all_cool_served_systems_2" target="table_all_cool_served_systems_1" parent="1">
        <mxGeometry relative="1" as="geometry"/>
      </mxCell>
      <mxCell id="edge80" style="edgeStyle=orthogonalEdgeStyle;rounded=0;strokeColor=#000;endArrow=classic;endFill=0;" edge="1" source="table_op" target="table_Op" parent="1">
        <mxGeometry relative="1" as="geometry"/>
      </mxCell>
      <mxCell id="edge81" style="edgeStyle=orthogonalEdgeStyle;rounded=0;strokeColor=#000;endArrow=classic;endFill=0;" edge="1" source="table_op" target="table_Op" parent="1">
        <mxGeometry relative="1" as="geometry"/>
      </mxCell>
      <mxCell id="edge82" style="edgeStyle=orthogonalEdgeStyle;rounded=0;strokeColor=#000;endArrow=classic;endFill=0;" edge="1" source="table_sen" target="table_ColdSource" parent="1">
        <mxGeometry relative="1" as="geometry"/>
      </mxCell>
      <mxCell id="edge83" style="edgeStyle=orthogonalEdgeStyle;rounded=0;strokeColor=#000;endArrow=classic;endFill=0;" edge="1" source="table_sen" target="table_ColdSource" parent="1">
        <mxGeometry relative="1" as="geometry"/>
      </mxCell>
      <mxCell id="edge84" style="edgeStyle=orthogonalEdgeStyle;rounded=0;strokeColor=#000;endArrow=classic;endFill=0;" edge="1" source="table_<missing undefined>" target="table_tCWMax" parent="1">
        <mxGeometry relative="1" as="geometry"/>
      </mxCell>
      <mxCell id="edge85" style="edgeStyle=orthogonalEdgeStyle;rounded=0;strokeColor=#000;endArrow=classic;endFill=0;" edge="1" source="table_<missing undefined>" target="table_deltaTMax" parent="1">
        <mxGeometry relative="1" as="geometry"/>
      </mxCell>
      <mxCell id="edge86" style="edgeStyle=orthogonalEdgeStyle;rounded=0;strokeColor=#000;endArrow=classic;endFill=0;" edge="1" source="table_sed" target="table_DemineralisedSource" parent="1">
        <mxGeometry relative="1" as="geometry"/>
      </mxCell>
      <mxCell id="edge87" style="edgeStyle=orthogonalEdgeStyle;rounded=0;strokeColor=#000;endArrow=classic;endFill=0;" edge="1" source="table_sed" target="table_DemineralisedSource" parent="1">
        <mxGeometry relative="1" as="geometry"/>
      </mxCell>
      <mxCell id="edge88" style="edgeStyle=orthogonalEdgeStyle;rounded=0;strokeColor=#000;endArrow=classic;endFill=0;" edge="1" source="table_sed" target="table_DemineralisedSource" parent="1">
        <mxGeometry relative="1" as="geometry"/>
      </mxCell>
      <mxCell id="edge89" style="edgeStyle=orthogonalEdgeStyle;rounded=0;strokeColor=#000;endArrow=classic;endFill=0;" edge="1" source="table_sed" target="table_Cooling_system_flattened_simple" parent="1">
        <mxGeometry relative="1" as="geometry"/>
      </mxCell>
      <mxCell id="edge90" style="edgeStyle=orthogonalEdgeStyle;rounded=0;strokeColor=#000;endArrow=classic;endFill=0;" edge="1" source="table_sen" target="table_ColdSource" parent="1">
        <mxGeometry relative="1" as="geometry"/>
      </mxCell>
      <mxCell id="edge91" style="edgeStyle=orthogonalEdgeStyle;rounded=0;strokeColor=#000;endArrow=classic;endFill=0;" edge="1" source="table_sen" target="table_Cooling_system_flattened_simple" parent="1">
        <mxGeometry relative="1" as="geometry"/>
      </mxCell>
      <mxCell id="edge92" style="edgeStyle=orthogonalEdgeStyle;rounded=0;strokeColor=#000;endArrow=classic;endFill=0;" edge="1" source="table_state_startupWarm" target="table_during" parent="1">
        <mxGeometry relative="1" as="geometry"/>
      </mxCell>
      <mxCell id="edge93" style="edgeStyle=orthogonalEdgeStyle;rounded=0;strokeColor=#000;endArrow=classic;endFill=0;" edge="1" source="table_orstate_stopping" target="table_state_normalOp" parent="1">
        <mxGeometry relative="1" as="geometry"/>
      </mxCell>
      <mxCell id="edge94" style="edgeStyle=orthogonalEdgeStyle;rounded=0;strokeColor=#000;endArrow=classic;endFill=0;" edge="1" source="table_tRW" target="table_ensure" parent="1">
        <mxGeometry relative="1" as="geometry"/>
      </mxCell>
      <mxCell id="edge95" style="edgeStyle=orthogonalEdgeStyle;rounded=0;strokeColor=#000;endArrow=classic;endFill=0;" edge="1" source="table_coldW_sri_1" target="table_during" parent="1">
        <mxGeometry relative="1" as="geometry"/>
      </mxCell>
      <mxCell id="edge96" style="edgeStyle=orthogonalEdgeStyle;rounded=0;strokeColor=#000;endArrow=classic;endFill=0;" edge="1" source="table_coldW_sri_1" target="table_state_stopped" parent="1">
        <mxGeometry relative="1" as="geometry"/>
      </mxCell>
      <mxCell id="edge97" style="edgeStyle=orthogonalEdgeStyle;rounded=0;strokeColor=#000;endArrow=classic;endFill=0;" edge="1" source="table_coldW_sri_1" target="table_state_stopping" parent="1">
        <mxGeometry relative="1" as="geometry"/>
      </mxCell>
      <mxCell id="edge98" style="edgeStyle=orthogonalEdgeStyle;rounded=0;strokeColor=#000;endArrow=classic;endFill=0;" edge="1" source="table_sen" target="table_ensure" parent="1">
        <mxGeometry relative="1" as="geometry"/>
      </mxCell>
      <mxCell id="edge99" style="edgeStyle=orthogonalEdgeStyle;rounded=0;strokeColor=#000;endArrow=classic;endFill=0;" edge="1" source="table_>=0and" target="table_tCW" parent="1">
        <mxGeometry relative="1" as="geometry"/>
      </mxCell>
      <mxCell id="edge100" style="edgeStyle=orthogonalEdgeStyle;rounded=0;strokeColor=#000;endArrow=classic;endFill=0;" edge="1" source="table_.tCW" target="table_sen" parent="1">
        <mxGeometry relative="1" as="geometry"/>
      </mxCell>
      <mxCell id="edge101" style="edgeStyle=orthogonalEdgeStyle;rounded=0;strokeColor=#000;endArrow=classic;endFill=0;" edge="1" source="table_.tCWMax" target="table_sen" parent="1">
        <mxGeometry relative="1" as="geometry"/>
      </mxCell>
      <mxCell id="edge102" style="edgeStyle=orthogonalEdgeStyle;rounded=0;strokeColor=#000;endArrow=classic;endFill=0;" edge="1" source="table_coldW_sri_2" target="table_during" parent="1">
        <mxGeometry relative="1" as="geometry"/>
      </mxCell>
      <mxCell id="edge103" style="edgeStyle=orthogonalEdgeStyle;rounded=0;strokeColor=#000;endArrow=classic;endFill=0;" edge="1" source="table_coldW_sri_2" target="table_state_stopped" parent="1">
        <mxGeometry relative="1" as="geometry"/>
      </mxCell>
      <mxCell id="edge104" style="edgeStyle=orthogonalEdgeStyle;rounded=0;strokeColor=#000;endArrow=classic;endFill=0;" edge="1" source="table_coldW_sri_2" target="table_state_stopping" parent="1">
        <mxGeometry relative="1" as="geometry"/>
      </mxCell>
      <mxCell id="edge105" style="edgeStyle=orthogonalEdgeStyle;rounded=0;strokeColor=#000;endArrow=classic;endFill=0;" edge="1" source="table_tWW" target="table_ensure" parent="1">
        <mxGeometry relative="1" as="geometry"/>
      </mxCell>
      <mxCell id="edge106" style="edgeStyle=orthogonalEdgeStyle;rounded=0;strokeColor=#000;endArrow=classic;endFill=0;" edge="1" source="table_tWW" target="table_sen" parent="1">
        <mxGeometry relative="1" as="geometry"/>
      </mxCell>
      <mxCell id="edge107" style="edgeStyle=orthogonalEdgeStyle;rounded=0;strokeColor=#000;endArrow=classic;endFill=0;" edge="1" source="table_tWW" target="table_tCW" parent="1">
        <mxGeometry relative="1" as="geometry"/>
      </mxCell>
      <mxCell id="edge108" style="edgeStyle=orthogonalEdgeStyle;rounded=0;strokeColor=#000;endArrow=classic;endFill=0;" edge="1" source="table_tWW" target="table_sen" parent="1">
        <mxGeometry relative="1" as="geometry"/>
      </mxCell>
      <mxCell id="edge109" style="edgeStyle=orthogonalEdgeStyle;rounded=0;strokeColor=#000;endArrow=classic;endFill=0;" edge="1" source="table_tWW" target="table_deltaTMax" parent="1">
        <mxGeometry relative="1" as="geometry"/>
      </mxCell>
      <mxCell id="edge110" style="edgeStyle=orthogonalEdgeStyle;rounded=0;strokeColor=#000;endArrow=classic;endFill=0;" edge="1" source="table_state_startupWarm" target="table_during" parent="1">
        <mxGeometry relative="1" as="geometry"/>
      </mxCell>
      <mxCell id="edge111" style="edgeStyle=orthogonalEdgeStyle;rounded=0;strokeColor=#000;endArrow=classic;endFill=0;" edge="1" source="table_orstate_stopping" target="table_state_normalOp" parent="1">
        <mxGeometry relative="1" as="geometry"/>
      </mxCell>
      <mxCell id="edge112" style="edgeStyle=orthogonalEdgeStyle;rounded=0;strokeColor=#000;endArrow=classic;endFill=0;" edge="1" source="table_sed" target="table_ensure" parent="1">
        <mxGeometry relative="1" as="geometry"/>
      </mxCell>
      <mxCell id="edge113" style="edgeStyle=orthogonalEdgeStyle;rounded=0;strokeColor=#000;endArrow=classic;endFill=0;" edge="1" source="table_>" target="table_pDW" parent="1">
        <mxGeometry relative="1" as="geometry"/>
      </mxCell>
      <mxCell id="edge114" style="edgeStyle=orthogonalEdgeStyle;rounded=0;strokeColor=#000;endArrow=classic;endFill=0;" edge="1" source="table_>" target="table_sen" parent="1">
        <mxGeometry relative="1" as="geometry"/>
      </mxCell>
      <mxCell id="edge115" style="edgeStyle=orthogonalEdgeStyle;rounded=0;strokeColor=#000;endArrow=classic;endFill=0;" edge="1" source="table_>" target="table_pCW" parent="1">
        <mxGeometry relative="1" as="geometry"/>
      </mxCell>
      <mxCell id="edge116" style="edgeStyle=orthogonalEdgeStyle;rounded=0;strokeColor=#000;endArrow=classic;endFill=0;" edge="1" source="table_dWDemand" target="table_during" parent="1">
        <mxGeometry relative="1" as="geometry"/>
      </mxCell>
      <mxCell id="edge117" style="edgeStyle=orthogonalEdgeStyle;rounded=0;strokeColor=#000;endArrow=classic;endFill=0;" edge="1" source="table_ensure" target="table_dWFlowMax" parent="1">
        <mxGeometry relative="1" as="geometry"/>
      </mxCell>
      <mxCell id="edge118" style="edgeStyle=orthogonalEdgeStyle;rounded=0;strokeColor=#000;endArrow=classic;endFill=0;" edge="1" source="table_.dWFlow" target="table_sed" parent="1">
        <mxGeometry relative="1" as="geometry"/>
      </mxCell>
      <mxCell id="edge119" style="edgeStyle=orthogonalEdgeStyle;rounded=0;strokeColor=#000;endArrow=classic;endFill=0;" edge="1" source="table_.dWFlow" target="table_dWDemand" parent="1">
        <mxGeometry relative="1" as="geometry"/>
      </mxCell>
      <mxCell id="edge120" style="edgeStyle=orthogonalEdgeStyle;rounded=0;strokeColor=#000;endArrow=classic;endFill=0;" edge="1" source="table_.dWFlow" target="table_tolerance" parent="1">
        <mxGeometry relative="1" as="geometry"/>
      </mxCell>
      <mxCell id="edge121" style="edgeStyle=orthogonalEdgeStyle;rounded=0;strokeColor=#000;endArrow=classic;endFill=0;" edge="1" source="table_.dWFlow" target="table_sed" parent="1">
        <mxGeometry relative="1" as="geometry"/>
      </mxCell>
      <mxCell id="edge122" style="edgeStyle=orthogonalEdgeStyle;rounded=0;strokeColor=#000;endArrow=classic;endFill=0;" edge="1" source="table_.dWFlow" target="table_dWDemand" parent="1">
        <mxGeometry relative="1" as="geometry"/>
      </mxCell>
      <mxCell id="edge123" style="edgeStyle=orthogonalEdgeStyle;rounded=0;strokeColor=#000;endArrow=classic;endFill=0;" edge="1" source="table_.dWFlow" target="table_tolerance" parent="1">
        <mxGeometry relative="1" as="geometry"/>
      </mxCell>
      <mxCell id="edge124" style="edgeStyle=orthogonalEdgeStyle;rounded=0;strokeColor=#000;endArrow=classic;endFill=0;" edge="1" source="table_dWDemand" target="table_during" parent="1">
        <mxGeometry relative="1" as="geometry"/>
      </mxCell>
      <mxCell id="edge125" style="edgeStyle=orthogonalEdgeStyle;rounded=0;strokeColor=#000;endArrow=classic;endFill=0;" edge="1" source="table_ensure" target="table_dWFlowMax" parent="1">
        <mxGeometry relative="1" as="geometry"/>
      </mxCell>
      <mxCell id="edge126" style="edgeStyle=orthogonalEdgeStyle;rounded=0;strokeColor=#000;endArrow=classic;endFill=0;" edge="1" source="table_.dWFlow" target="table_sed" parent="1">
        <mxGeometry relative="1" as="geometry"/>
      </mxCell>
      <mxCell id="edge127" style="edgeStyle=orthogonalEdgeStyle;rounded=0;strokeColor=#000;endArrow=classic;endFill=0;" edge="1" source="table_.dWFlow" target="table_dWFlowMax" parent="1">
        <mxGeometry relative="1" as="geometry"/>
      </mxCell>
      <mxCell id="edge128" style="edgeStyle=orthogonalEdgeStyle;rounded=0;strokeColor=#000;endArrow=classic;endFill=0;" edge="1" source="table_.dWFlow" target="table_tolerance" parent="1">
        <mxGeometry relative="1" as="geometry"/>
      </mxCell>
      <mxCell id="edge129" style="edgeStyle=orthogonalEdgeStyle;rounded=0;strokeColor=#000;endArrow=classic;endFill=0;" edge="1" source="table_.dWFlow" target="table_sed" parent="1">
        <mxGeometry relative="1" as="geometry"/>
      </mxCell>
      <mxCell id="edge130" style="edgeStyle=orthogonalEdgeStyle;rounded=0;strokeColor=#000;endArrow=classic;endFill=0;" edge="1" source="table_.dWFlow" target="table_dWFlowMax" parent="1">
        <mxGeometry relative="1" as="geometry"/>
      </mxCell>
      <mxCell id="edge131" style="edgeStyle=orthogonalEdgeStyle;rounded=0;strokeColor=#000;endArrow=classic;endFill=0;" edge="1" source="table_.dWFlow" target="table_tolerance" parent="1">
        <mxGeometry relative="1" as="geometry"/>
      </mxCell>
      <mxCell id="edge132" style="edgeStyle=orthogonalEdgeStyle;rounded=0;strokeColor=#000;endArrow=classic;endFill=0;" edge="1" source="table_state_startupWarm" target="table_during" parent="1">
        <mxGeometry relative="1" as="geometry"/>
      </mxCell>
      <mxCell id="edge133" style="edgeStyle=orthogonalEdgeStyle;rounded=0;strokeColor=#000;endArrow=classic;endFill=0;" edge="1" source="table_orstate_normalOp" target="table_state_startupCold" parent="1">
        <mxGeometry relative="1" as="geometry"/>
      </mxCell>
      <mxCell id="edge134" style="edgeStyle=orthogonalEdgeStyle;rounded=0;strokeColor=#000;endArrow=classic;endFill=0;" edge="1" source="table_ensure" target="table_state_stopping" parent="1">
        <mxGeometry relative="1" as="geometry"/>
      </mxCell>
      <mxCell id="edge135" style="edgeStyle=orthogonalEdgeStyle;rounded=0;strokeColor=#000;endArrow=classic;endFill=0;" edge="1" source="table_>=0and" target="table_dWDemand" parent="1">
        <mxGeometry relative="1" as="geometry"/>
      </mxCell>
      <mxCell id="edge136" style="edgeStyle=orthogonalEdgeStyle;rounded=0;strokeColor=#000;endArrow=classic;endFill=0;" edge="1" source="table_<=dWFlowMax" target="table_dWDemand" parent="1">
        <mxGeometry relative="1" as="geometry"/>
      </mxCell>
      <mxCell id="edge137" style="edgeStyle=orthogonalEdgeStyle;rounded=0;strokeColor=#000;endArrow=classic;endFill=0;" edge="1" source="table_e_sri_req_state_after_startupCold" target="table_state_startupWarm" parent="1">
        <mxGeometry relative="1" as="geometry"/>
      </mxCell>
      <mxCell id="edge138" style="edgeStyle=orthogonalEdgeStyle;rounded=0;strokeColor=#000;endArrow=classic;endFill=0;" edge="1" source="table_e_sri_req_state_after_startupCold" target="table_state_normalOp" parent="1">
        <mxGeometry relative="1" as="geometry"/>
      </mxCell>
      <mxCell id="edge139" style="edgeStyle=orthogonalEdgeStyle;rounded=0;strokeColor=#000;endArrow=classic;endFill=0;" edge="1" source="table_e_sri_req_state_after_startupCold" target="table_state_stopped" parent="1">
        <mxGeometry relative="1" as="geometry"/>
      </mxCell>
      <mxCell id="edge140" style="edgeStyle=orthogonalEdgeStyle;rounded=0;strokeColor=#000;endArrow=classic;endFill=0;" edge="1" source="table_state_startupCold" target="table_after" parent="1">
        <mxGeometry relative="1" as="geometry"/>
      </mxCell>
      <mxCell id="edge141" style="edgeStyle=orthogonalEdgeStyle;rounded=0;strokeColor=#000;endArrow=classic;endFill=0;" edge="1" source="table_truefor1" target="table_becomes" parent="1">
        <mxGeometry relative="1" as="geometry"/>
      </mxCell>
      <mxCell id="edge142" style="edgeStyle=orthogonalEdgeStyle;rounded=0;strokeColor=#000;endArrow=classic;endFill=0;" edge="1" source="table_count" target="table_ensure" parent="1">
        <mxGeometry relative="1" as="geometry"/>
      </mxCell>
      <mxCell id="edge143" style="edgeStyle=orthogonalEdgeStyle;rounded=0;strokeColor=#000;endArrow=classic;endFill=0;" edge="1" source="table_==1" target="table_e_sri_req_state_after_startupCold" parent="1">
        <mxGeometry relative="1" as="geometry"/>
      </mxCell>
      <mxCell id="edge144" style="edgeStyle=orthogonalEdgeStyle;rounded=0;strokeColor=#000;endArrow=classic;endFill=0;" edge="1" source="table_e_sri_req_state_after_startupWarm" target="table_state_normalOp" parent="1">
        <mxGeometry relative="1" as="geometry"/>
      </mxCell>
      <mxCell id="edge145" style="edgeStyle=orthogonalEdgeStyle;rounded=0;strokeColor=#000;endArrow=classic;endFill=0;" edge="1" source="table_e_sri_req_state_after_startupWarm" target="table_state_stopping" parent="1">
        <mxGeometry relative="1" as="geometry"/>
      </mxCell>
      <mxCell id="edge146" style="edgeStyle=orthogonalEdgeStyle;rounded=0;strokeColor=#000;endArrow=classic;endFill=0;" edge="1" source="table_e_sri_req_state_after_startupWarm" target="table_state_stopped" parent="1">
        <mxGeometry relative="1" as="geometry"/>
      </mxCell>
      <mxCell id="edge147" style="edgeStyle=orthogonalEdgeStyle;rounded=0;strokeColor=#000;endArrow=classic;endFill=0;" edge="1" source="table_state_startupWarm" target="table_after" parent="1">
        <mxGeometry relative="1" as="geometry"/>
      </mxCell>
      <mxCell id="edge148" style="edgeStyle=orthogonalEdgeStyle;rounded=0;strokeColor=#000;endArrow=classic;endFill=0;" edge="1" source="table_truefor30" target="table_becomes" parent="1">
        <mxGeometry relative="1" as="geometry"/>
      </mxCell>
      <mxCell id="edge149" style="edgeStyle=orthogonalEdgeStyle;rounded=0;strokeColor=#000;endArrow=classic;endFill=0;" edge="1" source="table_count" target="table_ensure" parent="1">
        <mxGeometry relative="1" as="geometry"/>
      </mxCell>
      <mxCell id="edge150" style="edgeStyle=orthogonalEdgeStyle;rounded=0;strokeColor=#000;endArrow=classic;endFill=0;" edge="1" source="table_==1" target="table_e_sri_req_state_after_startupWarm" parent="1">
        <mxGeometry relative="1" as="geometry"/>
      </mxCell>
      <mxCell id="edge151" style="edgeStyle=orthogonalEdgeStyle;rounded=0;strokeColor=#000;endArrow=classic;endFill=0;" edge="1" source="table_sri" target="table_Cooling_system" parent="1">
        <mxGeometry relative="1" as="geometry"/>
      </mxCell>
      <mxCell id="edge152" style="edgeStyle=orthogonalEdgeStyle;rounded=0;strokeColor=#000;endArrow=classic;endFill=0;" edge="1" source="table_sri" target="table_Cooling_system" parent="1">
        <mxGeometry relative="1" as="geometry"/>
      </mxCell>
      <mxCell id="edge153" style="edgeStyle=orthogonalEdgeStyle;rounded=0;strokeColor=#000;endArrow=classic;endFill=0;" edge="1" source="table_issri_tRW" target="table_tRW" parent="1">
        <mxGeometry relative="1" as="geometry"/>
      </mxCell>
      <mxCell id="edge154" style="edgeStyle=orthogonalEdgeStyle;rounded=0;strokeColor=#000;endArrow=classic;endFill=0;" edge="1" source="table_issri_tWW" target="table_tWW" parent="1">
        <mxGeometry relative="1" as="geometry"/>
      </mxCell>
      <mxCell id="edge155" style="edgeStyle=orthogonalEdgeStyle;rounded=0;strokeColor=#000;endArrow=classic;endFill=0;" edge="1" source="table_issri_dWDemand" target="table_dWDemand" parent="1">
        <mxGeometry relative="1" as="geometry"/>
      </mxCell>
      <mxCell id="edge156" style="edgeStyle=orthogonalEdgeStyle;rounded=0;strokeColor=#000;endArrow=classic;endFill=0;" edge="1" source="table_<missing undefined>" target="table_dWFlowMax" parent="1">
        <mxGeometry relative="1" as="geometry"/>
      </mxCell>
      <mxCell id="edge157" style="edgeStyle=orthogonalEdgeStyle;rounded=0;strokeColor=#000;endArrow=classic;endFill=0;" edge="1" source="table_issri_state_stopped" target="table_state_stopped" parent="1">
        <mxGeometry relative="1" as="geometry"/>
      </mxCell>
      <mxCell id="edge158" style="edgeStyle=orthogonalEdgeStyle;rounded=0;strokeColor=#000;endArrow=classic;endFill=0;" edge="1" source="table_issri_state_startupCold" target="table_state_startupCold" parent="1">
        <mxGeometry relative="1" as="geometry"/>
      </mxCell>
      <mxCell id="edge159" style="edgeStyle=orthogonalEdgeStyle;rounded=0;strokeColor=#000;endArrow=classic;endFill=0;" edge="1" source="table_issri_state_startupWarm" target="table_state_startupWarm" parent="1">
        <mxGeometry relative="1" as="geometry"/>
      </mxCell>
      <mxCell id="edge160" style="edgeStyle=orthogonalEdgeStyle;rounded=0;strokeColor=#000;endArrow=classic;endFill=0;" edge="1" source="table_issri_state_normalOp" target="table_state_normalOp" parent="1">
        <mxGeometry relative="1" as="geometry"/>
      </mxCell>
      <mxCell id="edge161" style="edgeStyle=orthogonalEdgeStyle;rounded=0;strokeColor=#000;endArrow=classic;endFill=0;" edge="1" source="table_issri_state_stopping" target="table_state_stopping" parent="1">
        <mxGeometry relative="1" as="geometry"/>
      </mxCell>
      <mxCell id="edge162" style="edgeStyle=orthogonalEdgeStyle;rounded=0;strokeColor=#000;endArrow=classic;endFill=0;" edge="1" source="table_issri_ready" target="table_ready" parent="1">
        <mxGeometry relative="1" as="geometry"/>
      </mxCell>
      <mxCell id="edge163" style="edgeStyle=orthogonalEdgeStyle;rounded=0;strokeColor=#000;endArrow=classic;endFill=0;" edge="1" source="table_sri" target="table_Cooling_system" parent="1">
        <mxGeometry relative="1" as="geometry"/>
      </mxCell>
      <mxCell id="edge164" style="edgeStyle=orthogonalEdgeStyle;rounded=0;strokeColor=#000;endArrow=classic;endFill=0;" edge="1" source="table_sri" target="table_Cooling_system_flattened_simple" parent="1">
        <mxGeometry relative="1" as="geometry"/>
      </mxCell>
      <mxCell id="edge165" style="edgeStyle=orthogonalEdgeStyle;rounded=0;strokeColor=#000;endArrow=classic;endFill=0;" edge="1" source="table_sri" target="table_during" parent="1">
        <mxGeometry relative="1" as="geometry"/>
      </mxCell>
      <mxCell id="edge166" style="edgeStyle=orthogonalEdgeStyle;rounded=0;strokeColor=#000;endArrow=classic;endFill=0;" edge="1" source="table_ensure" target="table_state_stopping" parent="1">
        <mxGeometry relative="1" as="geometry"/>
      </mxCell>
      <mxCell id="edge167" style="edgeStyle=orthogonalEdgeStyle;rounded=0;strokeColor=#000;endArrow=classic;endFill=0;" edge="1" source="table_<missing undefined>" target="table_isOn" parent="1">
        <mxGeometry relative="1" as="geometry"/>
      </mxCell>
      <mxCell id="edge168" style="edgeStyle=orthogonalEdgeStyle;rounded=0;strokeColor=#000;endArrow=classic;endFill=0;" edge="1" source="table_active_component1" target="table_ActiveComponent" parent="1">
        <mxGeometry relative="1" as="geometry"/>
      </mxCell>
      <mxCell id="edge169" style="edgeStyle=orthogonalEdgeStyle;rounded=0;strokeColor=#000;endArrow=classic;endFill=0;" edge="1" source="table_active_component1" target="table_ActiveComponent" parent="1">
        <mxGeometry relative="1" as="geometry"/>
      </mxCell>
      <mxCell id="edge170" style="edgeStyle=orthogonalEdgeStyle;rounded=0;strokeColor=#000;endArrow=classic;endFill=0;" edge="1" source="table_active_component2" target="table_ActiveComponent" parent="1">
        <mxGeometry relative="1" as="geometry"/>
      </mxCell>
      <mxCell id="edge171" style="edgeStyle=orthogonalEdgeStyle;rounded=0;strokeColor=#000;endArrow=classic;endFill=0;" edge="1" source="table_active_component2" target="table_ActiveComponent" parent="1">
        <mxGeometry relative="1" as="geometry"/>
      </mxCell>
      <mxCell id="edge172" style="edgeStyle=orthogonalEdgeStyle;rounded=0;strokeColor=#000;endArrow=classic;endFill=0;" edge="1" source="table_active_component3" target="table_ActiveComponent" parent="1">
        <mxGeometry relative="1" as="geometry"/>
      </mxCell>
      <mxCell id="edge173" style="edgeStyle=orthogonalEdgeStyle;rounded=0;strokeColor=#000;endArrow=classic;endFill=0;" edge="1" source="table_active_component3" target="table_ActiveComponent" parent="1">
        <mxGeometry relative="1" as="geometry"/>
      </mxCell>
      <mxCell id="edge174" style="edgeStyle=orthogonalEdgeStyle;rounded=0;strokeColor=#000;endArrow=classic;endFill=0;" edge="1" source="table_all_active_components" target="table_ActiveComponent" parent="1">
        <mxGeometry relative="1" as="geometry"/>
      </mxCell>
      <mxCell id="edge175" style="edgeStyle=orthogonalEdgeStyle;rounded=0;strokeColor=#000;endArrow=classic;endFill=0;" edge="1" source="table_all_active_components" target="table_active_component1" parent="1">
        <mxGeometry relative="1" as="geometry"/>
      </mxCell>
      <mxCell id="edge176" style="edgeStyle=orthogonalEdgeStyle;rounded=0;strokeColor=#000;endArrow=classic;endFill=0;" edge="1" source="table_all_active_components" target="table_active_component2" parent="1">
        <mxGeometry relative="1" as="geometry"/>
      </mxCell>
      <mxCell id="edge177" style="edgeStyle=orthogonalEdgeStyle;rounded=0;strokeColor=#000;endArrow=classic;endFill=0;" edge="1" source="table_all_active_components" target="table_active_component3" parent="1">
        <mxGeometry relative="1" as="geometry"/>
      </mxCell>
      <mxCell id="edge178" style="edgeStyle=orthogonalEdgeStyle;rounded=0;strokeColor=#000;endArrow=classic;endFill=0;" edge="1" source="table_all_sri_stopping1" target="table_all_active_components" parent="1">
        <mxGeometry relative="1" as="geometry"/>
      </mxCell>
      <mxCell id="edge179" style="edgeStyle=orthogonalEdgeStyle;rounded=0;strokeColor=#000;endArrow=classic;endFill=0;" edge="1" source="table_all_sri_stopping1" target="table_sri_stopping1" parent="1">
        <mxGeometry relative="1" as="geometry"/>
      </mxCell>
    </root></mxGraphModel>
  </diagram>
</mxfile>